<?xml version="1.0" encoding="UTF-8" standalone="no"?>
<!-- Created with Inkscape (http://www.inkscape.org/) -->

<svg
   xmlns:dc="http://purl.org/dc/elements/1.1/"
   xmlns:cc="http://creativecommons.org/ns#"
   xmlns:rdf="http://www.w3.org/1999/02/22-rdf-syntax-ns#"
   xmlns:svg="http://www.w3.org/2000/svg"
   xmlns="http://www.w3.org/2000/svg"
   xmlns:sodipodi="http://sodipodi.sourceforge.net/DTD/sodipodi-0.dtd"
   xmlns:inkscape="http://www.inkscape.org/namespaces/inkscape"
   width="512"
   height="512"
   viewBox="0 0 512 512"
   version="1.1"
   id="svg8"
   inkscape:version="0.92.4 (5da689c313, 2019-01-14)"
   sodipodi:docname="U+4E42.svg">
  <defs
     id="defs2" />
  <sodipodi:namedview
     id="base"
     pagecolor="#ffffff"
     bordercolor="#666666"
     borderopacity="1.0"
     inkscape:pageopacity="0.0"
     inkscape:pageshadow="2"
     inkscape:zoom="2.02"
     inkscape:cx="250.48766"
     inkscape:cy="255.33771"
     inkscape:document-units="px"
     inkscape:current-layer="layer1"
     showgrid="false"
     units="px"
     inkscape:window-width="1920"
     inkscape:window-height="1017"
     inkscape:window-x="-8"
     inkscape:window-y="-8"
     inkscape:window-maximized="1" />
  <metadata
     id="metadata5">
    <rdf:RDF>
      <cc:Work
         rdf:about="">
        <dc:format>image/svg+xml</dc:format>
        <dc:type
           rdf:resource="http://purl.org/dc/dcmitype/StillImage" />
        <dc:title></dc:title>
      </cc:Work>
    </rdf:RDF>
  </metadata>
  <g
     inkscape:label="圖層 1"
     inkscape:groupmode="layer"
     id="layer1"
     transform="translate(0,-161.53332)">
    <path
       style="fill:#000000;stroke:none;stroke-width:1px;stroke-linecap:butt;stroke-linejoin:miter;stroke-opacity:1;fill-opacity:1"
       d="m 72.613301,309.61244 c 2.01313,-1.5269 2.29845,-1.95474 7.531446,0.85699 5.232996,2.81172 9.567907,5.77914 14.775108,7.71822 11.249645,4.18919 23.974785,3.63837 35.051775,8.26483 14.41184,6.01931 27.45635,15.1875 39.70513,24.87774 18.57466,14.69477 32.19829,34.96452 50.56864,49.91392 18.0502,14.68887 37.88575,27.18477 58.11731,38.68506 32.11029,18.25256 65.60446,34.24377 99.94423,47.84549 33.6219,13.31738 67.36325,29.74571 103.39161,32.86695 2.84029,0.24606 5.74394,-0.063 8.47504,-1.15071 2.73111,-1.0877 5.27615,-3.7529 7.11054,-1.93052 1.27253,1.2642 -0.0458,4.85728 -1.68227,8.13431 -1.63647,3.27703 -1.61102,4.88305 -3.59107,6.23801 -6.48389,4.437 -15.46504,2.9681 -23.29913,3.56378 -11.01116,0.83725 -22.09895,0.53677 -33.12884,0 -8.41431,-0.40948 -16.7657,-3.23835 -25.15337,-2.45399 -8.60519,0.8047 -17.12876,3.4589 -24.89149,7.2585 -3.49819,1.71225 -5.71063,5.81327 -9.46434,6.85193 -4.55024,1.25906 -14.11043,-1.22699 -14.11043,-1.22699 0,0 -24.00787,-16.49073 -35.70003,-25.16712 -17.87623,-13.26539 -34.92393,-27.61663 -52.64353,-41.09055 -14.33909,-10.90339 -29.83894,-20.33797 -43.42734,-32.16373 -12.34848,-10.74668 -23.4247,-22.90337 -34.39704,-35.05177 -15.2207,-16.85211 -26.03189,-37.93024 -43.5308,-52.40266 -9.05291,-7.48719 -19.60373,-13.65122 -30.85429,-17.03323 -4.56501,-1.37228 -9.55645,-1.94031 -14.25512,-1.13727 -2.67168,0.4566 -4.72261,3.41501 -7.430668,3.30189 -4.267972,-0.17829 -11.236128,-6.16245 -11.236128,-6.16245 0,0 -8.570572,-9.51813 -11.904588,-14.9446 -1.953833,-3.18007 -4.158356,-6.48281 -4.659829,-10.1813 -0.194189,-1.43219 -0.462066,-3.40732 0.689474,-4.28073 z"
       id="path3742"
       inkscape:connector-curvature="0"
       sodipodi:nodetypes="asaaaaaaasssasaaaacaaaaaaaacaaa" />
    <path
       style="fill:#000000;stroke:none;stroke-width:1px;stroke-linecap:butt;stroke-linejoin:miter;stroke-opacity:1;fill-opacity:1"
       d="M 237.06897,248.53332 C 239.1831,249.2587 240.11563,251.81742 241.81034,253.2747 244.38142,255.48557 246.86015,258.02867 250,259.30918 257.6576,262.43213 266.57694,260.63164 274.56897,262.75746 277.55989,263.55302 281.88748,263.39809 283.18966,266.20573 283.95433,267.85444 281.95065,269.62669 281.46552,271.37815 279.34396,279.03764 278.95229,287.16418 276.2931,294.65401 269.9511,312.51675 260.19498,329.01773 250.86207,345.51608 243.73813,358.1095 235.86312,370.28651 227.58621,382.15401 217.96944,395.94263 207.81889,409.38772 196.98276,422.24022 179.02729,443.53683 161.30632,465.40129 140.08621,483.44711 126.7949,494.75019 111.7892,504.0172 96.522335,512.46357 90.189391,515.96726 83.640827,519.24708 76.724138,521.37815 74.353824,522.10846 71.858073,522.36686 69.396552,522.67125 61.446234,523.65437 53.418409,524.91662 45.425157,524.38559 43.318994,524.24567 39.882385,525.10784 39.224138,523.10229 38.380495,520.53188 42.548378,518.76976 44.651254,517.0678 48.608381,513.86511 53.510261,512.0481 57.885972,509.44633 73.781484,499.99496 90.104442,491.15144 105.17241,480.42987 126.96703,464.92196 148.42849,448.58295 167.24138,429.5678 182.26541,414.38224 194.63919,396.75289 207.32759,379.5678 215.99093,367.83422 224.26195,355.78843 231.89655,343.36091 241.52432,327.68895 251.04854,311.84711 258.62069,295.08504 260.37935,291.19199 262.20194,287.22526 262.93103,283.01608 263.27434,281.0341 263.89898,278.74489 262.93103,276.9816 262.02957,275.33942 260.00331,274.43344 258.18966,273.96435 253.59091,272.7749 248.65233,274.05374 243.96552,274.82642 242.34915,275.0929 240.62674,276.9659 239.22414,276.11953 238.08998,275.43515 238.81381,273.48546 238.36207,272.24022 236.76231,267.83039 233.15664,264.25885 231.89655,259.74022 231.31635,257.65965 231.03949,255.39223 231.46552,253.2747 231.78236,251.69988 232.30935,249.89215 233.62069,248.96435 234.56631,248.29531 235.9733,248.15738 237.06897,248.53332 Z"
       id="path814"
       inkscape:connector-curvature="0"
       sodipodi:nodetypes="aaaaaaaaaaaaaaaaaaaaaaaaaaaaaaaaa" />
  </g>
</svg>
