<?xml version="1.0" encoding="UTF-8" standalone="no"?>
<!-- Created with Inkscape (http://www.inkscape.org/) -->

<svg
   xmlns:dc="http://purl.org/dc/elements/1.1/"
   xmlns:cc="http://creativecommons.org/ns#"
   xmlns:rdf="http://www.w3.org/1999/02/22-rdf-syntax-ns#"
   xmlns:svg="http://www.w3.org/2000/svg"
   xmlns="http://www.w3.org/2000/svg"
   xmlns:sodipodi="http://sodipodi.sourceforge.net/DTD/sodipodi-0.dtd"
   xmlns:inkscape="http://www.inkscape.org/namespaces/inkscape"
   width="512"
   height="512"
   viewBox="0 0 512 512"
   version="1.1"
   id="svg8"
   inkscape:version="0.92.4 (5da689c313, 2019-01-14)"
   sodipodi:docname="假2.svg">
  <defs
     id="defs2" />
  <sodipodi:namedview
     id="base"
     pagecolor="#ffffff"
     bordercolor="#666666"
     borderopacity="1.0"
     inkscape:pageopacity="0.0"
     inkscape:pageshadow="2"
     inkscape:zoom="1.63"
     inkscape:cx="338.31044"
     inkscape:cy="254.95763"
     inkscape:document-units="px"
     inkscape:current-layer="layer1"
     showgrid="false"
     units="px"
     inkscape:window-width="1920"
     inkscape:window-height="1017"
     inkscape:window-x="-8"
     inkscape:window-y="-8"
     inkscape:window-maximized="1">
    <inkscape:grid
       type="xygrid"
       id="grid3724" />
  </sodipodi:namedview>
  <metadata
     id="metadata5">
    <rdf:RDF>
      <cc:Work
         rdf:about="">
        <dc:format>image/svg+xml</dc:format>
        <dc:type
           rdf:resource="http://purl.org/dc/dcmitype/StillImage" />
        <dc:title></dc:title>
      </cc:Work>
    </rdf:RDF>
  </metadata>
  <g
     inkscape:label="圖層 1"
     inkscape:groupmode="layer"
     id="layer1"
     transform="translate(0,-161.53333)">
    <path
       style="fill:#000000;stroke:none;stroke-width:1px;stroke-linecap:butt;stroke-linejoin:miter;stroke-opacity:1;fill-opacity:1"
       d="M 134.44961,222.67126 C 141.19955,226.48681 148.69335,230.81947 152.15517,237.75747 154.27595,242.00783 154.04502,247.34405 153.01724,251.98161 149.23359,269.05425 137.11782,283.17011 128.01724,298.1023 115.53209,318.58789 102.06962,338.52555 87.5,357.58505 74.712878,374.31274 61.744667,391.12264 46.452255,405.59566 41.361233,410.4139 35.663826,414.61145 29.741379,418.36092 25.506446,421.04203 21.358061,424.67862 16.37931,425.25747 15.202437,425.3943 13.654432,425.33372 12.931034,424.3954 11.831017,422.96856 12.464164,420.71183 12.997347,418.99089 14.476018,414.21823 18.17018,410.40293 21.319629,406.52405 34.069029,390.82182 50.756423,378.65305 63.793103,363.1885 78.18641,346.11467 91.649382,328.09936 103.01724,308.87816 113.94457,290.40182 125.57412,271.55684 130.60345,250.6885 131.71484,246.07698 132.23131,241.05445 131.03448,236.46436 129.97759,232.41098 125.7332,229.71236 124.56897,225.6885 124.21752,224.4738 123.83965,222.985 124.48224,221.89591 125.05351,220.92768 126.35019,220.42205 127.47086,220.33303 129.9165,220.13876 132.31386,221.46398 134.44961,222.67126 Z"
       id="path3726"
       inkscape:connector-curvature="0"
       sodipodi:nodetypes="aaaaaaaaaaaaaaaaaaa" />
    <path
       style="fill:#000000;stroke:none;stroke-width:1px;stroke-linecap:butt;stroke-linejoin:miter;stroke-opacity:1;fill-opacity:1"
       d="M 104.01526,371.72893 C 106.15491,370.78962 108.29136,374.05786 109.55717,376.02208 113.92157,382.79455 114.71249,391.49317 115.14307,399.53859 115.9668,414.92997 110.97899,430.11032 109.04073,445.41485 107.27862,459.32845 104.98319,473.18377 104.01606,487.18795 102.42959,510.16022 109.11173,534.71034 103.21285,557.33952 102.53443,559.94207 101.97922,563.83761 99.354839,564.42593 96.604222,565.04255 94.226041,561.68536 92.52753,559.43565 88.111128,553.58605 85.881258,546.07354 84.909962,538.80862 84.188073,533.40918 85.551878,527.9187 86.345382,522.52931 87.978372,511.43822 91.502793,500.68318 93.172691,489.59759 98.768173,452.45207 103.68513,414.97208 103.81809,377.40772 103.82004,376.85815 103.67484,376.31488 103.67397,375.76531 103.67183,374.41505 102.77889,372.2717 104.01526,371.72893 Z"
       id="path3728"
       inkscape:connector-curvature="0"
       sodipodi:nodetypes="aasasaaaaaaaaa" />
    <path
       style="fill:#000000;stroke:none;stroke-width:1px;stroke-linecap:butt;stroke-linejoin:miter;stroke-opacity:1;fill-opacity:1"
       d="M 181.1245,275.94297 C 183.53543,275.08943 186.20069,276.87467 188.75502,276.74618 192.03271,276.58131 195.18523,275.4288 198.39357,274.73815 206.83956,272.92 215.65055,272.26697 223.69478,269.11566 230.62131,266.40221 237.46182,262.86855 242.97189,257.87068 245.17351,255.87372 245.92798,252.56678 248.19277,250.64176 250.01742,249.09085 252.27178,247.90611 254.61847,247.42891 256.72151,247.00126 259.17618,246.774 261.04418,247.83052 265.14902,250.15217 268.07231,254.86931 269.07631,259.4771 269.5683,261.73506 268.52667,264.0883 267.87149,266.30441 266.80001,269.92862 266.08777,274.03597 263.45382,276.74618 259.86331,280.44064 254.02377,280.90488 249.39759,283.17188 246.5478,284.56838 243.06485,285.21104 240.96385,287.58955 237.93499,291.01848 237.48024,296.06517 236.14458,300.44096 234.45725,305.96884 233.27362,311.64335 232.12852,317.30844 230.83785,323.69363 234.17222,332.73779 228.91566,336.58554 227.388,337.70377 224.96089,336.67836 223.29317,335.78233 221.87316,335.01938 220.70302,333.65474 220.08032,332.16787 218.52551,328.45532 219.5932,324.13222 219.27711,320.11967 218.92874,315.69748 220.77917,310.3809 218.07229,306.86666 216.15998,304.38398 212.27276,304.43128 209.23695,303.65381 205.8255,302.78014 202.11344,303.22652 198.79517,302.04738 194.55487,300.54059 190.67886,298.01073 187.14859,295.22008 183.80607,292.57785 180.14257,289.83117 178.31325,285.98313 177.38648,284.03364 176.80951,281.59916 177.51004,279.55743 178.06301,277.94578 179.51831,276.51161 181.1245,275.94297 Z"
       id="path3730"
       inkscape:connector-curvature="0"
       sodipodi:nodetypes="aaaaaaaaaaaaaaaaaaaaaaaaaa" />
    <path
       style="fill:#000000;stroke:none;stroke-width:1px;stroke-linecap:butt;stroke-linejoin:miter;stroke-opacity:1;fill-opacity:1"
       d="M 188.76149,340.60726 C 193.76928,337.29397 197.6711,336.49545 202.31046,334.92776 209.28953,332.56945 216.46701,330.7693 223.6972,329.35743 228.7322,328.37422 233.88478,326.5724 238.95582,327.34859 243.04087,327.97386 247.85957,329.164 250.2008,332.56947 251.30314,334.17289 251.44633,336.64109 250.59999,338.39317 249.46892,340.73469 246.59959,341.88153 244.17186,342.81327 241.77838,343.73187 239.10906,343.74945 236.54618,343.81445 233.18985,343.89957 229.85876,342.83419 226.50602,343.01124 222.15363,343.24108 217.87372,344.3276 213.65462,345.42088 207.91748,346.90752 202.71279,350.93542 196.78715,351.04337 192.74655,351.11698 186.74756,351.34453 185.15349,347.63093 184.11528,345.21229 185.56837,342.71991 188.76149,340.60726 Z"
       id="path3732"
       inkscape:connector-curvature="0"
       sodipodi:nodetypes="saaaaaaaaaaas" />
    <path
       style="fill:#000000;stroke:none;stroke-width:1px;stroke-linecap:butt;stroke-linejoin:miter;stroke-opacity:1;fill-opacity:1"
       d="M 177.05331,332.68826 C 179.80832,334.72005 182.83181,336.55404 186.1167,337.51723 188.50581,338.21776 191.17697,337.40446 193.56137,338.12086 195.0275,338.56137 196.70032,339.08512 197.58551,340.33413 198.2932,341.33268 198.21504,342.73225 198.18913,343.95587 198.16156,345.25782 197.90653,346.58585 197.38431,347.7788 196.13055,350.64286 193.15071,352.53727 191.95171,355.42468 187.98532,364.97646 188.08345,375.75584 186.72032,386.00818 184.10973,405.64292 182.83881,425.43324 181.08652,445.16311 179.49696,463.06079 178.29859,480.99219 176.65996,498.88544 175.86694,507.54494 175.07853,516.20717 174.04427,524.84118 173.75434,527.26154 173.57448,529.70669 173.03823,532.08464 170.43909,543.61022 168.74291,555.93584 162.37425,565.88745 161.83681,566.72726 161.15181,568.01072 160.16097,567.89953 159.13666,567.78458 158.80032,566.30999 158.39087,565.36406 156.33904,560.62388 155.84917,555.32497 155.1979,550.20099 154.36351,543.63632 155.51326,536.87399 154.29877,530.3689 154.0719,529.15376 153.07887,528.08875 153.11871,526.85325 153.1701,525.25986 154.40386,523.93173 154.92958,522.42669 159.35301,509.76321 163.61152,496.95715 166.19718,483.7949 169.81171,465.39521 170.45312,446.52929 172.04578,427.8457 173.76951,407.62462 176.44064,387.38547 176.05634,367.0947 176.02859,365.62968 176.12204,364.09198 175.60089,362.7225 174.88976,360.85382 173.18116,359.53388 172.09882,357.85275 168.78984,352.71312 165.50069,347.51161 162.97787,341.94379 160.92951,337.42309 159.36583,332.67089 158.14889,327.85929 157.74876,326.27724 157.38092,324.66176 157.34406,323.03031 157.31561,321.77098 157.26067,320.41861 157.79632,319.27853 158.2299,318.35568 158.89455,317.22604 159.90025,317.05814 160.99439,316.87547 161.95437,317.94443 162.84978,318.59922 168.2327,322.53564 171.68631,328.73015 177.05331,332.68826 Z"
       id="path3734"
       inkscape:connector-curvature="0"
       sodipodi:nodetypes="aaaaaaaaaaaaaaaaaaaaaaaaaaaaaaa" />
    <path
       style="fill:#000000;stroke:none;stroke-width:1px;stroke-linecap:butt;stroke-linejoin:miter;stroke-opacity:1;fill-opacity:1"
       d="M 208.471,381.27474 C 212.83532,379.84393 217.64937,381.65036 222.24061,381.77303 227.27241,381.90747 232.5862,380.37628 237.33916,382.03353 241.78395,383.58334 247.32375,386.07687 248.54915,390.62181 249.22726,393.1369 247.60917,396.22076 245.57561,397.84869 243.91804,399.17563 241.32024,398.27949 239.29724,398.92431 236.47476,399.82396 233.95146,401.4789 231.285,402.76954 227.79887,404.45692 224.70046,408.21937 220.84354,407.8665 217.71367,407.58016 215.44935,404.51797 213.26158,402.26149 209.94061,398.83623 206.81472,394.95194 205.11319,390.4948 204.39763,388.6204 203.61031,386.37846 204.37062,384.52176 205.03131,382.90836 206.81432,381.81787 208.471,381.27474 Z"
       id="path3736"
       inkscape:connector-curvature="0"
       sodipodi:nodetypes="aaaaaaaaaaaa" />
    <path
       style="fill:#000000;stroke:none;stroke-width:1px;stroke-linecap:butt;stroke-linejoin:miter;stroke-opacity:1;fill-opacity:1"
       d="M 142.59363,451.23099 C 150.02851,447.99211 158.67309,448.90675 166.77517,448.55461 182.78272,447.85887 198.81309,449.25003 214.83006,449.67731 225.55036,449.96329 237.25797,446.13241 246.98795,450.64176 248.62202,451.39907 250.37471,452.87126 250.60241,454.65783 250.79315,456.1544 249.69727,457.73635 248.51527,458.67389 245.3171,461.2106 240.58623,460.6227 236.64866,461.69912 227.25372,464.26743 217.97092,467.23116 208.6008,469.88859 196.79021,473.23815 185.36829,479.55604 173.09237,479.66291 169.93189,479.69043 166.75689,478.67502 163.90816,477.30602 155.34275,473.18979 147.43196,467.27781 141.12208,460.17182 139.81355,458.6982 137.82587,457.00289 138.15261,455.05943 138.47665,453.13201 140.8018,452.01157 142.59363,451.23099 Z"
       id="path3738"
       inkscape:connector-curvature="0"
       sodipodi:nodetypes="aaaaaaaaaaaaa" />
    <path
       style="fill:#000000;stroke:none;stroke-width:1px;stroke-linecap:butt;stroke-linejoin:miter;stroke-opacity:1;fill-opacity:1"
       d="M 303.59477,254.90588 C 306.38309,255.05225 308.70933,257.25459 311.43791,257.84705 314.53235,258.51895 317.75285,258.66689 320.91503,258.50065 329.08819,258.07098 337.34259,256.86727 345.09804,254.25228 347.1798,253.55035 349.4207,252.80198 350.95457,251.22918 353.55706,248.56063 353.16002,243.76483 355.83317,241.16706 357.43175,239.61356 359.70349,238.49426 361.93143,238.42285 366.27116,238.28375 370.46474,240.66553 374.12793,242.99654 379.76718,246.58499 385.36837,251.0957 388.45883,257.02252 390.1739,260.31165 390.48826,264.29535 390.28831,267.99938 390.14608,270.63421 389.81971,273.57582 388.15392,275.6222 386.05899,278.19577 382.30937,278.77306 379.31145,280.19589 376.30931,281.62072 372.96904,282.37787 370.16407,284.15976 368.21906,285.39535 366.44074,286.95087 364.98055,288.73345 360.73854,293.91203 357.99704,300.16919 354.91843,306.11348 350.44264,314.75552 347.9362,324.4233 342.72192,332.64089 340.01667,336.90429 337.89539,343.13978 332.96471,344.22757 331.32181,344.59002 329.23239,343.55008 328.39102,342.09318 327.21754,340.0612 328.43783,337.35812 329.00085,335.08019 330.82614,327.6952 334.88182,321.0483 337.84332,314.04121 341.28274,305.90332 346.44703,298.30531 348.21035,289.64819 348.43349,288.55267 349.0009,287.0847 348.21035,286.29415 347.6354,285.7192 346.57159,286.15176 345.77105,286.29415 340.5474,287.22324 336.06626,290.92537 330.83033,291.78258 328.49654,292.16466 325.98581,292.32369 323.73844,291.58757 321.30177,290.78944 319.30684,288.93867 317.41416,287.20889 312.8779,283.06306 309.02504,278.15777 305.60146,273.05437 303.54932,269.99532 301.39462,266.84161 300.43656,263.28476 299.78739,260.87471 298.65026,257.80708 300.13784,255.80287 300.84736,254.84694 302.40594,254.84347 303.59477,254.90588 Z"
       id="path3740"
       inkscape:connector-curvature="0"
       sodipodi:nodetypes="aaaaaaaaaaaaaaaaaaaaaaaaaaaaaa" />
    <path
       style="fill:#000000;stroke:none;stroke-width:1px;stroke-linecap:butt;stroke-linejoin:miter;stroke-opacity:1;fill-opacity:1"
       d="M 290.54326,324.63997 C 295.06253,324.02303 299.69647,324.29927 304.22535,324.84118 308.73264,325.38051 313.18667,326.45989 317.50503,327.85929 322.70759,329.54522 328.02038,331.30183 332.59557,334.29792 336.68382,336.97513 341.74008,339.71366 343.25956,344.35828 344.06534,346.82133 343.56308,350.05864 341.8511,352.00416 339.52511,354.64745 335.18771,354.29728 331.79074,355.22347 328.27446,356.18219 324.76806,357.48203 321.12676,357.63796 317.20352,357.80597 313.1444,357.37782 309.45674,356.0283 307.22015,355.20981 305.20927,353.77785 303.42053,352.20536 299.55728,348.80917 296.53103,344.53412 293.56137,340.33413 290.99146,336.69952 287.63406,333.22192 286.72032,328.86532 286.49833,327.80689 286.42229,326.46997 287.12274,325.64601 287.8925,324.74051 289.36572,324.80072 290.54326,324.63997 Z"
       id="path3742"
       inkscape:connector-curvature="0"
       sodipodi:nodetypes="aaaaaaaaaaaaaa" />
    <path
       style="fill:#000000;stroke:none;stroke-width:1px;stroke-linecap:butt;stroke-linejoin:miter;stroke-opacity:1;fill-opacity:1"
       d="M 265.08621,385.6023 270.68966,386.46436 287.5,383.44712 370.25862,370.08505 391.81034,364.48161 395.25862,359.74023 399.56897,354.56781 H 412.93103 L 438.7931,360.6023 444.39655,366.63678 446.98276,373.96436 441.81034,377.84367 427.15517,380.42988 410.34483,377.41264 402.15517,376.55057 390.51724,377.41264 362.06897,381.29195 C 362.06897,381.29195 321.55172,392.06781 319.82759,392.92988 318.10345,393.79195 298.27586,404.13678 298.27586,404.13678 L 289.65517,410.17126 283.62069,417.06781 278.44828,417.49885 272.84483,412.75747 259.91379,389.91264 260.34483,385.6023 Z"
       id="path3744"
       inkscape:connector-curvature="0" />
    <path
       style="fill:#000000;stroke:none;stroke-width:1px;stroke-linecap:butt;stroke-linejoin:miter;stroke-opacity:1;fill-opacity:1"
       d="M 335.77586,410.17126 C 341.17355,408.89702 344.07525,418.22745 345.68966,423.53333 346.56895,426.42318 346.04424,429.66834 345.25862,432.58505 340.79616,449.15256 331.28193,464.14252 321.55172,478.27471 311.62528,492.6919 300.4251,506.71444 286.63793,517.49885 275.66855,526.07917 262.84009,532.44799 249.65936,536.94441 234.82969,542.00335 218.74601,548.00603 203.35775,545.05419 201.93176,544.78065 199.46529,544.20857 199.64974,542.76834 199.95889,540.3544 204.35609,541.49516 206.62959,540.6269 229.92525,531.73016 254.67286,524.34198 274.56897,509.30919 290.42229,497.33099 302.6298,480.77252 313.36207,464.05057 322.33412,450.07122 329.28565,434.659 334.25181,418.8079 335.12581,416.01825 332.93071,410.84292 335.77586,410.17126 Z"
       id="path3746"
       inkscape:connector-curvature="0"
       sodipodi:nodetypes="aaaaaaaaaaaaa" />
    <path
       style="fill:#000000;stroke:none;stroke-width:1px;stroke-linecap:butt;stroke-linejoin:miter;stroke-opacity:1;fill-opacity:1"
       d="M 287.6788,437.82981 C 289.352,437.86689 290.96681,438.5723 292.48979,439.26621 329.32295,456.04843 362.441,480.29704 395.05308,504.27155 410.1214,515.34891 426.25606,525.87423 437.85867,540.54193 442.18021,546.00511 445.41846,552.47025 447.33472,559.16726 448.71824,564.00245 449.35205,569.21941 448.64176,574.19823 448.05225,578.33042 447.8689,584.05379 444.1118,585.87223 442.65786,586.57593 440.85597,585.29218 439.48112,584.44429 419.26499,571.97672 407.02794,549.73943 390.15168,533.02644 368.58039,511.66383 346.07286,491.26623 323.81936,470.61524 317.43373,464.68945 311.22944,458.55137 304.54051,452.97019 298.73996,448.13027 292.33948,444.04591 286.49209,439.26268 286.14714,438.9805 285.38339,438.81248 285.48844,438.37937 285.66586,437.64783 286.92623,437.81313 287.6788,437.82981 Z"
       id="path3748"
       inkscape:connector-curvature="0"
       sodipodi:nodetypes="aaaaaaaaaaaaaa" />
  </g>
</svg>
