<?xml version="1.0" encoding="UTF-8" standalone="no"?>
<!-- Created with Inkscape (http://www.inkscape.org/) -->

<svg
 xmlns:dc="http://purl.org/dc/elements/1.1/"
 xmlns:cc="http://creativecommons.org/ns#"
 xmlns:rdf="http://www.w3.org/1999/02/22-rdf-syntax-ns#"
 xmlns:svg="http://www.w3.org/2000/svg"
 xmlns="http://www.w3.org/2000/svg"
 xmlns:sodipodi="http://sodipodi.sourceforge.net/DTD/sodipodi-0.dtd"
 xmlns:inkscape="http://www.inkscape.org/namespaces/inkscape"
 width="512"
 height="512"
 viewBox="0 0 512 512"
 version="1.1"
 id="svg8"
 inkscape:version="0.92.4 (5da689c313, 2019-01-14)"
 sodipodi:docname="勿2.svg">
<defs
 id="defs2" />
<sodipodi:namedview
 id="base"
 pagecolor="#ffffff"
 bordercolor="#666666"
 borderopacity="1.0"
 inkscape:pageopacity="0.0"
 inkscape:pageshadow="2"
 inkscape:zoom="1.88"
 inkscape:cx="141.0475"
 inkscape:cy="252.5561"
 inkscape:document-units="px"
 inkscape:current-layer="layer1"
 showgrid="false"
 units="px"
 inkscape:window-width="1920"
 inkscape:window-height="1001"
 inkscape:window-x="-9"
 inkscape:window-y="-9"
 inkscape:window-maximized="1">
<inkscape:grid
 type="xygrid"
 id="grid21" />
</sodipodi:namedview>
<metadata
 id="metadata5">
<rdf:RDF>
<cc:Work
 rdf:about="">
<dc:format>image/svg+xml</dc:format>
<dc:type
 rdf:resource="http://purl.org/dc/dcmitype/StillImage" />
<dc:title></dc:title>
</cc:Work>
</rdf:RDF>
</metadata>
<g
 inkscape:label="圖層 1"
 inkscape:groupmode="layer"
 id="layer1"
 transform="translate(0,-161.53332)">
<path
 style="fill:#000000;stroke:none;stroke-width:1px;stroke-linecap:butt;stroke-linejoin:miter;stroke-opacity:1;fill-opacity:1"
 d="M 163.82979,209.70353 C 166.46747,211.15147 167.98499,214.06392 170.21276,216.08651 175.99474,221.33596 181.85114,226.57246 188.29787,230.98013 192.49169,233.84747 197.78545,235.06666 201.59574,238.42694 208.5375,244.54886 215.72708,251.81718 218.08511,260.76736 219.58668,266.46676 217.82662,272.73091 215.95745,278.32055 212.25394,289.39566 204.66559,298.78224 198.40426,308.63971 190.07097,321.75911 181.27157,334.60824 171.80851,346.93758 166.29335,354.12324 160.6573,361.27404 154.25532,367.68226 146.69803,375.24691 137.91162,381.4749 129.78723,388.42694 125.87119,391.7779 122.84854,396.56508 118.08511,398.53332 115.78512,399.48367 113.00161,399.84489 110.6383,399.06523 109.08592,398.5531 107.75061,397.27864 106.91489,395.87375 105.61703,393.69197 106.05917,390.85531 105.31915,388.42694 104.48415,385.6869 102.12766,383.31267 102.12766,380.44822 102.12766,372.80968 106.87079,365.81639 110.6383,359.17161 112.94707,355.09961 115.39223,350.79404 119.14894,348.00141 122.79626,345.2901 127.41863,343.87579 131.91489,343.21417 134.55198,342.82612 138.27327,341.62967 139.89362,343.74609 141.5424,345.89964 138.07056,349.02211 138.29787,351.72481 138.41937,353.16941 138.49011,355.28783 139.85113,355.78709 142.14545,356.62872 144.41884,353.84449 146.27659,352.25673 151.56076,347.7405 154.98444,341.41098 159.04255,335.76736 167.25327,324.34869 176.02197,313.17191 182.44681,300.66098 187.03512,291.72628 193.29117,282.51135 193.08511,272.46949 192.92701,264.76497 188.35319,257.58061 184.04255,251.19289 179.55416,244.54177 171.41767,240.8839 167.02128,234.17162 164.09877,229.70962 162.6743,224.39545 161.17021,219.278 160.15045,215.80843 156.45837,211.16948 159.04255,208.6397 160.21067,207.49617 162.39683,208.91691 163.82979,209.70353 Z"
 id="path23"
 inkscape:connector-curvature="0"
 sodipodi:nodetypes="aaaaaaaaaaaaaaaaaaaaaaaaaaaaaa" />
<path
 style="fill:#000000;stroke:none;stroke-width:1px;stroke-linecap:butt;stroke-linejoin:miter;stroke-opacity:1;fill-opacity:1"
 d="M 222.87234,308.10779 C 226.89775,308.85077 231.01299,309.161 235.10638,309.17162 272.10866,309.26762 308.85858,303.06057 345.74468,300.12906 355.85592,299.32547 365.95028,298.22912 376.08374,297.78631 386.35153,297.33762 396.99528,300.15842 406.91489,297.46949 409.67426,296.7215 411.59852,293.94797 414.3617,293.21417 417.27491,292.44052 420.46718,292.53678 423.40426,293.21417 430.89935,294.94278 438.61132,297.98208 444.14894,303.32055 446.31896,305.41252 448.01918,308.30979 448.40426,311.29928 448.89325,315.0954 448.08781,319.44304 445.74468,322.46949 443.65681,325.16625 439.44553,325.23052 436.70213,327.25673 434.08005,329.19333 431.75625,331.57379 429.78723,334.17161 420.82017,346.00232 414.95768,359.8992 407.97872,373.00141 386.50676,413.31259 369.42157,455.96738 346.2766,495.34183 330.10316,522.85625 310.27128,548.0511 292.55319,574.59715 288.43082,580.77345 284.89636,587.36698 280.31915,593.21418 276.29758,598.35157 272.67907,604.32701 267.02127,607.57588 264.18612,609.2039 260.41976,611.06373 257.44681,609.70353 255.06626,608.61437 255.07153,605.03271 253.7234,602.78864 245.49313,589.08869 235.14948,576.71806 227.12766,562.89502 226.13268,561.18048 224.62726,559.5518 224.46809,557.57587 224.22944,554.61329 224.30595,549.99893 227.12766,549.06523 229.41718,548.30763 231.27346,551.61529 232.97872,553.32055 239.79978,560.14161 242.88429,570.21172 250,576.72481 251.52525,578.12089 253.34353,579.30606 255.31915,579.9163 258.20405,580.8074 261.53941,581.52124 264.3617,580.44821 268.11176,579.02244 270.24936,574.97332 272.87234,571.93758 279.08572,564.74643 284.57433,556.94076 289.89362,549.06524 309.31344,520.31303 328.06744,490.97963 344.14894,460.23545 363.64886,422.95603 377.68222,383.05896 395.10256,344.76361 397.0414,340.50144 399.26839,336.36848 401.06382,332.04396 402.65534,328.2106 405.4356,324.4908 405.31915,320.34183 405.24338,317.64226 403.77774,315.03292 402.12766,312.89502 400.89247,311.29467 399.2418,309.85835 397.34043,309.17162 388.14551,305.85064 377.79701,307.88548 368.02678,308.22891 356.2898,308.64148 344.0976,310.67332 332.97872,311.83119 316.83919,313.51189 300.92205,316.92455 284.98253,319.96443 270.95869,322.63896 256.69434,324.53855 243.0851,328.85247 239.22352,330.07653 235.8831,332.82519 231.91489,333.6397 230.52542,333.9249 228.87125,334.37714 227.65957,333.6397 222.71447,330.63007 221.18285,323.80486 219.68085,318.21417 218.71368,314.61421 216.22724,309.35888 219.14894,307.04396 220.16066,306.24235 221.60298,307.8735 222.87234,308.10779 Z"
 id="path25"
 inkscape:connector-curvature="0"
 sodipodi:nodetypes="aaaaaaaaaaaaaaaaaaaaaaaaaaaaaaaaaaasaaaaaaa" />
<path
 style="fill:#000000;stroke:none;stroke-width:1px;stroke-linecap:butt;stroke-linejoin:miter;stroke-opacity:1;fill-opacity:1"
 d="M 240.95745,347.46949 C 245.24222,347.46949 249.42515,349.97835 252.65957,352.78864 256.14973,355.82113 258.91484,360.0234 260.10638,364.49077 261.11268,368.26361 260.97619,372.54842 259.57447,376.19289 258.17275,379.83736 255.02448,382.61716 252.12766,385.23545 248.33353,388.66477 243.54068,390.79791 239.3617,393.74609 228.69849,401.26875 218.15038,408.97526 207.97872,417.15034 193.66389,428.65533 180.56674,441.61813 166.31212,453.19764 159.44852,458.77318 153.88953,467.57227 145.21277,469.278 140.52835,470.19889 134.39705,469.25693 131.38298,465.5546 129.47672,463.21304 130.34174,459.48817 130.85107,456.51204 131.85243,450.66085 134.45927,445.03473 137.74914,440.09348 138.5944,438.82394 139.44245,436.65519 140.95745,436.83119 142.28939,436.98592 142.37839,439.10635 143.04547,440.26954 143.80114,441.58718 144.01286,443.34664 145.21277,444.278 146.36776,445.1745 148.02927,445.60165 149.46809,445.34183 152.85593,444.73005 155.26154,441.60469 157.97872,439.49077 178.20459,423.75539 196.98181,406.219 215.77312,388.79559 219.80302,385.05905 224.21172,381.62302 227.54898,377.25672 231.12598,372.57676 234.94522,367.59282 236.17021,361.83119 236.98476,358.00003 233.13729,353.51491 235.10638,350.12906 236.18342,348.27709 238.81506,347.46949 240.95745,347.46949 Z"
 id="path27"
 inkscape:connector-curvature="0"
 sodipodi:nodetypes="aaaaaaaaaaaaaaaaaaaaaa" />
<path
 style="fill:#000000;stroke:none;stroke-width:1px;stroke-linecap:butt;stroke-linejoin:miter;stroke-opacity:1;fill-opacity:1"
 d="M 311.14502,347.60967 C 313.78291,348.58342 316.15045,350.32505 318.16611,352.28561 319.45823,353.54241 320.49098,355.08446 321.28713,356.70164 322.64356,359.45688 323.43915,362.48599 324.00725,365.50402 324.78163,369.61793 325.17079,373.85121 324.91573,378.02958 324.74237,380.86953 324.41071,383.79922 323.26733,386.40461 322.03383,389.21534 319.85752,391.53307 317.82178,393.83035 288.86408,426.5084 255.15494,454.7035 222.27723,483.43431 205.93705,497.71348 188.90162,511.18846 171.78218,524.52342 154.57191,537.92913 137.36019,551.38544 119.30693,563.63233 98.462017,577.77301 76.846114,590.78433 54.950495,603.23629 51.549959,605.17016 48.353128,607.74717 44.554455,608.68183 41.670182,609.3915 38.463137,609.616 35.643564,608.68183 33.911383,608.10793 31.991702,607.08138 31.252193,605.41317 27.085907,596.01469 30.028732,584.10179 34.220803,574.71479 34.804671,573.40738 35.741121,571.19982 37.128713,571.55312 39.106746,572.05676 38.613861,577.49372 38.613861,577.49372 39.438943,580.79405 38.894229,584.79559 41.089109,587.39471 41.972678,588.44101 43.482672,589.01013 44.851708,589.0445 46.914467,589.0963 48.78631,587.75576 50.63852,586.84638 70.867696,576.91441 89.530813,564.01973 108.28323,551.52131 131.48573,536.05692 153.97899,519.52084 176.07298,502.51029 192.82808,489.61024 209.26015,476.26584 225.14918,462.31294 242.03777,447.48228 259.09424,432.69825 274.25743,416.10758 281.47306,408.21266 288.24407,399.83651 294.05941,390.86005 298.9129,383.36828 305.26132,375.99916 306.5351,367.16398 307.05557,363.55392 305.72251,359.8275 304.38009,356.43614 303.45409,354.09677 300.84769,352.49912 300.39906,350.02347 300.17967,348.81287 300.12531,347.12581 301.12159,346.40394 303.84667,344.42943 307.98802,346.44429 311.14502,347.60967 Z"
 id="path29"
 inkscape:connector-curvature="0"
 sodipodi:nodetypes="aaaaaaaaaaaaaaaaaaaaaaaaaaaaaa" />
</g>
</svg>
