<?xml version="1.0" encoding="UTF-8" standalone="no"?>
<!-- Created with Inkscape (http://www.inkscape.org/) -->

<svg
 xmlns:dc="http://purl.org/dc/elements/1.1/"
 xmlns:cc="http://creativecommons.org/ns#"
 xmlns:rdf="http://www.w3.org/1999/02/22-rdf-syntax-ns#"
 xmlns:svg="http://www.w3.org/2000/svg"
 xmlns="http://www.w3.org/2000/svg"
 xmlns:sodipodi="http://sodipodi.sourceforge.net/DTD/sodipodi-0.dtd"
 xmlns:inkscape="http://www.inkscape.org/namespaces/inkscape"
 width="512"
 height="512"
 viewBox="0 0 512 512"
 version="1.1"
 id="svg8"
 inkscape:version="0.92.4 (5da689c313, 2019-01-14)"
 sodipodi:docname="困2.svg">
<defs
 id="defs2" />
<sodipodi:namedview
 id="base"
 pagecolor="#ffffff"
 bordercolor="#666666"
 borderopacity="1.0"
 inkscape:pageopacity="0.0"
 inkscape:pageshadow="2"
 inkscape:zoom="2.16"
 inkscape:cx="203.66995"
 inkscape:cy="221.82572"
 inkscape:document-units="px"
 inkscape:current-layer="layer1"
 showgrid="false"
 units="px"
 inkscape:window-width="1920"
 inkscape:window-height="1001"
 inkscape:window-x="-9"
 inkscape:window-y="-9"
 inkscape:window-maximized="1">
<inkscape:grid
 type="xygrid"
 id="grid18" />
</sodipodi:namedview>
<metadata
 id="metadata5">
<rdf:RDF>
<cc:Work
 rdf:about="">
<dc:format>image/svg+xml</dc:format>
<dc:type
 rdf:resource="http://purl.org/dc/dcmitype/StillImage" />
<dc:title></dc:title>
</cc:Work>
</rdf:RDF>
</metadata>
<g
 inkscape:label="圖層 1"
 inkscape:groupmode="layer"
 id="layer1"
 transform="translate(0,-161.53332)">
<path
 style="fill:#000000;stroke:none;stroke-width:1px;stroke-linecap:butt;stroke-linejoin:miter;stroke-opacity:1;fill-opacity:1"
 d="M 96.982759,315.34366 C 102.65382,316.2066 108.25067,318.49259 112.93103,321.80918 118.24657,325.57587 122.76477,330.73289 125.86207,336.46435 129.47465,343.14933 127.44843,352.28644 131.89655,358.44711 133.10956,360.12713 135.19901,361.00258 137.06897,361.89539 139.24243,362.93311 143.02288,361.8342 143.96552,364.05056 144.97145,366.41573 141.55885,368.59745 140.51724,370.94712 137.14354,378.55751 135.33292,386.85119 131.46552,394.22297 128.96622,398.98696 125.48611,403.16883 122.41379,407.58504 120.29626,410.62882 117.1912,413.1434 115.94827,416.63677 112.90794,425.18197 114.8528,434.7438 114.22414,443.79194 113.16552,459.02841 111.47273,474.22431 110.77586,489.4816 109.54326,516.4684 120.01972,545.64081 109.48276,570.51608 108.92799,571.82577 107.86629,573.28654 106.46552,573.53332 104.12329,573.94596 101.72921,572.14891 100,570.51608 96.915181,567.60319 95.002736,563.42321 93.965517,559.30918 93.333273,556.80145 93.610001,554.11221 93.965517,551.55056 95.053431,543.71165 99.018282,536.49266 100.43103,528.70573 103.82833,509.98016 104.22175,490.81668 105.17241,471.80918 106.0266,454.73042 105.973,437.61609 106.03448,420.51608 106.0882,405.57296 106.3892,390.61104 105.60345,375.68849 105.04941,365.16645 104.76901,354.53102 102.58621,344.22298 101.55084,339.33355 100.66231,334.12684 97.844828,329.99884 96.579617,328.14513 94.172479,327.35786 92.672414,325.68849 90.941178,323.76186 88.106839,321.80057 88.362069,319.22298 88.522244,317.60536 90.335697,316.45864 91.810345,315.7747 93.379865,315.04675 95.272333,315.08339 96.982759,315.34366 Z"
 id="path20"
 inkscape:connector-curvature="0"
 sodipodi:nodetypes="aaaaaaaaaaaaaaaaaaaaaaaaaaa" />
<path
 style="fill:#000000;stroke:none;stroke-width:1px;stroke-linecap:butt;stroke-linejoin:miter;stroke-opacity:1;fill-opacity:1"
 d="M 134.91379,294.22298 C 138.11871,293.54249 141.13717,296.47602 144.39655,296.80918 149.70569,297.35186 155.0715,296.39793 160.37569,295.80875 184.61172,293.11665 208.54329,288.1651 232.61139,284.24603 253.8607,280.78595 275.0061,276.65188 296.33114,273.69416 305.16577,272.46883 314.38881,273.31001 322.92251,270.71616 325.56605,269.91265 328.31725,268.84329 330.27991,266.89858 331.96763,265.2263 332.17038,262.48417 333.62069,260.60229 335.17235,258.5889 336.74741,256.0019 339.22414,255.42987 345.07041,254.07961 351.28315,257.57819 356.46552,260.60229 365.06667,265.62136 371.92614,273.41353 378.01724,281.29194 380.5353,284.54887 383.89104,287.95411 384.05172,292.0678 384.2123,296.17898 380.07516,299.33801 378.87931,303.2747 376.21544,312.04407 375.40664,321.30319 374.56897,330.42987 372.51971,352.75718 372.99267,375.25058 372.84483,397.67125 372.61649,432.29962 373.74927,466.92362 374.13793,501.55056 374.29919,515.91819 374.97532,530.29122 374.56897,544.65401 374.38572,551.13129 374.21045,557.63844 373.27586,564.05056 371.68224,574.98425 369.19184,585.81574 365.94828,596.37815 364.90657,599.77039 363.84408,603.21924 362.06897,606.29194 361.14856,607.88517 360.45863,610.51557 358.62069,610.60229 356.84438,610.6861 355.92891,608.2266 354.9106,606.76874 350.15206,599.95618 346.73969,592.19049 344.0581,584.32514 342.21896,578.93075 341.07332,573.26646 340.54811,567.59142 340.16499,563.45171 340.47064,559.26458 340.82482,555.12229 340.99632,553.11656 341.78011,551.16162 341.71776,549.14954 341.62415,546.1285 339.81382,543.30441 339.82439,540.28193 339.83338,537.71227 339.20522,533.93648 341.48681,532.75426 342.89999,532.02201 344.30177,534.4941 345.88974,534.60185 347.51158,534.7119 349.471,534.50891 350.60025,533.33962 353.43564,530.4037 352.82619,525.45607 353.35569,521.40901 356.58337,496.73892 355.66129,471.68891 355.8344,446.80918 356.06937,413.03934 355.78923,379.23268 353.87931,345.51608 353.05266,330.92283 352.69744,316.17949 349.76905,301.8592 349.04694,298.32794 349.20034,293.919 346.47509,291.56014 342.63964,288.24034 336.53788,289.10388 331.46552,289.05056 304.28582,288.76487 277.55176,296.14171 250.77345,300.8043 221.77243,305.8539 192.15547,309.06585 164.22414,318.36091 161.35802,319.31471 158.78812,320.9985 156.03448,322.24022 153.042,323.58964 150.21696,325.55755 146.98276,326.11953 144.8201,326.49531 142.40601,326.63216 140.40974,325.71936 137.83894,324.54385 136.05349,322.00426 134.48276,319.65401 131.98302,315.91369 129.86173,311.69215 129.17198,307.2466 128.70721,304.25107 128.61872,300.86763 130.04896,298.19487 131.03667,296.34908 132.866,294.65778 134.91379,294.22298 Z"
 id="path22"
 inkscape:connector-curvature="0"
 sodipodi:nodetypes="aaaaaaaaaaaaaaaaaaaaaaaaaaaaaaaaaaaaaaaaaaaaa" />
<path
 style="fill:#000000;stroke:none;stroke-width:1px;stroke-linecap:butt;stroke-linejoin:miter;stroke-opacity:1;fill-opacity:1"
 d="M 158.63454,383.17187 C 162.87807,383.47606 166.09172,387.6518 170.28112,388.39276 173.98156,389.04724 177.81805,388.19949 181.5261,387.58954 194.63003,385.43403 207.24132,380.94338 220.08032,377.54938 236.56233,373.19235 253.23412,369.47128 269.47791,364.29637 273.15045,363.12638 276.52735,360.96032 280.32129,360.28031 282.42959,359.90243 284.65413,359.82462 286.74699,360.28031 291.78082,361.37635 297.23054,362.9943 300.80321,366.70601 302.50998,368.4792 303.87172,371.08565 303.61446,373.53332 303.29231,376.59833 300.69254,379.11132 298.39357,381.16384 296.47271,382.87878 294.04007,384.06344 291.56627,384.7783 288.12263,385.77341 284.38621,385.0459 280.84348,385.59173 269.2523,387.3776 257.96706,390.78097 246.58635,393.61364 234.36074,396.6566 222.14053,399.74418 210.04016,403.2522 199.3863,406.34086 188.35439,408.57854 178.31325,413.29236 176.29641,414.23916 174.666,415.87604 172.69076,416.90681 170.50884,418.04544 168.31262,419.96058 165.86345,419.71806 161.54055,419.29001 157.83361,415.79893 155.02008,412.48914 152.45144,409.46742 150.92164,405.53601 150.10065,401.65598 149.35168,398.11634 149.40091,394.33088 150.2008,390.8024 150.69071,388.64131 151.32615,386.21638 153.01205,384.7783 154.49499,383.51335 156.69037,383.03251 158.63454,383.17187 Z"
 id="path24"
 inkscape:connector-curvature="0"
 sodipodi:nodetypes="aaaaaaaaaaaaaaaaaaaaaa" />
<path
 style="fill:#000000;stroke:none;stroke-width:1px;stroke-linecap:butt;stroke-linejoin:miter;stroke-opacity:1;fill-opacity:1"
 d="M 223.32745,340.04331 C 228.43982,339.80205 233.50744,342.57532 237.64627,345.58608 240.21306,347.45327 242.21698,350.14473 243.65094,352.97644 245.3043,356.2414 246.1103,359.95368 246.42233,363.60008 247.66729,378.14873 243.6193,392.67486 242.72714,407.2494 241.85635,421.47481 241.53945,435.72935 241.1105,449.97492 240.79995,460.28854 239.83425,470.62026 240.41766,480.92205 240.61095,484.33518 240.94125,487.77569 241.80335,491.0838 242.38737,493.32484 244.40986,495.23541 244.34379,497.55036 244.19147,502.88728 241.174,508.09252 237.64627,512.10014 236.68654,513.19042 235.39707,514.54724 233.95109,514.40962 232.48695,514.27027 231.64261,512.55091 230.71781,511.40729 227.78732,507.78343 225.31545,503.71454 223.5584,499.39795 222.06603,495.7316 220.7943,491.80896 220.78701,487.85052 220.77653,482.15535 223.83209,476.84882 224.71314,471.22221 226.52899,459.6257 226.68293,447.8284 227.48453,436.11799 228.21126,425.50136 229.29433,414.88848 229.33212,404.24706 229.38057,390.60357 229.67392,376.79631 227.25358,363.36913 226.16516,357.33095 223.74757,351.60459 221.71081,345.81703 221.21725,344.41455 219.55912,343.04713 220.09417,341.65995 220.5278,340.53571 222.12382,340.10011 223.32745,340.04331 Z"
 id="path26"
 inkscape:connector-curvature="0"
 sodipodi:nodetypes="aaaaaaaaaaaaaaaaaaaaa" />
<path
 style="fill:#000000;stroke:none;stroke-width:1px;stroke-linecap:butt;stroke-linejoin:miter;stroke-opacity:1;fill-opacity:1"
 d="M 192.84222,445.125 C 195.78586,447.83463 197.69311,451.68677 198.84688,455.51769 199.93673,459.13636 200.37544,463.14851 199.53973,466.83418 198.1376,473.01791 194.46006,478.67571 190.30178,483.46249 187.70678,486.44971 184.51321,489.1684 180.83288,490.6219 178.097,491.7024 174.91031,492.25994 172.05683,491.5457 169.2606,490.84579 166.72918,488.9214 164.89742,486.69577 162.77118,484.11235 160.89292,480.80278 160.97129,477.45782 161.02533,475.15154 162.60237,473.07735 163.97362,471.22221 166.46698,467.849 170.62082,465.97611 173.21157,462.6771 176.1487,458.93701 177.9431,454.42352 180.14003,450.20587 181.68287,447.24393 181.3775,442.30675 184.52806,441.19887 187.41936,440.18216 190.58727,443.0493 192.84222,445.125 Z"
 id="path28"
 inkscape:connector-curvature="0"
 sodipodi:nodetypes="aaaaaaaaaaaaa" />
<path
 style="fill:#000000;stroke:none;stroke-width:1px;stroke-linecap:butt;stroke-linejoin:miter;stroke-opacity:1;fill-opacity:1"
 d="M 263.05064,425.7253 C 272.10379,427.10967 280.54336,432.09861 287.76216,437.73464 293.62015,442.30822 299.26279,447.94795 302.08098,454.82484 303.89675,459.25565 304.38347,464.49482 303.23572,469.14367 302.58047,471.79768 301.2211,474.71562 298.8477,476.07213 296.77469,477.25696 293.95713,477.04706 291.68828,476.30308 286.47864,474.59479 282.35951,470.27257 278.75515,466.14133 272.94819,459.48552 269.4256,451.11913 265.36013,443.27741 263.21947,439.14838 261.17592,434.94612 259.58641,430.57522 259.09491,429.22366 257.64896,427.62467 258.43166,426.41815 259.27897,425.11203 261.51165,425.48997 263.05064,425.7253 Z"
 id="path30"
 inkscape:connector-curvature="0"
 sodipodi:nodetypes="aaaaaaaaaaa" />
<path
 style="fill:#000000;stroke:none;stroke-width:1px;stroke-linecap:butt;stroke-linejoin:miter;stroke-opacity:1;fill-opacity:1"
 d="M 133.02649,537.5045 C 140.70939,536.99417 148.44446,538.56016 156.12136,537.9664 171.16293,536.80304 185.84399,532.77224 200.69447,530.11414 216.79185,527.23286 232.83196,524.02596 248.96276,521.33809 259.10071,519.64881 269.40545,518.90516 279.448,516.71911 282.1861,516.12308 284.9316,515.45579 287.53121,514.40963 288.90494,513.8568 289.98555,512.49413 291.45734,512.33109 293.20215,512.13781 294.85373,513.22257 296.53821,513.71678 304.66853,516.10213 313.14458,517.6812 320.78783,521.33809 322.7909,522.29645 324.87064,523.36017 326.3306,525.03327 328.30004,527.29022 329.99051,530.13291 330.25673,533.11647 330.48417,535.66537 330.01391,538.72392 328.17819,540.50683 326.35664,542.27597 323.31597,542.1169 320.78783,542.35442 316.79564,542.72949 312.75871,542.14752 308.77849,541.66158 303.80267,541.05409 298.95717,539.61966 293.99777,538.89019 287.56343,537.94377 281.10165,536.80505 274.59808,536.81165 261.12343,536.82532 247.60924,538.47474 234.41299,541.19968 216.9804,544.7994 200.12561,550.8864 183.37332,556.9042 177.10355,559.15644 170.53,560.96791 164.89741,564.52551 163.05416,565.68972 161.98249,567.90919 160.04749,568.91353 157.87601,570.04061 155.33452,570.506 152.88808,570.53017 149.82338,570.56045 146.55984,570.17173 143.88108,568.68258 142.12006,567.70361 140.92195,565.91458 139.724,564.29456 136.93645,560.52488 134.79049,556.29704 132.79554,552.05427 131.32329,548.92317 129.3708,545.80379 129.10036,542.35442 128.98353,540.86426 128.93863,538.99396 130.02415,537.9664 130.7595,537.27032 132.01616,537.57161 133.02649,537.5045 Z"
 id="path32"
 inkscape:connector-curvature="0"
 sodipodi:nodetypes="aaaaaaaaaaaaaaaaaaaaaaaaaaa" />
</g>
</svg>
