<?xml version="1.0" encoding="UTF-8" standalone="no"?>
<!-- Created with Inkscape (http://www.inkscape.org/) -->

<svg
 xmlns:dc="http://purl.org/dc/elements/1.1/"
 xmlns:cc="http://creativecommons.org/ns#"
 xmlns:rdf="http://www.w3.org/1999/02/22-rdf-syntax-ns#"
 xmlns:svg="http://www.w3.org/2000/svg"
 xmlns="http://www.w3.org/2000/svg"
 xmlns:sodipodi="http://sodipodi.sourceforge.net/DTD/sodipodi-0.dtd"
 xmlns:inkscape="http://www.inkscape.org/namespaces/inkscape"
 width="512"
 height="512"
 viewBox="0 0 512 512"
 version="1.1"
 id="svg8"
 inkscape:version="0.92.4 (5da689c313, 2019-01-14)"
 sodipodi:docname="士2.svg">
<defs
 id="defs2" />
<sodipodi:namedview
 id="base"
 pagecolor="#ffffff"
 bordercolor="#666666"
 borderopacity="1.0"
 inkscape:pageopacity="0.0"
 inkscape:pageshadow="2"
 inkscape:zoom="2.32"
 inkscape:cx="133.1228"
 inkscape:cy="260.58177"
 inkscape:document-units="px"
 inkscape:current-layer="layer1"
 showgrid="false"
 units="px"
 inkscape:window-width="1920"
 inkscape:window-height="1001"
 inkscape:window-x="-9"
 inkscape:window-y="-9"
 inkscape:window-maximized="1">
<inkscape:grid
 type="xygrid"
 id="grid18" />
</sodipodi:namedview>
<metadata
 id="metadata5">
<rdf:RDF>
<cc:Work
 rdf:about="">
<dc:format>image/svg+xml</dc:format>
<dc:type
 rdf:resource="http://purl.org/dc/dcmitype/StillImage" />
<dc:title></dc:title>
</cc:Work>
</rdf:RDF>
</metadata>
<g
 inkscape:label="圖層 1"
 inkscape:groupmode="layer"
 id="layer1"
 transform="translate(0,-161.53332)">
<path
 style="fill:#000000;stroke:none;stroke-width:1px;stroke-linecap:butt;stroke-linejoin:miter;stroke-opacity:1;fill-opacity:1"
 d="M 70,423.53332 C 75.916921,424.11983 81.550767,426.76707 87.490637,427.03519 92.959798,427.28207 98.413785,426.13692 103.82022,425.27489 146.27804,418.50526 230,398.53332 230,398.53332 230,398.53332 302.14724,389.11736 337.8839,382.40972 343.63335,381.33057 349.22472,379.46442 355,378.53332 361.36508,377.50714 367.81179,376.33707 374.25094,376.66066 382.73859,377.0872 391.85994,377.46597 399.25094,381.66066 403.89386,384.29571 408.08002,388.55196 410,393.53332 410.5994,395.08847 410.87622,397.11557 410,398.53332 408.04072,401.70351 403.62708,402.67708 400,403.53332 395.13376,404.68208 390,403.53332 385,403.53332 H 365 C 360,403.53332 354.99886,403.4264 350,403.53332 341.24243,403.72063 332.47597,403.94572 323.74532,404.65692 299.06786,406.66712 274.48184,409.83772 250,413.53332 231.57484,416.31465 213.05091,418.90874 195,423.53332 179.68329,427.45741 164.60782,432.48256 150,438.53332 136.22762,444.23803 122.09328,449.81697 110,458.53332 108.08788,459.9115 107.27567,462.91942 105,463.53332 102.16989,464.29679 99.138738,462.55876 96.498127,461.28613 89.391869,457.8613 82.955222,452.86793 77.513196,447.15717 72.353621,441.74282 67.180225,435.68755 65,428.53332 64.51415,426.93904 63.821489,424.71183 65,423.53332 66.178511,422.35481 68.341461,423.36892 70,423.53332 Z"
 id="path20"
 inkscape:connector-curvature="0"
 sodipodi:nodetypes="aaacaaaaaaaaaaaaaaaaaaaaa" />
<path
 style="fill:#000000;stroke:none;stroke-width:1px;stroke-linecap:butt;stroke-linejoin:miter;stroke-opacity:1;fill-opacity:1"
 d="M 207.86517,272.03519 C 210.6344,272.88173 213.59255,272.93211 216.4794,273.15879 221.08613,273.52052 225.87454,272.33391 230.33708,273.53332 238.15989,275.63589 245.47465,279.94344 251.68539,285.14381 254.74992,287.7098 257.60066,290.8337 259.17603,294.5071 260.26859,297.05469 260.39029,299.9763 260.29963,302.7468 260.0746,309.62314 257.88817,316.30698 256.17978,322.97152 254.29717,330.3157 250.90569,337.25611 249.4382,344.69437 248.3465,350.22784 248.13924,355.91169 247.94007,361.5483 246.47178,403.10215 249.81272,444.68931 250.18727,486.2674 250.23563,491.63547 250.27382,497.00468 250.18727,502.37227 250.12484,506.24394 250.95223,510.28204 249.81274,513.98276 248.02912,519.77542 246.12685,529.00661 240.07491,529.33856 235.28576,529.60125 232.46705,522.69587 231.08614,518.10261 229.49811,512.82037 232.35039,507.13403 232.58427,501.62321 234.40002,458.83952 231.96006,415.98081 231.83521,373.15879 231.81337,365.66818 231.03501,358.13465 231.8352,350.68688 232.46301,344.84355 235.31701,339.32946 235.58052,333.45841 235.71591,330.44188 234.28914,327.48455 234.45693,324.46965 234.63528,321.26488 236.87653,318.31145 236.70412,315.10635 236.60443,313.25309 235.90081,311.37981 234.83146,309.86291 233.80911,308.41268 232.28551,307.31141 230.71161,306.49212 227.03048,304.57592 222.42429,305.00535 218.72659,303.12133 216.03382,301.74933 213.59669,299.78117 211.61049,297.50336 208.37397,293.79166 205.93551,289.34697 204.11985,284.76928 203.08139,282.15109 201.98151,279.33362 202.24719,276.52957 202.45285,274.35899 202.81883,271.2793 204.86891,270.53707 205.91885,270.15694 206.79731,271.70875 207.86517,272.03519 Z"
 id="path22"
 inkscape:connector-curvature="0"
 sodipodi:nodetypes="aaaaaaaaaaaaaaaaaaaaaaaaaaaa" />
<path
 style="fill:#000000;stroke:none;stroke-width:1px;stroke-linecap:butt;stroke-linejoin:miter;stroke-opacity:1;fill-opacity:1"
 d="M 131.08614,535.70561 C 135.82856,536.1006 140.60148,535.21251 145.31836,534.58201 173.27669,530.84484 200.44709,522.11721 228.46442,518.85167 244.97379,516.92743 261.66024,516.97911 278.27715,516.60448 288.88619,516.3653 299.65535,514.79897 310.11236,516.60448 317.81682,517.93474 325.60081,520.29228 332.20974,524.46965 335.79156,526.73364 340.15151,529.35245 341.1985,533.45841 341.74512,535.60206 340.76007,538.14111 339.32584,539.82545 337.26231,542.24883 333.85097,543.42058 330.71161,543.94531 327.48884,544.48398 324.1869,543.41523 320.97378,542.82171 315.52481,541.81518 310.34943,539.51941 304.86892,538.70186 285.95707,535.88071 266.68005,535.57775 247.56554,536.08014 238.66172,536.31416 229.72696,537.05421 220.97379,538.70186 209.63183,540.83682 198.68004,544.69981 187.64045,548.06516 177.7086,551.09283 167.59168,553.70284 158.05243,557.80298 152.97195,559.98666 147.74127,562.18566 143.44569,565.66815 141.79422,567.00702 141.21877,569.5692 139.32584,570.53707 137.87654,571.27811 135.86071,571.73562 134.45693,570.9116 131.37387,569.10183 131.37595,564.45749 129.96255,561.17377 127.03874,554.38093 122.12776,547.95878 121.72285,540.57452 121.59515,538.24574 121.58019,535.00683 123.59551,533.83295 125.81947,532.53755 128.5213,535.49199 131.08614,535.70561 Z"
 id="path24"
 inkscape:connector-curvature="0"
 sodipodi:nodetypes="aaaaaaaaaaaaaaaaaaaaaa" />
</g>
</svg>
