<?xml version="1.0" encoding="UTF-8" standalone="no"?>
<!-- Created with Inkscape (http://www.inkscape.org/) -->

<svg
 xmlns:dc="http://purl.org/dc/elements/1.1/"
 xmlns:cc="http://creativecommons.org/ns#"
 xmlns:rdf="http://www.w3.org/1999/02/22-rdf-syntax-ns#"
 xmlns:svg="http://www.w3.org/2000/svg"
 xmlns="http://www.w3.org/2000/svg"
 xmlns:sodipodi="http://sodipodi.sourceforge.net/DTD/sodipodi-0.dtd"
 xmlns:inkscape="http://www.inkscape.org/namespaces/inkscape"
 width="512"
 height="512"
 viewBox="0 0 512 512"
 version="1.1"
 id="svg8"
 inkscape:version="0.92.4 (5da689c313, 2019-01-14)"
 sodipodi:docname="多2.svg">
<defs
 id="defs2" />
<sodipodi:namedview
 id="base"
 pagecolor="#ffffff"
 bordercolor="#666666"
 borderopacity="1.0"
 inkscape:pageopacity="0.0"
 inkscape:pageshadow="2"
 inkscape:zoom="1.52"
 inkscape:cx="245.46174"
 inkscape:cy="259.46239"
 inkscape:document-units="px"
 inkscape:current-layer="layer1"
 showgrid="false"
 units="px"
 inkscape:window-width="1920"
 inkscape:window-height="1001"
 inkscape:window-x="-9"
 inkscape:window-y="-9"
 inkscape:window-maximized="1">
<inkscape:grid
 type="xygrid"
 id="grid21" />
</sodipodi:namedview>
<metadata
 id="metadata5">
<rdf:RDF>
<cc:Work
 rdf:about="">
<dc:format>image/svg+xml</dc:format>
<dc:type
 rdf:resource="http://purl.org/dc/dcmitype/StillImage" />
<dc:title></dc:title>
</cc:Work>
</rdf:RDF>
</metadata>
<g
 inkscape:label="圖層 1"
 inkscape:groupmode="layer"
 id="layer1"
 transform="translate(0,-161.53331)">
<path
 style="fill:#000000;stroke:none;stroke-width:1px;stroke-linecap:butt;stroke-linejoin:miter;stroke-opacity:1;fill-opacity:1"
 d="M 248.40525,182.91418 C 249.56191,183.33946 249.82418,184.94862 250.3199,186.0769 254.43743,195.44863 257.62889,205.40392 258.91182,215.55958 259.15493,217.484 259.3219,219.53037 258.7242,221.37571 257.8637,224.03246 255.85543,226.20086 254.03377,228.31755 248.49048,234.7586 241.97908,240.36001 235.27205,245.57834 216.22877,260.39477 196.06249,274.00289 174.67167,285.16558 167.25877,289.03396 159.58066,292.78325 151.40713,294.54644 148.47021,295.17999 144.51122,297.06083 142.4015,294.92168 141.60982,294.11896 141.95883,292.47938 142.58911,291.54457 143.24598,290.57032 144.75871,290.6271 145.7786,290.04363 153.66823,285.53001 160.77835,279.77308 168.29268,274.65901 183.22042,264.49956 198.90653,255.38498 213.13321,244.26501 217.63437,240.74678 222.14337,237.13226 225.89118,232.82037 229.2024,229.01078 231.95215,224.70019 234.33396,220.25001 236.34526,216.49209 237.88755,212.48142 239.21201,208.43012 241.333,201.94237 241.94043,195.021 244.09006,188.54269 244.6461,186.86698 244.8574,184.86312 246.15386,183.66463 246.73474,183.12765 247.66279,182.64119 248.40525,182.91418 Z"
 id="path27"
 inkscape:connector-curvature="0"
 sodipodi:nodetypes="aaaaaaaaaaaaaaaaaaa" />
<path
 style="fill:#000000;stroke:none;stroke-width:1px;stroke-linecap:butt;stroke-linejoin:miter;stroke-opacity:1;fill-opacity:1"
 d="M 284.57447,208.63969 C 289.51204,207.8981 294.50236,210.75614 299.46809,210.23544 307.44428,209.39907 314.79326,205.4827 322.33887,202.76555 330.05012,199.98875 338.14397,197.8941 345.21277,193.74608 347.38618,192.47071 348.86994,190.19865 351.06383,188.95884 353.35858,187.66203 356.2693,184.91219 358.51064,186.29927 362.3069,188.64863 360.22968,195.13442 360.10638,199.59714 360.02185,202.65673 359.59792,205.77856 358.51064,208.63969 357.54922,211.16961 356.2797,213.75828 354.25532,215.55459 350.45762,218.92443 344.14238,218.47875 340.42553,221.93756 337.96463,224.22761 337.46355,228.00131 335.55264,230.76695 319.09045,254.59249 299.39795,276.1305 279.25532,296.93757 261.00505,315.78985 241.14536,333.06674 220.98773,349.86409 209.42779,359.497 198.75021,370.91076 185.10638,377.25671 182.142,378.63549 178.45524,380.84817 175.53191,379.38437 172.76163,377.99721 171.2633,373.97726 171.7109,370.91159 172.18768,367.64607 175.04475,364.42139 178.19149,363.42693 180.28269,362.76605 182.40676,365.3557 184.57447,365.02267 186.94711,364.65815 188.78108,362.68231 190.71439,361.25942 213.49836,344.49075 234.30806,325.09865 254.57052,305.35706 277.15063,283.35739 299.34007,260.72458 318.69871,235.84306 319.73281,234.51392 321.02008,233.23632 321.45589,231.60966 321.96136,229.72302 322.56779,227.09258 321.14113,225.75858 318.2718,223.0756 313.22538,225.23072 309.35732,225.91597 305.91761,226.52534 301.96456,226.94089 299.46809,229.38437 297.30285,231.50365 298.45827,235.79265 296.2766,237.89501 295.46913,238.67313 294.20432,239.02852 293.08511,238.95884 288.57344,238.67795 283.98946,236.36117 280.85106,233.10778 277.76378,229.90738 276.05421,225.28975 275.53191,220.87374 275.17241,217.83417 275.22628,214.22972 277.12766,211.83118 278.80532,209.71485 281.90379,209.0408 284.57447,208.63969 Z"
 id="path29"
 inkscape:connector-curvature="0"
 sodipodi:nodetypes="aaaaaaaaaaaaaaaaaaaaaaaaaaaaaaa" />
<path
 style="fill:#000000;stroke:none;stroke-width:1px;stroke-linecap:butt;stroke-linejoin:miter;stroke-opacity:1;fill-opacity:1"
 d="M 216.1638,277.84365 C 219.30946,277.65853 222.89024,279.20477 224.78447,281.72297 226.00593,283.34677 224.61295,286.00807 225.64655,287.75745 227.35902,290.65583 230.75715,292.22413 233.71467,293.83232 240.13269,297.3222 247.86072,297.90602 254.29713,301.36183 256.73872,302.67276 259.69206,303.84415 260.99138,306.29193 261.83411,307.87954 261.80715,309.98564 261.2069,311.67986 260.15293,314.65469 257.63792,317.12682 254.9569,318.79193 251.41892,320.98927 247.0526,322.05923 242.88793,322.02469 237.13517,321.97698 231.38428,319.9622 226.2931,317.28331 224.39647,316.28534 222.89841,314.65568 221.33621,313.18848 220.18775,312.10987 218.94177,311.07422 218.10345,309.74021 215.02979,304.84913 212.91309,299.25508 211.85344,293.57642 211.04959,289.26859 209.69434,284.24324 211.85344,280.42986 212.67899,278.97178 214.49113,277.94209 216.1638,277.84365 Z"
 id="path31"
 inkscape:connector-curvature="0"
 sodipodi:nodetypes="aaaaaaaaaaaaaaa" />
<path
 style="fill:#000000;stroke:none;stroke-width:1px;stroke-linecap:butt;stroke-linejoin:miter;stroke-opacity:1;fill-opacity:1"
 d="M 287.52911,330.92082 C 286.89174,333.47591 289.23865,336.01136 289.19058,338.64431 289.11021,343.04557 287.69226,347.40511 285.94378,351.44496 283.67224,356.69336 280.2495,361.41335 276.70683,365.90279 271.72442,372.21673 265.71264,377.65329 259.95119,383.26541 251.46395,391.53267 243.06088,399.96019 233.73494,407.26825 227.65625,412.03167 219.74335,414.48904 214.45783,420.11966 210.43484,424.40532 206.81241,429.62436 205.62249,435.3807 205.15862,437.62472 205.33399,440.19332 206.4257,442.20801 207.42195,444.04653 209.27878,445.51221 211.24498,446.22407 213.5107,447.04437 216.56308,447.69211 218.4739,446.22407 220.12189,444.95795 219.15044,442.05854 220.08032,440.19998 221.27683,437.80851 223.2032,435.83726 225.04448,433.89806 231.26344,427.34842 238.77562,422.15588 245.43286,416.05224 253.72492,408.44972 261.90882,400.71806 269.77684,392.67749 274.35246,388.00152 278.48546,382.90575 283.06008,378.2288 288.01685,373.16115 292.60195,367.58066 298.39357,363.49315 300.59465,361.93971 303.68887,361.75461 305.62249,359.87869 307.04113,358.50239 308.08761,356.60382 308.43373,354.65781 308.93102,351.8619 308.27218,348.86528 307.22892,346.22407 305.8453,342.72115 303.16918,339.85418 300.75187,336.96602 298.57564,334.36589 296.25508,331.83429 293.5743,329.75821 292.53919,328.95659 291.4767,327.55006 290.18632,327.77128 288.8325,328.00338 287.86156,329.58809 287.52911,330.92082 Z"
 id="path33"
 inkscape:connector-curvature="0"
 sodipodi:nodetypes="aaaaaaaaaaaaaaaaaaaaaaaa" />
<path
 style="fill:#000000;stroke:none;stroke-width:1px;stroke-linecap:butt;stroke-linejoin:miter;stroke-opacity:1;fill-opacity:1"
 d="M 290.36145,365.09958 C 293.20637,366.42056 294.82738,369.63892 297.59036,371.12367 298.82149,371.78525 300.21424,372.20525 301.60643,372.32849 305.09646,372.63743 308.63851,371.92981 312.04819,371.12367 328.40979,367.25534 344.3284,361.2284 359.43776,353.85459 362.84266,352.1929 366.33421,350.44496 369.07631,347.83049 373.49877,343.61387 376.45756,338.05274 379.52131,332.76582 381.26203,329.76197 382.4637,326.47602 383.99685,323.3611 384.36684,322.60939 384.29956,321.15913 385.13652,321.12084 386.0838,321.0775 386.31432,322.64215 386.65256,323.52805 387.75827,326.42407 388.13609,329.5986 388.20214,332.69782 388.43826,343.77629 387.19559,355.05282 384.06464,365.68228 383.07631,369.0376 381.40983,372.19759 379.51807,375.13974 378.38713,376.89862 377.14125,378.66071 375.50201,379.95901 372.92079,382.00337 369.15661,382.22208 366.66667,384.37668 363.8304,386.83096 362.34154,390.50631 360.24096,393.61363 354.23144,402.50335 348.32313,411.46332 342.57029,420.52126 335.97726,430.90209 329.88746,441.5975 323.26813,451.96158 316.63279,462.35073 309.90276,472.68698 302.81125,482.77027 298.20209,489.32395 293.47433,495.80305 288.46227,502.05399 283.04406,508.81148 277.73705,515.73071 271.48595,521.72608 230.50347,561.032 186.78427,598.51205 137.98114,627.54261 129.02924,632.86765 119.53333,638.22451 109.23695,639.79837 107.90703,640.00166 106.4875,639.85028 105.22088,639.39676 103.85763,638.90864 102.0181,638.37539 101.60643,636.98713 100.81645,634.32311 103.35444,631.63837 104.90051,629.32953 106.79769,626.49635 109.79225,624.56887 112.04968,622.01343 115.44131,618.17406 117.00464,612.19512 121.63259,609.99828 123.82587,608.95715 126.56561,610.68916 128.91566,610.07949 133.32002,608.93687 136.94394,605.77389 140.76982,603.31084 144.02651,601.21423 147.08078,598.81789 150.19178,596.51062 164.05608,586.22818 177.95133,575.97029 191.38126,565.12665 212.54817,548.03597 234.04652,531.19365 253.41365,512.08753 265.97369,499.69677 277.70915,486.3992 288.35342,472.32849 298.16545,459.35791 306.22059,445.14441 314.85943,431.36464 324.17634,416.50327 332.60416,401.08797 342.16867,386.38472 344.21388,383.24068 345.97021,379.82762 348.59438,377.14777 351.14223,374.54587 354.66117,373.08778 357.42972,370.72207 358.72509,369.61518 360.00994,368.46169 361.04418,367.10761 361.6993,366.24989 363.01281,365.31305 362.6506,364.29636 362.02485,362.53992 359.26296,362.62872 357.42972,362.28833 355.71867,361.97063 353.86862,361.76513 352.20884,362.28833 349.09188,363.27087 346.83112,366.00426 344.17671,367.91082 341.61062,369.75394 339.25398,371.90549 336.54619,373.53331 330.18292,377.35866 323.47821,380.73228 316.46586,383.17186 312.44767,384.56978 308.23392,386.53968 304.01606,385.98311 295.46731,384.85505 287.04288,380.20599 281.1245,373.93492 280.01428,372.75854 278.92336,371.12322 279.11647,369.51725 279.40102,367.15083 281.30775,364.7457 283.53414,363.89475 285.69277,363.0697 288.26544,364.12634 290.36145,365.09958 Z"
 id="path35"
 inkscape:connector-curvature="0"
 sodipodi:nodetypes="aaaaaaaaaaaaaaaaaaaaaaaaaaaaaaaaaaaaaaaaaaaaaaaaaa" />
<path
 style="fill:#000000;stroke:none;stroke-width:1px;stroke-linecap:butt;stroke-linejoin:miter;stroke-opacity:1;fill-opacity:1"
 d="M 181.2734,435.33106 C 183.52653,444.2679 189.04597,452.16096 194.38202,459.67563 198.98647,466.16 204.19407,472.41566 210.48689,477.27863 222.32951,486.43039 237.67135,490.04546 250.18727,498.25241 254.86671,501.32082 257.76059,507.91903 263.29588,508.7393 265.29101,509.03495 268.11308,508.34325 268.91386,506.49211 274.34458,493.93816 261.01088,479.99423 253.93259,468.28986 251.36785,464.04891 247.88962,460.35716 244.19475,457.05391 238.77333,452.20711 232.69005,448.00887 226.21723,444.69436 213.70424,438.28689 200.27265,433.36194 186.51686,430.46215 184.80227,430.10071 182.55583,428.89354 181.27341,430.08762 179.99425,431.27867 180.84612,433.63628 181.2734,435.33106 Z"
 id="path37"
 inkscape:connector-curvature="0"
 sodipodi:nodetypes="aaaaaaaaaaaa" />
</g>
</svg>
