<?xml version="1.0" encoding="UTF-8" standalone="no"?>
<!-- Created with Inkscape (http://www.inkscape.org/) -->

<svg
 xmlns:dc="http://purl.org/dc/elements/1.1/"
 xmlns:cc="http://creativecommons.org/ns#"
 xmlns:rdf="http://www.w3.org/1999/02/22-rdf-syntax-ns#"
 xmlns:svg="http://www.w3.org/2000/svg"
 xmlns="http://www.w3.org/2000/svg"
 xmlns:sodipodi="http://sodipodi.sourceforge.net/DTD/sodipodi-0.dtd"
 xmlns:inkscape="http://www.inkscape.org/namespaces/inkscape"
 width="512"
 height="512"
 viewBox="0 0 512 512"
 version="1.1"
 id="svg8"
 inkscape:version="0.92.4 (5da689c313, 2019-01-14)"
 sodipodi:docname="密2.svg">
<defs
 id="defs2" />
<sodipodi:namedview
 id="base"
 pagecolor="#ffffff"
 bordercolor="#666666"
 borderopacity="1.0"
 inkscape:pageopacity="0.0"
 inkscape:pageshadow="2"
 inkscape:zoom="1.52"
 inkscape:cx="156.63657"
 inkscape:cy="265.16154"
 inkscape:document-units="px"
 inkscape:current-layer="layer1"
 showgrid="false"
 units="px"
 showguides="true"
 inkscape:window-width="1920"
 inkscape:window-height="1001"
 inkscape:window-x="-9"
 inkscape:window-y="-9"
 inkscape:window-maximized="1">
<inkscape:grid
 type="xygrid"
 id="grid21" />
</sodipodi:namedview>
<metadata
 id="metadata5">
<rdf:RDF>
<cc:Work
 rdf:about="">
<dc:format>image/svg+xml</dc:format>
<dc:type
 rdf:resource="http://purl.org/dc/dcmitype/StillImage" />
<dc:title></dc:title>
</cc:Work>
</rdf:RDF>
</metadata>
<g
 inkscape:label="圖層 1"
 inkscape:groupmode="layer"
 id="layer1"
 transform="translate(0,-161.53333)">
<path
 style="fill:#000000;stroke:none;stroke-width:1px;stroke-linecap:butt;stroke-linejoin:miter;stroke-opacity:1;fill-opacity:1"
 d="M 208.67225,198.83238 C 214.74441,196.2395 222.31881,198.67711 228.30443,201.46395 235.55542,204.83993 240.95793,211.44639 246.05263,217.61228 248.9993,221.1785 252.13795,224.97389 253.28947,229.45438 254.49163,234.13191 255.1834,239.82774 252.63158,243.92807 249.98675,248.17785 244.47821,251.06236 239.47368,251.16491 234.47522,251.26734 228.38788,248.89873 226.04666,244.4813 224.19785,240.99296 228.35846,236.62436 227.63158,232.74386 226.99948,229.36934 224.99047,226.24183 222.65251,223.7277 219.87821,220.74435 216.35765,218.06674 212.41029,217.05904 210.09504,216.468 207.56581,216.97389 205.26316,217.61228 203.84554,218.00531 202.74753,219.92395 201.31579,219.58596 199.18147,219.08211 197.38278,216.51574 197.36842,214.3228 197.32655,207.93084 202.79367,201.3426 208.67225,198.83238 Z"
 id="path3726"
 inkscape:connector-curvature="0"
 sodipodi:nodetypes="aaaaaaaaaaaaaa" />
<path
 style="fill:#000000;stroke:none;stroke-width:1px;stroke-linecap:butt;stroke-linejoin:miter;stroke-opacity:1;fill-opacity:1"
 d="M 81.25,243.70378 C 84.779781,244.0401 84.844818,249.87424 87.21591,252.5106 90.945631,256.65759 95.960964,259.4597 100,263.30606 104.1243,267.23361 108.68277,270.9435 111.64773,275.80606 115.00048,281.30459 117.60346,287.57381 118.18182,293.98788 119.3716,307.18279 113.46115,320.06868 111.64773,333.19243 110.87907,338.75519 110.37166,344.35126 109.80718,349.93843 109.33826,354.57976 110.81265,359.81001 108.52272,363.87425 107.19323,366.23388 103.97157,366.85895 101.98864,368.70379 100.07103,370.48787 98.654609,372.74794 96.875,374.6697 95.510104,376.14362 94.564112,379.41171 92.613636,378.93106 90.338137,378.37032 90.79276,374.54669 90.521337,372.21889 90.00336,367.77658 91.020741,363.28532 91.46002,358.83454 92.053169,352.82475 92.270307,346.71778 93.75,340.86288 95.167662,335.25342 98.545386,330.26968 100,324.66969 101.70703,318.09793 103.83034,311.21661 102.84091,304.49924 102.24818,300.47509 100.07723,296.73975 97.727273,293.41969 94.980344,289.53878 90.465705,287.19292 87.5,283.47651 84.663575,279.9221 82.197466,276.00491 80.397727,271.82878 79.115772,268.85412 78.24165,265.66803 77.840909,262.45379 77.196436,257.28461 76.087863,251.62313 78.125,246.82878 78.701094,245.47296 79.783503,243.56405 81.25,243.70378 Z"
 id="path3728"
 inkscape:connector-curvature="0"
 sodipodi:nodetypes="aaaaaaaaaaaaaaaaaaaaaa" />
<path
 style="fill:#000000;stroke:none;stroke-width:1px;stroke-linecap:butt;stroke-linejoin:miter;stroke-opacity:1;fill-opacity:1"
 d="M 134.09091,250.80606 C 138.7084,249.31357 143.72934,252.07117 148.57955,252.22651 157.00805,252.49645 165.45588,252.02387 173.86364,251.37424 199.50596,249.39297 224.93064,245.21157 250.46012,242.09714 276.16174,238.96171 301.95154,236.46786 327.55682,232.62424 337.73388,231.09655 348.17116,230.41896 357.95455,227.22651 362.6652,225.68936 366.42827,221.56007 371.30682,220.69242 374.02503,220.20899 376.86033,220.90241 379.54545,221.54469 389.31183,223.88082 398.97068,227.32479 407.67045,232.34015 410.41237,233.92084 413.00082,235.8999 415.05682,238.30606 419.24586,243.20854 422.96066,248.86247 424.71591,255.06743 425.61845,258.25797 425.57159,261.74449 425,265.0106 422.77193,277.74212 419.23306,291.2992 410.79545,301.09015 408.93984,303.24339 406.19031,304.76453 403.40909,305.35151 397.35164,306.62995 390.7416,305.53209 384.94318,303.36288 381.37553,302.02821 378.375,299.4039 375.56818,296.82878 373.38822,294.82877 371.00822,292.74807 369.88636,290.0106 369.45395,288.95547 368.79967,287.41153 369.60227,286.60151 371.40681,284.78029 374.71157,287.28657 377.27273,287.16969 380.14983,287.03839 383.29691,287.18181 385.79545,285.74924 387.72032,284.64559 389.12381,282.64873 390.05682,280.6356 391.67381,277.14665 392.09766,273.11706 392.04545,269.27197 391.96149,263.08817 391.58886,256.35996 388.35227,251.09015 386.83523,248.6201 384.16466,246.91007 381.53409,245.69242 378.90493,244.47542 375.90577,244.11425 373.01136,243.98787 340.25046,242.55744 307.71529,250.31742 275.23097,254.79975 243.10977,259.23198 210.34902,261.47431 179.26136,270.69242 176.09021,271.63273 173.19324,273.3269 170.17045,274.66969 165.32872,276.8205 160.72638,279.58491 155.68182,281.20378 151.54392,282.53169 147.18539,284.46883 142.89773,283.7606 138.79527,283.08296 134.8367,280.64306 132.10227,277.5106 129.47711,274.50331 128.03555,270.39415 127.55682,266.43106 127.09748,262.62845 127.43057,258.4318 129.26136,255.06742 130.28755,253.18162 132.04804,251.46637 134.09091,250.80606 Z"
 id="path3730"
 inkscape:connector-curvature="0"
 sodipodi:nodetypes="aaaaaaaaaaaaaaaaaaaaaaaaaaaaaaaaaa" />
<path
 style="fill:#000000;stroke:none;stroke-width:1px;stroke-linecap:butt;stroke-linejoin:miter;stroke-opacity:1;fill-opacity:1"
 d="M 265.38462,294.51235 C 270.15846,296.50503 276.06933,295.55928 280.41958,298.3585 285.57805,301.67779 289.47273,307.08607 291.95804,312.69417 292.86637,314.74381 293.58132,317.17046 293.00699,319.33753 292.62462,320.78029 291.46245,322.02249 290.20979,322.83403 287.48143,324.60161 283.97206,324.72465 280.76923,325.28158 278.23262,325.72267 275.47655,325.04775 273.07692,325.98088 270.20911,327.09607 267.82159,329.31452 265.73427,331.57529 261.78666,335.85093 259.16295,341.19777 256.29371,346.26059 252.94734,352.16532 250.21494,358.39797 247.25712,364.5066 244.62634,369.93981 242.60549,375.69316 239.51049,380.87599 226.00517,403.49177 210.39183,425.03531 192.65734,444.51235 172.26091,466.91288 149.31418,487.16687 124.82517,505.00186 106.58263,518.28764 87.539135,531.27653 66.433567,539.2676 56.215542,543.13639 45.185535,545.19588 34.265735,545.5613 26.868255,545.80885 19.238492,545.16697 12.237762,542.7641 8.7779906,541.5766 4.8784452,540.17778 2.7972028,537.16969 1.6524486,535.51514 0.21342597,532.52653 1.7482518,531.22564 3.3511021,529.86709 5.6106753,533.03791 7.6923077,533.32354 14.635778,534.27628 21.761125,533.0948 28.671329,531.92494 40.352594,529.94737 51.865227,526.70068 62.937063,522.48438 83.34694,514.71203 103.11202,504.96406 121.67832,493.4634 136.2436,484.44113 149.42681,473.31482 162.58741,462.34452 173.61399,453.15308 184.60178,443.80941 194.40559,433.32354 204.37538,422.66015 213.29979,411.0121 221.67832,399.05781 225.13161,394.13074 228.52203,389.10067 231.11888,383.67319 235.017,375.52604 236.50952,366.38762 240.20979,358.14872 242.98794,351.96297 246.12602,345.88197 250,340.31655 252.64336,336.51906 256.25802,333.48531 259.09091,329.82703 261.60474,326.58076 265.94673,323.79069 266.08392,319.68718 266.27427,313.99369 259.86509,310.10964 257.34266,305.00186 256.50892,303.31358 255.16651,301.63841 255.24476,299.75711 255.33141,297.674 256.54067,295.60942 258.04196,294.1627 259.05602,293.1855 260.48211,292.33437 261.88811,292.41445 263.24511,292.49174 264.13031,293.98878 265.38462,294.51235 Z"
 id="path3732"
 inkscape:connector-curvature="0"
 sodipodi:nodetypes="aaaaaaaaaaaaaaaaaaaaaaaaaaaaaaaaaaa" />
<path
 style="fill:#000000;stroke:none;stroke-width:1px;stroke-linecap:butt;stroke-linejoin:miter;stroke-opacity:1;fill-opacity:1"
 d="M 124.82517,363.04382 C 132.14013,358.92993 139.06681,353.56409 147.2028,351.50536 152.96634,350.04696 159.19177,350.05918 165.03497,351.15571 175.5649,353.13174 185.26106,358.42912 194.75524,363.39347 209.9964,371.36283 223.50361,382.28794 238.11189,391.3655 250.45445,399.03514 262.7135,406.88448 275.52448,413.74312 287.24443,420.01765 299.22943,425.85456 311.53846,430.87599 346.10944,444.97912 381.01137,459.24548 417.48252,467.23962 426.52245,469.22109 435.8589,469.63902 445.10489,470.03683 452.9074,470.37254 460.72561,469.93301 468.53147,469.68718 480.66067,469.3052 493.31055,464.32487 504.8951,467.93892 507.2762,468.68176 509.91377,470.16811 510.83916,472.48438 512.76567,477.30648 511.75035,483.90882 508.39161,487.86899 506.96124,489.55549 504.28073,489.61268 502.0979,489.9669 500.25718,490.26561 498.36061,489.79776 496.5035,489.9669 484.93839,491.02019 472.82792,491.49511 462.23776,496.2606 459.13359,497.65745 456.91301,500.50398 454.1958,502.55431 451.66496,504.46401 449.35713,506.76708 446.5035,508.14872 443.7801,509.4673 440.7735,510.29986 437.76224,510.59627 434.7376,510.894 431.60719,510.68297 428.67133,509.89697 399.46423,502.07751 374.68181,482.55833 346.85315,470.73613 332.42721,464.60769 316.71528,461.51037 302.79721,454.30256 286.63572,445.93294 272.19178,434.53376 257.6923,423.53333 250.04794,417.73372 243.51209,410.52315 235.66434,405.00186 224.85754,397.39874 213.53165,390.30471 201.3986,385.07179 193.47474,381.65427 185.2009,377.91291 176.57343,377.72913 172.24947,377.63702 168.15773,379.735 163.98601,380.87599 159.6465,382.06287 155.4923,384.01735 151.04895,384.72214 146.55814,385.43445 141.82617,386.16496 137.41259,385.07179 132.0942,383.75451 126.7734,381.07416 123.07692,377.02984 120.578,374.29577 117.43539,370.42811 118.53147,366.88998 119.25901,364.54146 122.6822,364.24902 124.82517,363.04382 Z"
 id="path3734"
 inkscape:connector-curvature="0"
 sodipodi:nodetypes="aaaaaaaaaaaaaaaaaaaaaaaaaaaaaaaa" />
<path
 style="fill:#000000;stroke:none;stroke-width:1px;stroke-linecap:butt;stroke-linejoin:miter;stroke-opacity:1;fill-opacity:1"
 d="M 191.60839,300.10676 C 199.42751,303.40163 208.44789,304.3113 215.38462,309.19767 220.65543,312.91053 225.36378,317.98689 227.97203,323.88298 229.11246,326.46097 228.67133,329.47739 229.02098,332.27459 229.25408,334.13939 230.72228,336.27908 229.72028,337.86899 228.14822,340.36345 224.27591,340.75281 221.32867,340.6662 218.19182,340.57402 215.26588,338.80497 212.58741,337.16969 209.55544,335.31858 207.10632,332.63868 204.54546,330.17668 202.58401,328.29096 198.95105,324.23263 198.95105,324.23263 L 190.90909,314.44242 C 190.90909,314.44242 185.61029,307.41294 185.31469,303.25361 185.18405,301.41543 185.37162,298.74057 187.06294,298.00885 188.5945,297.34625 190.0706,299.45876 191.60839,300.10676 Z"
 id="path3736"
 inkscape:connector-curvature="0"
 sodipodi:nodetypes="aaaaaaaaccaaa" />
<path
 style="fill:#000000;stroke:none;stroke-width:1px;stroke-linecap:butt;stroke-linejoin:miter;stroke-opacity:1;fill-opacity:1"
 d="M 106.29371,416.54032 C 110.97346,414.33573 116.26903,419.30926 121.32867,420.38648 126.0701,421.39595 130.81786,422.943 135.66434,422.83403 143.89205,422.64904 151.93369,420.03968 159.79021,417.58927 170.01802,414.39926 179.46918,409.08734 189.51049,405.35151 191.23764,404.70893 193.3918,402.3635 194.75524,403.60326 195.90571,404.64937 194.40127,406.75769 193.70629,408.14871 191.11845,413.32831 186.93138,417.68808 182.51748,421.43543 173.83212,428.80921 162.5262,432.44989 153.14685,438.91795 149.59549,441.36699 146.72076,444.76494 143.00699,446.9599 139.63416,448.95336 136.08339,451.3703 132.16783,451.50536 126.3847,451.70484 120.32168,449.43799 115.73427,445.91095 110.73712,442.06889 107.73271,435.96833 105.24476,430.17669 104.2069,427.76069 103.21259,425.0985 103.4965,422.48438 103.73293,420.3074 104.31274,417.47354 106.29371,416.54032 Z"
 id="path3738"
 inkscape:connector-curvature="0"
 sodipodi:nodetypes="aaaaaaaaaaaaaaa" />
<path
 style="fill:#000000;stroke:none;stroke-width:1px;stroke-linecap:butt;stroke-linejoin:miter;stroke-opacity:1;fill-opacity:1"
 d="M 341.95805,344.862 C 348.57344,346.15093 354.52479,350.03983 360.03341,353.9231 363.7653,356.55388 366.66612,360.20057 369.93007,363.39347 373.11136,366.5055 378.45944,368.47799 379.37063,372.83403 380.54939,378.46922 376.11475,384.02751 373.07692,388.91795 368.4188,396.41681 362.06464,402.89299 355.24476,408.49837 350.72031,412.21708 345.84291,415.98698 340.20979,417.58928 329.44729,420.6506 317.40269,421.01134 306.64336,417.93892 305.18214,417.52166 302.9001,417.00751 302.7972,415.49137 302.66281,413.51115 305.67003,412.7137 307.34266,411.64522 310.37479,409.70829 314.11226,409.0546 317.13287,407.09976 321.01729,404.58589 324.89062,401.74326 327.62238,398.00886 333.54061,389.91844 337.62033,380.23065 339.51049,370.38648 340.32394,366.14994 340.49136,361.55303 339.16084,357.44941 338.33328,354.89703 335.73472,353.24462 334.61538,350.80606 333.86058,349.16167 332.17259,347.03894 333.21678,345.5613 334.9037,343.17413 339.08893,344.30299 341.95805,344.862 Z"
 id="path3740"
 inkscape:connector-curvature="0"
 sodipodi:nodetypes="aaaaaaaaaaaaaaaaa" />
<path
 style="fill:#000000;stroke:none;stroke-width:1px;stroke-linecap:butt;stroke-linejoin:miter;stroke-opacity:1;fill-opacity:1"
 d="M 145.25862,515.77471 C 152.9124,518.81333 157.81303,526.82829 162.06896,533.87816 164.98106,538.70198 167.66611,544.19176 167.67242,549.82643 167.67975,556.36971 160.75329,561.83339 161.2069,568.36092 161.62119,574.32258 169.39655,584.30919 169.39655,584.30919 L 177.58621,583.87816 C 177.58621,583.87816 220.21667,570.26065 240.94828,561.8954 249.64061,558.38803 258.1931,554.48953 266.47181,550.09392 272.5174,546.884 279.48682,544.58204 284.05173,539.48161 285.42366,537.94873 285.07564,535.2165 286.63793,533.87816 287.4323,533.19766 288.61367,532.91929 289.65517,533.01609 293.49392,533.37286 299.62011,534.35197 300,538.1885 300.32285,541.44892 294.88272,542.28446 292.24138,544.22298 281.37889,552.19516 270.38684,560.01869 258.99908,567.22064 246.6279,575.04453 233.52582,581.65262 220.9483,589.1403 208.97705,596.26705 195.93989,601.98645 185.34483,611.03333 183.33009,612.75367 182.63149,616.08206 180.17241,617.06781 177.49186,618.14234 173.87181,617.92536 171.55172,616.20574 168.55057,613.98132 168.97055,609.17224 167.24138,605.86091 163.35154,598.41193 157.99043,591.82232 153.6858,584.6051 148.91107,576.59969 143.18445,568.96248 140.08621,560.17126 138.39034,555.35926 137.68497,550.18379 137.5,545.08505 137.28542,539.17017 139.99586,533.28089 139.22414,527.41264 138.90402,524.97843 136.50924,522.96789 136.63793,520.51609 136.72213,518.91193 137.4555,517.09527 138.7931,516.20574 140.59166,515.00967 143.25109,514.9777 145.25862,515.77471 Z"
 id="path3742"
 inkscape:connector-curvature="0"
 sodipodi:nodetypes="aaaaccaaaaaaaaaaaaaaaaaaaa" />
<path
 style="fill:#000000;stroke:none;stroke-width:1px;stroke-linecap:butt;stroke-linejoin:miter;stroke-opacity:1;fill-opacity:1"
 d="M 282.75862,494.65402 C 290.66728,498.33993 299.78573,498.86778 307.75862,502.41264 312.64452,504.58498 317.61837,506.98016 321.55172,510.6023 327.38773,515.97657 332.48837,522.59733 335.34483,529.99885 337.53286,535.66838 337.33793,542.02737 337.5,548.1023 337.62201,552.67556 337.13353,557.25342 336.60652,561.79786 335.34007,572.71863 332.15424,583.37836 331.16453,594.32769 330.89602,597.29823 331.39988,600.31452 331.03449,603.27471 330.41971,608.25537 329.34636,613.23022 327.58621,617.92988 325.5349,623.40695 324.99605,631.75838 319.39656,633.44713 317.67295,633.96695 316.15841,631.85152 314.65517,630.86092 312.51913,629.45333 309.77983,628.39997 308.62069,626.11954 306.79663,622.53096 308.70555,618.04293 308.18966,614.05057 307.43473,608.20834 303.59831,602.65681 304.31034,596.80919 304.5045,595.2146 304.89318,592.82775 306.46552,592.49885 308.6623,592.03933 309.44443,597.28411 311.63793,596.80919 317.45602,595.54951 317.61604,586.40482 319.39973,580.72543 320.75789,576.40095 321.11701,571.81048 321.5527,567.29873 322.37538,558.77956 324.72643,549.87721 322.41379,541.63678 320.92784,536.34201 318.42225,529.99709 313.36207,527.84367 311.20993,526.9278 308.79212,529.3764 306.46552,529.13678 303.83793,528.86616 299.13793,526.11954 299.13793,526.11954 299.13793,526.11954 293.20301,523.58413 290.94828,521.37816 284.61648,515.18328 279.74518,507.14085 277.13389,498.67625 276.35642,496.15606 274.44278,492.09805 276.72414,490.77471 278.79261,489.57485 280.59118,493.64386 282.75862,494.65402 Z"
 id="path3744"
 inkscape:connector-curvature="0"
 sodipodi:nodetypes="aaaaaaaaaaaaaaaaaaaaacaaaa" />
<path
 style="fill:#000000;stroke:none;stroke-width:1px;stroke-linecap:butt;stroke-linejoin:miter;stroke-opacity:1;fill-opacity:1"
 d="M 213.7931,448.53333 C 221.89888,449.26884 230.19818,452.17664 236.63793,457.15402 242.34688,461.56656 246.66797,468.0469 249.13793,474.82643 250.32242,478.07761 250.25126,481.72017 250,485.17126 249.07882,497.82383 245.45379,510.22629 241.37931,522.24023 238.1369,531.80074 234.62469,541.5254 228.87931,549.82643 227.02909,552.49966 224.8735,555.23536 221.98276,556.72299 216.54308,559.52235 209.79364,561.3046 203.87931,559.74023 201.01579,558.98281 198.25574,556.81128 196.98276,554.13678 196.18003,552.45026 195.70993,549.90032 196.98276,548.53333 198.35699,547.05744 201.14959,548.86299 203.01724,548.1023 205.28325,547.17936 207.20672,545.35773 208.62069,543.36091 213.2741,536.78935 215.01345,528.53005 217.21557,520.78471 219.72142,511.9711 221.31012,502.88815 222.41379,493.79195 223.08961,488.22199 224.31889,482.49462 223.27586,476.98161 221.7219,468.76801 217.33923,461.2393 212.93103,454.13678 211.85417,452.40174 208.34651,451.31181 209.05172,449.3954 209.60647,447.88786 212.1933,448.38817 213.7931,448.53333 Z"
 id="path3746"
 inkscape:connector-curvature="0"
 sodipodi:nodetypes="aaaaaaaaaaaaaaaaaa" />
</g>
</svg>
