<?xml version="1.0" encoding="UTF-8" standalone="no"?>
<!-- Created with Inkscape (http://www.inkscape.org/) -->

<svg
 xmlns:dc="http://purl.org/dc/elements/1.1/"
 xmlns:cc="http://creativecommons.org/ns#"
 xmlns:rdf="http://www.w3.org/1999/02/22-rdf-syntax-ns#"
 xmlns:svg="http://www.w3.org/2000/svg"
 xmlns="http://www.w3.org/2000/svg"
 xmlns:sodipodi="http://sodipodi.sourceforge.net/DTD/sodipodi-0.dtd"
 xmlns:inkscape="http://www.inkscape.org/namespaces/inkscape"
 width="512"
 height="512"
 viewBox="0 0 512 512"
 version="1.1"
 id="svg8"
 inkscape:version="0.92.4 (5da689c313, 2019-01-14)"
 sodipodi:docname="寧2.svg">
<defs
 id="defs2" />
<sodipodi:namedview
 id="base"
 pagecolor="#ffffff"
 bordercolor="#666666"
 borderopacity="1.0"
 inkscape:pageopacity="0.0"
 inkscape:pageshadow="2"
 inkscape:zoom="1.5395044"
 inkscape:cx="122.1216"
 inkscape:cy="255.10082"
 inkscape:document-units="px"
 inkscape:current-layer="layer1"
 showgrid="false"
 units="px"
 inkscape:window-width="1920"
 inkscape:window-height="1001"
 inkscape:window-x="-9"
 inkscape:window-y="-9"
 inkscape:window-maximized="1">
<inkscape:grid
 type="xygrid"
 id="grid18" />
</sodipodi:namedview>
<metadata
 id="metadata5">
<rdf:RDF>
<cc:Work
 rdf:about="">
<dc:format>image/svg+xml</dc:format>
<dc:type
 rdf:resource="http://purl.org/dc/dcmitype/StillImage" />
<dc:title></dc:title>
</cc:Work>
</rdf:RDF>
</metadata>
<g
 inkscape:label="圖層 1"
 inkscape:groupmode="layer"
 id="layer1"
 transform="translate(0,-161.53332)">
<path
 style="fill:#000000;stroke:none;stroke-width:1px;stroke-linecap:butt;stroke-linejoin:miter;stroke-opacity:1;fill-opacity:1"
 d="M 189.95556,186.41554 C 194.44207,185.70804 198.95616,184.70814 203.4948,184.88152 208.32625,185.06609 213.22821,185.87368 217.74092,187.60931 225.00184,190.40193 232.00896,194.40347 237.69634,199.71133 241.05831,202.84896 243.79146,206.77832 245.64653,210.9862 247.55413,215.31323 248.44754,220.11964 248.6911,224.84222 249.08327,232.44635 248.7667,240.40292 246.10997,247.53863 244.95049,250.65288 243.74416,255.12393 240.48426,255.76894 237.12234,256.43414 234.08676,252.75822 231.88731,250.13002 228.50313,246.08616 228.0844,240.2723 225.67792,235.58035 221.74835,227.9188 217.90465,220.01921 212.29853,213.48375 208.14201,208.6382 202.77993,204.93993 197.61611,201.18614 194.20959,198.7098 189.69317,197.63738 186.91099,194.47573 185.26027,192.59986 182.63977,189.89816 183.76963,187.66945 184.72096,185.7929 187.87733,186.74327 189.95556,186.41554 Z"
 id="path20"
 inkscape:connector-curvature="0"
 sodipodi:nodetypes="aaaaaaaaaaaaaaa" />
<path
 style="fill:#000000;stroke:none;stroke-width:1px;stroke-linecap:butt;stroke-linejoin:miter;stroke-opacity:1;fill-opacity:1"
 d="M 78.711484,218.35125 C 81.299774,218.20824 82.802621,221.56998 84.565968,223.47006 92.723811,232.26046 99.855852,242.0444 106.16247,252.2448 108.24856,255.61887 110.41985,259.06774 111.48459,262.88906 112.74166,267.40065 112.85202,272.21773 112.60504,276.89466 112.36458,281.44821 111.23289,285.92725 110.08403,290.34004 103.5822,315.31369 96.663766,340.49465 85.434173,363.7294 83.495799,367.74002 81.519432,372.01879 78.151261,374.93388 76.129569,376.68362 73.31494,379.37366 70.868347,378.29522 68.895842,377.42576 69.876195,374.0585 68.907563,372.13276 67.615068,369.56315 64.676244,367.88971 63.865546,365.12996 61.862733,358.31205 63.279661,350.73953 64.985994,343.84144 65.628025,341.24594 66.79481,338.73533 68.347339,336.55853 70.149584,334.03159 73.147172,332.55236 75.070028,330.11595 77.81812,326.6339 80.139796,322.74774 81.792717,318.63136 86.442572,307.05152 89.115832,294.62095 90.476191,282.21679 91.12772,276.27596 90.907154,270.22362 90.196079,264.28962 89.341754,257.16018 87.847703,250.04388 85.434173,243.28122 84.062201,239.43698 81.652804,236.04156 79.968349,232.32362 78.391412,228.843 74.957703,225.47412 75.630252,221.71259 75.897773,220.21635 77.193835,218.4351 78.711484,218.35125 Z"
 id="path22"
 inkscape:connector-curvature="0"
 sodipodi:nodetypes="aaaaaaaaaaaaaaaaaaaaa" />
<path
 style="fill:#000000;stroke:none;stroke-width:1px;stroke-linecap:butt;stroke-linejoin:miter;stroke-opacity:1;fill-opacity:1"
 d="M 125.21008,230.39607 C 128.42305,229.0993 131.85528,232.49373 135.29412,232.91707 139.1863,233.39622 143.14118,233.09251 147.05882,232.91707 154.36368,232.58995 161.64012,231.76395 168.90756,230.95629 204.19927,227.03417 239.33752,221.82903 274.5098,216.95069 302.26434,213.10118 329.90279,208.40977 357.70308,204.90587 371.58546,203.15616 385.45078,200.12439 399.43978,200.42408 404.44333,200.53127 409.5475,201.05364 414.28571,202.66497 420.85406,204.89867 426.75966,208.84243 432.493,212.74901 437.09688,215.88599 441.93364,219.01471 445.37815,223.39326 447.75352,226.41276 449.94638,229.9449 450.42017,233.75741 451.44248,241.98372 446.90415,249.96118 445.34552,258.10292 444.13214,264.44121 443.73189,270.95347 442.0168,277.17478 441.11353,280.4513 440.51196,284.05542 438.37535,286.69859 436.97521,288.43069 434.99681,290.21457 432.77311,290.34004 430.89704,290.44589 429.2041,288.98568 427.73109,287.81903 426.01609,286.46072 425.08088,284.31948 423.52942,282.77702 422.07119,281.32724 420.17357,280.35587 418.7675,278.85545 416.80067,276.75664 414.75073,274.54009 413.72549,271.85265 413.08967,270.18597 413.16527,268.31436 413.16527,266.53052 413.16527,261.17899 413.60871,255.77068 414.84594,250.56413 416.55387,243.37677 421.9182,237.18301 422.68908,229.83584 422.94538,227.39305 422.41374,224.85916 421.56863,222.55293 420.40054,219.36532 418.85197,216.04588 416.2465,213.86945 413.47857,211.55731 409.7072,210.61289 406.16246,209.94789 399.18796,208.63947 391.95208,209.44227 384.87395,209.94788 330.49068,213.83263 276.71231,224.01526 222.96919,233.19719 211.61575,235.13691 200.32217,237.43421 189.07564,239.91987 177.53293,242.47099 165.85169,244.63097 154.62185,248.32324 149.334,250.06183 144.49852,253.01203 139.21569,254.76581 137.75421,255.25099 136.27285,255.83214 134.73389,255.88626 133.12306,255.94291 131.27652,255.99259 129.97199,255.04592 128.68731,254.11365 128.05669,252.39779 127.73109,250.84424 127.23165,248.46121 128.94484,245.9068 128.29132,243.56133 127.64456,241.24014 124.88839,239.95236 124.08964,237.67898 123.53167,236.09088 123.39055,234.26725 123.80952,232.63696 124.02877,231.78383 124.39325,230.72575 125.21008,230.39607 Z"
 id="path24"
 inkscape:connector-curvature="0"
 sodipodi:nodetypes="aaaaaaaaaaaaaaaaaaaaaaaaaaaaaaaaaaaaa" />
<path
 style="fill:#000000;stroke:none;stroke-width:1px;stroke-linecap:butt;stroke-linejoin:miter;stroke-opacity:1;fill-opacity:1"
 d="M 150.29702,280.37915 C 148.07695,280.99484 148.50357,284.62359 147.58673,286.73716 144.29042,294.33602 139.93716,301.53798 137.55352,309.47061 135.86705,315.0831 134.74097,320.94481 134.61075,326.80375 134.49732,331.90713 133.89972,337.60831 136.50071,342.00061 137.63426,343.91483 139.69509,346.09067 141.91216,345.90687 145.07123,345.64498 146.96681,341.86335 148.60103,339.14717 152.72073,332.29997 154.68085,324.18544 155.75762,316.26732 156.54515,310.47617 155.62856,304.57078 155.18207,298.7434 154.76535,293.30455 155.98856,287.19765 153.22129,282.49691 152.61073,281.45976 151.45677,280.05752 150.29702,280.37915 Z"
 id="path26"
 inkscape:connector-curvature="0"
 sodipodi:nodetypes="aaaaaaaaaaa" />
<path
 style="fill:#000000;stroke:none;stroke-width:1px;stroke-linecap:butt;stroke-linejoin:miter;stroke-opacity:1;fill-opacity:1"
 d="M 193.68412,295.23566 C 194.12565,295.3181 193.65147,296.15948 193.81853,296.57641 196.53452,303.35486 202.20397,308.61167 207.28929,313.85223 210.10573,316.75465 213.1779,319.48798 216.6287,321.5971 223.53637,325.81906 231.10984,329.1546 238.95216,331.1643 251.88459,334.47842 265.46534,335.10475 278.81549,335.03674 288.05579,334.98967 297.75988,335.40878 306.37813,332.07546 308.65864,331.19342 311.13006,329.89415 312.30068,327.74744 312.91973,326.61222 312.73573,325.15133 312.52847,323.87501 312.1351,321.45259 310.61985,319.35027 309.79265,317.03973 308.6921,313.96565 305.73002,310.77484 306.83371,307.70188 307.35341,306.25491 309.19624,305.48599 310.70615,305.19619 313.59463,304.64179 316.93108,305.25128 319.36245,306.90631 321.86045,308.60669 322.236,312.2907 324.25851,314.53586 325.88584,316.34234 327.88397,317.81742 329.95405,319.0927 332.51611,320.67106 335.42497,321.60076 338.16176,322.85189 342.48726,324.8293 347.83639,325.35588 351.14244,328.77497 352.8572,330.54835 354.51967,333.19857 353.98659,335.60712 353.59759,337.36469 351.64519,338.51806 350.00117,339.25125 347.87509,340.19943 345.36636,340.17923 343.0511,339.93669 340.67488,339.68776 338.47398,338.55889 336.21868,337.77022 332.6114,336.50877 329.3275,333.44701 325.51253,333.66999 323.71555,333.77502 322.33654,335.36592 320.72893,336.17569 316.05851,338.52824 311.58875,341.41854 306.60721,343.00966 301.83851,344.5328 296.79153,345.14021 291.79954,345.5151 283.24219,346.15774 274.61927,345.66533 266.05923,345.05952 258.99861,344.55983 251.90886,343.91842 244.9864,342.44135 236.98896,340.73491 228.92926,338.74077 221.52684,335.26582 216.14096,332.7375 210.86955,329.61943 206.60592,325.46954 202.46221,321.43637 199.38783,316.34899 196.69665,311.23095 195.15589,308.30076 193.89817,305.17181 193.19624,301.93649 192.83737,300.28237 192.51781,298.52863 192.85573,296.8701 192.97767,296.2716 193.0837,295.12355 193.68412,295.23566 Z"
 id="path28"
 inkscape:connector-curvature="0"
 sodipodi:nodetypes="aaaaaaaaaaaaaaaaaaaaaaaaaaaaaaaaa" />
<path
 style="fill:#000000;stroke:none;stroke-width:1px;stroke-linecap:butt;stroke-linejoin:miter;stroke-opacity:1;fill-opacity:1"
 d="M 225.32471,276.32902 C 227.92094,277.09401 230.59797,277.55221 233.24074,278.13649 237.05577,278.97994 240.82897,280.08024 244.70302,280.58784 249.48043,281.21381 254.32268,281.41382 259.13978,281.30854 264.39878,281.1936 269.9914,277.8215 274.85151,279.83388 276.21559,280.3987 277.36472,281.80123 277.67793,283.24402 278.18754,285.59157 276.25781,287.84304 275.79365,290.19999 275.58759,291.24633 275.26062,292.31689 275.39683,293.37459 275.5788,294.78757 276.88766,295.92146 276.98413,297.34284 277.13185,299.51937 276.4388,301.77543 275.39683,303.69205 274.10052,306.07652 272.16156,308.23647 269.84127,309.64443 267.72868,310.92636 265.15455,311.90013 262.69841,311.62856 258.29076,311.14121 254.62211,307.86566 250.96774,305.3536 246.97499,302.60893 243.50721,299.16015 239.97567,295.84301 236.64082,292.71063 233.3991,289.4681 230.36312,286.04526 228.46559,283.90594 226.64273,281.69018 225.0003,279.34929 224.51657,278.65985 223.96116,277.98811 223.68322,277.19308 223.5136,276.70786 223.09022,275.98344 223.49207,275.66295 224.00023,275.25768 224.70124,276.14531 225.32471,276.32902 Z"
 id="path30"
 inkscape:connector-curvature="0"
 sodipodi:nodetypes="aaaaaaaaaaaaaaaaaaa" />
<path
 style="fill:#000000;stroke:none;stroke-width:1px;stroke-linecap:butt;stroke-linejoin:miter;stroke-opacity:1;fill-opacity:1"
 d="M 314.59568,250.88927 C 320.41237,250.56849 326.29108,250.63868 332.06426,251.41791 337.4681,252.14728 342.89811,253.2517 347.96139,255.27574 353.33772,257.42492 358.59943,260.19753 363.0137,263.94428 365.4876,266.04409 367.74838,268.56557 369.17808,271.47853 370.0728,273.30149 370.54984,275.38391 370.54795,277.4146 370.54617,279.32066 370.46923,281.51736 369.25176,282.98392 368.3321,284.09175 366.71688,284.483 365.2968,284.72053 362.32745,285.21719 359.2185,284.69934 356.29557,283.97811 351.99502,282.91695 348.00167,280.813 344.06393,278.78446 341.60407,277.51726 339.24943,276.03871 336.9863,274.44656 334.80877,272.91463 332.76797,271.19219 330.75716,269.44718 324.79713,264.27498 318.34418,259.47404 313.48651,253.255 313.00549,252.63917 311.99744,251.90735 312.34496,251.20746 312.68194,250.52882 313.83913,250.931 314.59568,250.88927 Z"
 id="path32"
 inkscape:connector-curvature="0"
 sodipodi:nodetypes="aaaaaaaaaaaaaaa" />
<path
 style="fill:#000000;stroke:none;stroke-width:1px;stroke-linecap:butt;stroke-linejoin:miter;stroke-opacity:1;fill-opacity:1"
 d="M 152.87478,373.97076 C 154.42223,373.91057 155.88749,374.90506 157.13649,375.8206 161.59987,379.09234 164.81781,383.84371 168.02405,388.35436 171.59581,393.37922 175.46972,398.48846 177.22453,404.39839 181.72597,419.55855 181.16092,436.0008 179.90829,451.76546 179.66427,454.83653 180.96562,460.24191 177.93485,460.79455 175.3678,461.26263 174.47143,456.71289 173.67172,454.22908 171.23429,446.65865 173.65737,438.27161 172.54902,430.39607 171.65978,424.07741 170.34158,417.75669 168.13725,411.76861 166.51623,407.3651 163.95905,403.36311 161.7256,399.23633 159.47548,395.07874 156.76233,391.17137 154.68801,386.92334 152.88119,383.22314 148.59911,379.36626 150,375.4941 150.36895,374.4743 151.79112,374.01292 152.87478,373.97076 Z"
 id="path34"
 inkscape:connector-curvature="0"
 sodipodi:nodetypes="aaaaaaaaaaaaa" />
<path
 style="fill:#000000;stroke:none;stroke-width:1px;stroke-linecap:butt;stroke-linejoin:miter;stroke-opacity:1;fill-opacity:1"
 d="M 197.03196,379.6977 C 202.05449,377.5485 207.31528,375.98551 212.55708,374.44656 219.18073,372.50191 225.909,370.91872 232.6484,369.42373 260.3482,363.27912 287.87186,354.62155 316.21005,353.21369 320.33213,353.0089 324.4874,353.56812 328.53881,354.35524 334.77849,355.56751 341.22555,356.78706 346.80365,359.83469 348.65085,360.84392 350.20819,362.36357 351.59817,363.94428 355.26402,368.11314 359.39633,372.48256 360.73059,377.87122 361.11644,379.42957 361.06678,381.26975 360.27397,382.66574 359.57489,383.89669 358.1561,384.63285 356.84932,385.17716 355.49798,385.74004 353.84738,385.26362 352.51142,385.86209 350.53719,386.74649 348.75242,388.21599 347.48858,389.97168 343.3665,395.69794 342.41026,403.13809 339.97686,409.76079 337.46086,416.60829 334.47656,423.32032 332.6484,430.38264 332.06836,432.62338 332.76361,435.28827 331.50685,437.23195 331.05988,437.92322 330.26706,438.48608 329.45205,438.60181 327.95076,438.815 326.22891,438.25988 325.11416,437.23195 320.22071,432.71963 319.87224,424.98797 317.57991,418.7388 316.0632,414.60405 314.16391,410.53091 313.47032,406.18172 313.21863,404.60349 313.05693,402.93098 313.47032,401.3872 314.06121,399.18057 314.6302,395.74966 316.89498,395.45113 317.4285,395.3808 317.79029,396.11419 318.03653,396.59268 318.46018,397.41591 318.13885,398.47704 318.49315,399.33241 318.74368,399.93724 319.06767,400.60337 319.6347,400.93058 320.40975,401.37784 321.48306,401.53807 322.3068,401.18851 323.4489,400.70385 323.98001,399.33616 324.62373,398.27553 326.46478,395.24209 327.73006,391.88158 328.95535,388.55143 330.63594,383.98381 332.35448,379.35711 333.0754,374.54381 333.33469,372.81263 333.59581,370.98132 333.13464,369.29267 332.81996,368.14038 332.06146,367.12951 331.27854,366.22738 329.86064,364.59358 328.18894,363.08853 326.25571,362.11779 324.01238,360.99134 321.44826,360.5341 318.94977,360.29131 315.99177,360.00387 312.98357,360.29951 310.04566,360.74793 288.29535,364.06773 267.1396,370.68863 246.11872,377.18629 239.08056,379.36182 232.11101,381.8127 225.34247,384.72053 220.18277,386.93718 215.47909,390.14699 210.27397,392.25478 208.86848,392.82393 207.45205,393.59108 205.93607,393.62464 203.1785,393.68569 200.61413,392.1718 197.94288,391.48451 194.98293,390.72294 190.92555,391.69302 189.0411,389.28674 188.33726,388.38799 188.63958,386.9307 189.04109,385.86209 189.61018,384.34749 190.96646,383.21036 192.23744,382.20912 193.65466,381.09267 195.37329,380.40747 197.03196,379.6977 Z"
 id="path36"
 inkscape:connector-curvature="0"
 sodipodi:nodetypes="aaaaaaaaaaaaaaaaaaaaaaaaaaaaaaaaaaaaaaaaaa" />
<path
 style="fill:#000000;stroke:none;stroke-width:1px;stroke-linecap:butt;stroke-linejoin:miter;stroke-opacity:1;fill-opacity:1"
 d="M 218.07229,400.03934 C 219.72731,399.58721 221.46024,400.90063 222.89157,401.84657 225.37989,403.49105 227.61268,405.71804 229.06627,408.32248 230.60914,411.0869 231.62611,414.34695 231.4759,417.50922 231.32369,420.71375 229.67283,423.7149 228.16265,426.54537 226.55556,429.55748 224.81793,432.71274 222.13855,434.8285 221.11419,435.63738 219.8271,436.25854 218.5241,436.33452 216.69986,436.4409 214.72896,435.90587 213.25301,434.8285 211.79105,433.76134 210.76547,432.04278 210.24096,430.31043 209.61542,428.24442 210.01528,425.98133 210.24096,423.83452 210.92241,417.35225 211.50698,410.59383 214.30723,404.70802 215.16614,402.9027 216.14374,400.5662 218.07229,400.03934 Z"
 id="path38"
 inkscape:connector-curvature="0"
 sodipodi:nodetypes="aaaaaaaaaaaa" />
<path
 style="fill:#000000;stroke:none;stroke-width:1px;stroke-linecap:butt;stroke-linejoin:miter;stroke-opacity:1;fill-opacity:1"
 d="M 253.31325,387.84055 C 260.34607,386.051 267.47299,391.65735 273.79518,395.22007 274.97682,395.88596 276.13054,396.70547 276.95783,397.78031 280.54866,402.44563 283.8927,408.01491 284.18675,413.89477 284.21847,414.52897 283.94343,415.17829 283.58434,415.70199 282.73741,416.93715 281.48701,417.95065 280.12048,418.56344 279.518,418.83361 278.82018,418.92498 278.16265,418.86465 273.60936,418.44689 269.23058,416.5257 265.21084,414.34657 263.98382,413.68139 262.87358,412.78408 261.89759,411.78633 258.23264,408.03967 255.29856,403.60461 252.56024,399.13573 251.91511,398.08289 251.07823,397.04485 250.90361,395.82248 250.58611,393.59999 251.12535,391.21434 252.10843,389.19597 252.37313,388.65251 252.72742,387.98962 253.31325,387.84055 Z"
 id="path40"
 inkscape:connector-curvature="0"
 sodipodi:nodetypes="aaaaaaaaaaaaa" />
<path
 style="fill:#000000;stroke:none;stroke-width:1px;stroke-linecap:butt;stroke-linejoin:miter;stroke-opacity:1;fill-opacity:1"
 d="M 167.72616,452.26193 C 175.1187,448.5617 184.07625,449.75919 192.17604,448.10545 203.17712,445.85935 213.92873,442.48269 224.93888,440.28149 248.98254,435.47457 273.06533,429.75362 297.55501,428.54554 304.16101,428.21967 310.85745,428.55565 317.35941,429.76804 320.80544,430.4106 324.43266,431.05484 327.38386,432.94652 328.40388,433.60034 329.85767,434.42477 329.82885,435.63601 329.80966,436.44259 328.88832,437.10968 328.11736,437.3475 325.18474,438.25213 322.1151,436.02517 319.0709,435.63601 311.85966,434.71415 304.57479,433.88249 297.31051,434.16901 281.09467,434.80861 265.03916,437.98618 249.14425,441.25948 240.1407,443.11362 231.22871,445.48554 222.49389,448.34994 214.00914,451.13234 205.5109,454.07569 197.55501,458.1299 192.29757,460.80902 187.62829,464.51239 182.64059,467.66535 180.69089,468.89785 178.83649,470.30286 176.77262,471.33283 175.75692,471.83971 174.72649,472.47571 173.59413,472.55532 171.4248,472.70783 169.1712,472.08268 167.23716,471.08833 165.5939,470.24348 164.1398,468.9349 163.08069,467.42085 161.92691,465.77145 160.87263,463.81026 160.8802,461.79738 160.8868,460.04184 161.85107,458.3605 162.83619,456.9074 164.09779,455.04647 165.71568,453.26825 167.72616,452.26193 Z"
 id="path42"
 inkscape:connector-curvature="0"
 sodipodi:nodetypes="aaaaaaaaaaaaaaaaaaaaa" />
<path
 style="fill:#000000;stroke:none;stroke-width:1px;stroke-linecap:butt;stroke-linejoin:miter;stroke-opacity:1;fill-opacity:1"
 d="M 49.480969,500.52294 C 52.511892,501.74065 53.409866,505.87348 56.055363,507.78938 57.895439,509.12198 60.049061,510.14775 62.283737,510.55754 64.32896,510.93259 66.454639,510.51219 68.512111,510.21152 79.307922,508.63384 89.747869,505.19093 100.34602,502.59906 119.74777,497.8542 138.952,492.27284 158.47751,488.06619 181.85442,483.02978 205.47537,479.18002 229.06574,475.26342 251.96436,471.46167 274.87373,467.61968 297.92388,464.8828 316.43371,462.68502 335.06057,461.61987 353.63322,460.03851 371.62357,458.50673 389.57261,456.2906 407.61246,455.54024 420.63465,454.99859 434.11598,452.19497 446.7128,455.54024 461.09281,459.35906 473.99842,468.20733 485.46713,477.68557 489.56556,481.07269 493.56269,484.99545 495.84775,489.7963 497.51038,493.28943 498.81271,497.44984 497.92388,501.21498 497.26139,504.02135 495.25157,506.73031 492.73356,508.1354 489.39609,509.99776 485.11756,509.55653 481.31488,509.17346 478.91863,508.93207 476.60243,508.05918 474.39446,507.09733 470.83988,505.54886 467.68949,503.20153 464.35986,501.21498 461.11529,499.27919 458.00351,497.11328 454.67128,495.33263 446.47926,490.95504 438.0886,486.88227 429.41176,483.56792 420.85619,480.29989 412.11468,477.30322 403.11419,475.60944 384.24038,472.05763 364.86922,471.74988 345.67474,471.11117 335.7603,470.78126 325.81924,470.86573 315.91696,471.45719 303.0625,472.22498 290.26797,473.86979 277.50865,475.60944 246.58356,479.82588 215.63699,484.28297 185.12111,490.83436 177.65351,492.43756 170.17904,494.17735 162.97578,496.71671 154.40501,499.73817 146.25927,503.8655 138.06229,507.78938 129.64061,511.82081 121.38039,516.18559 113.14879,520.59214 105.00051,524.95409 96.592499,528.92301 88.927336,534.08695 83.280288,537.8913 78.387572,542.71263 73.010381,546.88972 70.733218,548.65866 68.8255,551.16819 66.089965,552.08003 63.573274,552.91893 60.533859,553.20525 58.131487,552.08004 55.684125,550.93375 54.027449,548.32625 52.941177,545.85166 51.53804,542.65524 52.84873,538.71412 51.557093,535.47104 49.661932,530.71261 44.422213,527.78592 42.560554,523.01429 40.787378,518.46945 39.992698,513.28745 40.83045,508.48142 41.317628,505.68657 42.278085,502.44553 44.636678,500.86896 45.982564,499.96932 47.978793,499.91942 49.480969,500.52294 Z"
 id="path44"
 inkscape:connector-curvature="0"
 sodipodi:nodetypes="aaaaaaaaaaaaaaaaaaaaaaaaaaaaaaaaaaaaaa" />
<path
 style="fill:#000000;stroke:none;stroke-width:1px;stroke-linecap:butt;stroke-linejoin:miter;stroke-opacity:1;fill-opacity:1"
 d="M 234.25606,486.33609 C 235.40962,489.93938 241.19401,490.08213 243.2526,493.2565 246.47957,498.23252 246.4597,504.70256 247.40484,510.55755 248.4932,517.29973 249.0849,524.14349 249.13495,530.97277 249.21969,542.53471 248.96246,554.23356 246.71281,565.57484 245.0096,574.16126 242.31032,582.65242 238.4083,590.48834 235.41348,596.50244 233.12974,604.37019 226.98962,607.09733 225.39447,607.80582 223.40371,605.71801 221.79931,606.40529 220.35725,607.02303 219.05594,608.64292 219.03114,610.21152 218.97601,613.6981 222.96595,615.96957 224.91349,618.86204 227.70067,623.00155 229.38141,628.12746 233.21799,631.31879 234.56862,632.44226 236.30721,633.47311 238.06228,633.39491 239.76357,633.31911 241.38781,632.2076 242.56055,630.97277 247.5702,625.6979 249.25297,618.02436 251.90311,611.24958 256.96641,598.30581 261.4353,585.04488 264.35986,571.4572 266.78014,560.21245 268.33314,548.70201 268.51211,537.20114 268.65265,528.16954 268.40098,518.94358 266.08997,510.21152 264.24119,503.22598 260.90196,496.62925 257.09343,490.48834 255.8402,488.46761 253.05225,487.28546 252.59516,484.95201 252.0621,482.23076 256.39334,479.40099 255.0173,476.99353 253.3098,474.00615 248.40764,474.23999 244.9827,474.57138 241.95178,474.86464 238.68203,476.08477 236.6782,478.37761 234.85343,480.46556 233.41059,483.69516 234.25606,486.33609 Z"
 id="path46"
 inkscape:connector-curvature="0"
 sodipodi:nodetypes="aaaaaaaaaaaaaaaaaaaaaaa" />
</g>
</svg>
