<?xml version="1.0" encoding="UTF-8" standalone="no"?>
<!-- Created with Inkscape (http://www.inkscape.org/) -->

<svg
 xmlns:dc="http://purl.org/dc/elements/1.1/"
 xmlns:cc="http://creativecommons.org/ns#"
 xmlns:rdf="http://www.w3.org/1999/02/22-rdf-syntax-ns#"
 xmlns:svg="http://www.w3.org/2000/svg"
 xmlns="http://www.w3.org/2000/svg"
 xmlns:sodipodi="http://sodipodi.sourceforge.net/DTD/sodipodi-0.dtd"
 xmlns:inkscape="http://www.inkscape.org/namespaces/inkscape"
 width="512"
 height="512"
 viewBox="0 0 512 512"
 version="1.1"
 id="svg8"
 inkscape:version="0.92.4 (5da689c313, 2019-01-14)"
 sodipodi:docname="晉2.svg">
<defs
 id="defs2" />
<sodipodi:namedview
 id="base"
 pagecolor="#ffffff"
 bordercolor="#666666"
 borderopacity="1.0"
 inkscape:pageopacity="0.0"
 inkscape:pageshadow="2"
 inkscape:zoom="1.77"
 inkscape:cx="191.57209"
 inkscape:cy="282.59878"
 inkscape:document-units="px"
 inkscape:current-layer="layer1"
 showgrid="false"
 units="px"
 inkscape:window-width="1920"
 inkscape:window-height="1001"
 inkscape:window-x="-9"
 inkscape:window-y="-9"
 inkscape:window-maximized="1">
<inkscape:grid
 type="xygrid"
 id="grid18" />
</sodipodi:namedview>
<metadata
 id="metadata5">
<rdf:RDF>
<cc:Work
 rdf:about="">
<dc:format>image/svg+xml</dc:format>
<dc:type
 rdf:resource="http://purl.org/dc/dcmitype/StillImage" />
<dc:title></dc:title>
</cc:Work>
</rdf:RDF>
</metadata>
<g
 inkscape:label="圖層 1"
 inkscape:groupmode="layer"
 id="layer1"
 transform="translate(0,-161.53332)">
<path
 style="fill:#000000;stroke:none;stroke-width:1px;stroke-linecap:butt;stroke-linejoin:miter;stroke-opacity:1;fill-opacity:1"
 d="M 129.36626,225.6828 C 135.93792,227.70334 142.79094,229.00615 149.65517,229.39539 156.44145,229.78021 163.25982,228.89451 170,228.01608 181.3779,226.53322 192.56182,223.81249 203.7931,221.46435 221.78096,217.7036 239.42938,212.23017 257.58621,209.39539 270.35628,207.40163 283.37462,207.49065 296.2069,205.94711 307.63372,204.57263 319.03331,202.89856 330.34483,200.7747 336.01805,199.70949 341.52792,197.8041 347.24138,196.9816 352.48591,196.2266 357.84503,195.29592 363.10345,195.94712 370.17403,196.82272 377.21338,199.05127 383.44828,202.49884 386.73248,204.31483 390.17586,206.49986 392.06897,209.74022 393.01286,211.35583 393.60371,213.45444 393.10345,215.25746 392.36336,217.92487 390.11146,220.33035 387.58621,221.46435 385.80367,222.26483 383.66963,221.64676 381.72414,221.46435 377.41473,221.06029 373.17271,220.06734 368.96552,219.05056 363.8395,217.81172 359.00816,215.35137 353.7931,214.5678 343.44881,213.01357 332.86293,213.73777 322.41379,214.22298 300.2493,215.2522 278.11265,217.58936 256.2069,221.11953 247.72633,222.4862 239.33601,224.42941 231.03448,226.63676 225.09701,228.21552 219.33677,230.40137 213.44828,232.15401 205.32206,234.57268 197.16438,236.89094 188.96551,239.05056 182.89987,240.64828 176.94896,243.12628 170.68965,243.53332 166.53503,243.80349 162.28069,243.2921 158.27586,242.15401 151.05522,240.10205 144.4259,236.26247 137.93103,232.49884 135.18753,230.90905 132.44124,229.23004 130.11934,227.07065 129.60437,226.59172 128.36566,225.9883 128.79311,225.42987 128.92004,225.26405 129.16666,225.62143 129.36626,225.6828 Z"
 id="path20"
 inkscape:connector-curvature="0"
 sodipodi:nodetypes="aaaaaaaaaaaaaaaaaaaaaaaaaaa" />
<path
 style="fill:#000000;stroke:none;stroke-width:1px;stroke-linecap:butt;stroke-linejoin:miter;stroke-opacity:1;fill-opacity:1"
 d="M 134.01827,272.39176 C 137.04919,273.30458 139.83817,274.96459 142.46576,276.72967 146.54276,279.4684 150.73388,282.36883 153.65296,286.31871 156.71168,290.45754 158.69993,295.45031 159.81735,300.47396 160.42896,303.22362 160.16045,306.10693 160.04566,308.92145 159.55899,320.85396 158.81623,332.8936 156.16438,344.53789 155.55508,347.21334 155.06041,350.09736 153.42466,352.30045 152.58078,353.43702 151.41246,354.71751 150,354.81186 148.09709,354.93897 146.16623,353.56322 144.97717,352.07213 143.05448,349.66105 142.98753,346.20739 142.46575,343.16802 141.87216,339.71041 141.89504,336.17208 141.78082,332.66574 141.65942,328.93865 141.83907,325.20715 141.78082,321.47853 141.70471,316.60612 141.85088,311.71111 141.3242,306.86665 140.9225,303.1718 140.49374,299.41692 139.26941,295.90775 137.76667,291.6006 135.40276,287.60582 132.87671,283.80729 131.34969,281.51104 129.24397,279.64739 127.62557,277.4146 127.04323,276.61119 126.05101,275.89517 126.0274,274.90318 125.99821,273.6764 126.76008,272.26313 127.85388,271.70683 129.69668,270.7696 132.03866,271.79556 134.01827,272.39176 Z"
 id="path22"
 inkscape:connector-curvature="0"
 sodipodi:nodetypes="aaaaaaaaaaaaaaaaaaa" />
<path
 style="fill:#000000;stroke:none;stroke-width:1px;stroke-linecap:butt;stroke-linejoin:miter;stroke-opacity:1;fill-opacity:1"
 d="M 155.02283,263.03104 C 156.75224,263.74738 158.21261,265.16309 160.04566,265.54245 162.73267,266.09854 165.60798,265.77168 168.26484,265.08583 173.0107,263.86071 177.27844,261.172 181.50684,258.69313 183.91104,257.28368 185.87262,255.16302 188.35617,253.89861 190.65105,252.73026 193.08931,251.49805 195.6621,251.3872 198.17004,251.27914 200.66298,252.21964 202.96804,253.21368 205.04226,254.10818 207.05168,255.2967 208.6758,256.86665 211.66583,259.75695 214.73162,263.10949 215.75342,267.14063 216.27999,269.21802 215.49237,271.43256 215.0685,273.53332 214.59706,275.86986 213.87452,278.15987 213.0137,280.38264 212.25155,282.35063 211.08907,284.14375 210.27397,286.0904 209.49297,287.95561 208.84965,289.87684 208.21918,291.79816 206.63508,296.62563 204.96643,301.44654 203.88127,306.41003 203.42153,308.5129 203.49704,310.71621 202.96804,312.80273 202.42954,314.92673 201.90726,317.14852 200.68493,318.96711 199.99384,319.99532 199.17641,321.3408 197.94521,321.47853 196.11592,321.68316 194.22697,320.23205 193.15069,318.7388 192.01619,317.16478 191.75159,314.95414 192.00913,313.03104 192.28018,311.00704 194.07585,309.47957 194.74886,307.55159 197.05597,300.94241 198.91387,294.00179 199.08676,287.00364 199.13435,285.07744 199.00854,283.03233 198.17352,281.29588 197.19291,279.25669 195.72948,277.05809 193.60731,276.27305 191.88095,275.63442 189.91096,276.50115 188.12785,276.95797 183.92502,278.03472 180.21832,280.6303 176.0274,281.7525 173.50105,282.42898 170.87118,283.11091 168.26484,282.89405 165.79445,282.6885 163.35628,281.81102 161.18721,280.61094 159.01304,279.40804 157.17213,277.63544 155.47945,275.81643 153.62318,273.82162 151.99997,271.58199 150.68493,269.19542 150.09158,268.11858 149.2222,266.99674 149.31507,265.77076 149.42845,264.27405 150.19269,262.41636 151.59817,261.88948 152.7249,261.4671 153.91112,262.57056 155.02283,263.03104 Z"
 id="path24"
 inkscape:connector-curvature="0"
 sodipodi:nodetypes="aaaaaaaaaaaaaaaaaaaaaaaaaaaaaaaa" />
<path
 style="fill:#000000;stroke:none;stroke-width:1px;stroke-linecap:butt;stroke-linejoin:miter;stroke-opacity:1;fill-opacity:1"
 d="M 154.79452,324.44656 C 165.90604,319.40564 177.827,316.36239 189.49772,312.80273 192.51753,311.88167 195.4836,310.03265 198.63014,310.29131 202.97403,310.6484 208.74429,311.78248 210.50228,315.77076 211.21095,317.37849 209.80154,319.28309 208.90411,320.79359 207.61195,322.96849 205.82035,324.96831 203.65297,326.27305 196.26423,330.72098 187.05404,330.96225 178.76712,333.35067 170.15863,335.83177 161.78683,342.4632 152.96804,340.88492 150.07635,340.3674 146.65638,338.4698 145.89041,335.63378 145.13479,332.83609 147.39594,329.81431 149.31507,327.64291 150.7154,326.05852 152.86889,325.32015 154.79452,324.44656 Z"
 id="path26"
 inkscape:connector-curvature="0"
 sodipodi:nodetypes="aaaaaaaaaaa" />
<path
 style="fill:#000000;stroke:none;stroke-width:1px;stroke-linecap:butt;stroke-linejoin:miter;stroke-opacity:1;fill-opacity:1"
 d="M 246.57534,257.55158 C 254.25363,261.22169 260.57465,267.36253 266.66667,273.30501 270.37359,276.92093 273.8318,280.8827 276.55325,285.28837 278.89395,289.07767 280.47392,293.30843 281.96347,297.50592 283.85433,302.83431 285.38595,308.31428 286.40816,313.87505 287.10036,317.64059 287.61828,321.47754 287.53719,325.30531 287.47302,328.33408 288.85604,332.73958 286.2616,334.30369 283.23406,336.1289 278.77823,333.21974 276.28075,330.71774 273.53607,327.9681 273.62701,323.41445 272.3597,319.74189 270.93674,315.61826 269.89774,311.3543 268.22507,307.32549 266.2596,302.59146 263.9287,297.99796 261.32126,293.58487 258.88747,289.46569 255.94756,285.66682 253.19635,281.7525 250.12366,277.38079 246.02639,273.61259 243.83562,268.7388 242.55637,265.89285 241.21194,262.67433 241.78082,259.60638 241.98093,258.52719 242.58721,257.27173 243.60731,256.86665 244.55098,256.49193 245.65926,257.11371 246.57534,257.55158 Z"
 id="path28"
 inkscape:connector-curvature="0"
 sodipodi:nodetypes="aaaaaaaaaaaaaaaa" />
<path
 style="fill:#000000;stroke:none;stroke-width:1px;stroke-linecap:butt;stroke-linejoin:miter;stroke-opacity:1;fill-opacity:1"
 d="M 288.48315,247.40972 C 293.66115,245.86607 299.29926,246.36664 304.49438,244.88164 309.57753,243.42864 314.019,240.15846 319.10112,238.70186 324.06871,237.27808 329.25672,235.88817 334.41075,236.26227 337.9514,236.51927 341.72318,237.32624 344.5757,239.43938 348.8901,242.63547 351.8445,247.69081 353.65169,252.7468 354.72736,255.75622 355.00535,259.14258 354.49438,262.29736 354.0875,264.80952 352.72571,267.09573 351.45708,269.30188 349.94642,271.92891 347.44972,273.92643 346.06742,276.62321 343.26495,282.09066 341.0372,288.0504 340.39685,294.16079 340.09694,297.02264 342.32122,300.05959 341.29213,302.7468 340.34382,305.22308 338.03524,307.85761 335.39326,308.08388 332.08043,308.3676 328.82456,305.50401 326.96629,302.7468 325.79616,301.01061 325.97858,298.65631 325.8427,296.56703 325.72101,294.69598 325.87832,292.80794 326.1236,290.94905 326.79159,285.88654 328.24302,280.95842 329.3533,275.97419 330.30772,271.6896 334.0646,267.16085 332.30337,263.14006 331.6976,261.75713 329.80113,261.37617 328.37079,260.89287 327.02842,260.43929 325.57058,260.22946 324.1573,260.33107 318.33321,260.7498 312.11701,261.80116 307.30337,265.10635 306.14554,265.90135 305.92697,267.67327 304.77528,268.47714 303.97368,269.03665 302.93349,269.17789 301.96629,269.31984 299.74292,269.64616 297.42602,269.77167 295.22472,269.31984 293.12915,268.88971 291.03128,268.08323 289.32584,266.79175 286.83109,264.90255 284.55592,262.407 283.42697,259.48838 282.27649,256.51411 281.21303,252.66551 282.86517,249.93781 283.92904,248.18135 286.51521,247.9964 288.48315,247.40972 Z"
 id="path30"
 inkscape:connector-curvature="0"
 sodipodi:nodetypes="aaaaaaaaaaaaaaaaaaaaaaaaaaa" />
<path
 style="fill:#000000;stroke:none;stroke-width:1px;stroke-linecap:butt;stroke-linejoin:miter;stroke-opacity:1;fill-opacity:1"
 d="M 280.82192,303.44199 C 287.59754,298.99703 296.40497,298.93152 304.3379,297.27761 312.55674,295.56409 320.95251,291.9568 329.22374,293.39633 332.98155,294.05034 338.21355,295.21054 339.26941,298.87579 339.87304,300.97118 337.68265,303.11242 336.07305,304.58355 331.39599,308.85829 324.76353,310.43778 318.72146,312.34611 311.8472,314.51726 304.50887,314.81714 297.48859,316.45569 291.87907,317.76497 286.3678,322.57885 280.82192,321.0219 277.29729,320.0324 273.4524,316.68822 273.28767,313.03104 273.10476,308.9702 277.42307,305.67172 280.82192,303.44199 Z"
 id="path32"
 inkscape:connector-curvature="0"
 sodipodi:nodetypes="aaaaaaaaaa" />
<path
 style="fill:#000000;stroke:none;stroke-width:1px;stroke-linecap:butt;stroke-linejoin:miter;stroke-opacity:1;fill-opacity:1"
 d="M 34.444444,383.16295 C 40.574497,381.88644 46.831295,381.27553 53.064919,380.6848 56.503523,380.35894 59.961546,380.28812 63.410321,380.09803 66.909116,379.90519 70.452708,380.12136 73.907615,379.53624 83.076439,377.9834 91.664416,373.95669 100.70328,371.77094 114.82995,368.35488 129.21835,366.12812 143.4998,363.43136 159.87616,360.33902 176.23736,357.14601 192.68206,354.44052 212.87319,351.11866 233.09139,347.86472 253.4228,345.55163 266.19251,344.09883 279.03512,343.37483 291.85185,342.42221 306.53587,341.3308 321.2395,340.51768 335.92593,339.45925 352.86709,338.23832 369.78333,336.67605 386.73117,335.55163 394.35909,335.04555 401.98494,334.27537 409.62963,334.27406 417.54717,334.2727 425.65859,333.69331 433.34582,335.58908 447.99867,339.20268 461.58175,346.64217 474.53391,354.3885 482.88546,359.38334 491.2602,364.82564 497.77778,372.05184 500.00418,374.5203 503.52253,377.29362 502.96296,380.57036 502.66759,382.29997 500.61185,383.57173 498.88889,383.90369 495.88216,384.48299 492.98103,382.25376 490.12693,381.14464 481.13036,377.64851 472.84737,372.48691 463.88264,368.90993 453.50783,364.77032 442.88426,361.20301 432.10571,358.27114 420.43431,355.09641 408.55204,352.64533 396.60216,350.77427 385.22035,348.99217 373.73179,347.73814 362.22222,347.23702 346.30945,346.54419 330.3346,346.88285 314.44444,347.97776 294.21803,349.37145 274.13598,352.4577 254.07407,355.38517 234.11272,358.29797 214.22251,361.71852 194.40491,365.48713 172.84936,369.58623 151.28785,373.77176 130,379.08888 121.58194,381.19148 113.04952,383.09406 104.99376,386.31734 96.911397,389.55126 89.811155,394.90406 81.826883,398.3731 77.610445,400.20508 73.198376,401.55636 68.824386,402.97152 65.721644,403.97539 62.619362,405.01295 59.438202,405.73057 57.062299,406.26654 54.645042,406.62991 52.222222,406.87914 50.246806,407.08234 48.25587,407.23183 46.271328,407.16004 44.381566,407.09168 42.424102,407.1071 40.638784,406.48379 39.13734,405.95959 37.603866,405.1952 36.577195,403.98068 35.355349,402.53527 35.344019,400.38371 34.444444,398.71851 33.516646,397.00107 32.282956,395.46484 31.111111,393.90369 29.935731,392.33783 27.706729,391.27971 27.407407,389.34481 27.149959,387.6806 28.012153,385.77607 29.259259,384.64443 30.590456,383.43649 32.684637,383.52941 34.444444,383.16295 Z"
 id="path34"
 inkscape:connector-curvature="0"
 sodipodi:nodetypes="aaaaaaaaaaaaaaaaaaaaaaaaaaaaaaaaaaaaaaa" />
<path
 style="fill:#000000;stroke:none;stroke-width:1px;stroke-linecap:butt;stroke-linejoin:miter;stroke-opacity:1;fill-opacity:1"
 d="M 181.11111,387.97776 C 187.20666,397.84057 193.36901,407.9733 196.66667,419.08888 198.2216,424.33015 198.26343,429.92407 198.51852,435.38517 199.68234,460.30117 193.77917,485.4705 197.03704,510.19999 197.67494,515.04211 198.681,520.03759 201.11111,524.27406 202.51349,526.71886 205.52282,527.9648 206.93508,530.4039 209.15895,534.24471 210.7531,538.7248 210.74074,543.16295 210.73247,546.13104 209.30745,548.94914 208.14815,551.68147 207.15522,554.02167 206.6916,557.15955 204.44444,558.34813 203.23904,558.98569 201.61931,558.52512 200.37037,557.97776 197.16815,556.57435 194.69079,553.73739 192.59259,550.94073 191.3174,549.24105 190.83174,547.06853 189.80857,545.20623 187.99714,541.90918 185.69434,538.89847 183.88264,535.60157 182.45597,533.00535 180.38977,530.54403 180,527.60739 179.65276,524.99113 181.25781,522.45933 181.48148,519.82962 182.04658,513.1858 181.44988,506.48882 181.11111,499.82962 179.90262,476.07447 179.07002,452.18499 175.18519,428.71851 174.35382,423.6966 171.98112,418.96937 171.48148,413.90369 170.72928,406.27742 170.11271,398.19166 172.59259,390.94073 173.56793,388.08894 174.76422,383.58271 177.77778,383.53332 179.62938,383.50297 180.13753,386.40248 181.11111,387.97776 Z"
 id="path36"
 inkscape:connector-curvature="0"
 sodipodi:nodetypes="aaaaaaaaaaaaaaaaaaaaa" />
<path
 style="fill:#000000;stroke:none;stroke-width:1px;stroke-linecap:butt;stroke-linejoin:miter;stroke-opacity:1;fill-opacity:1"
 d="M 206.74157,397.69062 C 209.91671,397.16866 213.13914,396.92848 216.29213,396.28613 226.43976,394.21877 236.60473,391.92967 246.34831,388.42096 258.88168,383.90763 269.6926,374.92269 282.58427,371.56703 287.49081,370.28987 292.79577,369.37902 297.75281,370.44343 310.04185,373.08221 320.96698,380.71764 330.89888,388.42096 335.13943,391.70999 340.02435,395.17365 341.85393,400.21871 343.06863,403.56824 342.05766,407.4131 341.29213,410.89287 340.3171,415.32495 337.17647,419.09379 336.23596,423.53332 334.66304,430.95801 335.39031,438.69666 335.39326,446.28613 335.40192,468.5867 338.98043,490.86465 337.92135,513.14006 337.41199,523.85339 335.58763,534.48212 333.6604,545.03298 331.89051,554.72248 330.22998,564.52082 326.96629,573.81422 324.23298,581.59737 321.72553,589.94302 316.27036,596.13088 315.45997,597.05011 314.40121,598.23017 313.18047,598.12287 311.61063,597.98488 310.51264,596.26629 309.71475,594.90732 307.02796,590.33119 306.8609,584.6672 305.94634,579.44002 304.37203,570.44201 304.57548,561.19311 303.00779,552.19394 302.50975,549.335 300.99085,546.63418 300.95942,543.73235 300.93771,541.72823 300.32367,538.42223 302.24719,537.85916 303.23254,537.57072 303.59702,539.43021 304.42514,540.03711 307.0849,541.98633 309.91307,544.36597 313.20225,544.60074 314.09742,544.66463 315.07722,544.31216 315.74318,543.71058 316.88133,542.68246 317.29783,541.02556 317.69663,539.54456 324.93076,512.67943 324.59329,484.21759 325,456.39849 325.21115,441.95595 324.34215,427.46255 322.47191,413.14006 321.8656,408.4969 321.25813,403.7785 319.66292,399.37602 318.72099,396.77646 317.76679,393.9429 315.73034,392.07265 313.47556,390.00189 310.30099,389.04252 307.30337,388.42096 303.45269,387.62252 299.39319,387.82767 295.50562,388.42096 290.85079,389.13134 286.47734,391.10926 282.02247,392.63444 266.04518,398.10446 249.2413,402.00178 234.55056,410.33107 232.98592,411.21818 231.46784,412.30313 230.33708,413.70186 229.54732,414.67878 229.65459,416.31616 228.65169,417.07265 227.43482,417.99054 225.67202,418.08537 224.1573,417.91534 221.11503,417.57385 218.22962,416.03161 215.73034,414.26366 211.34912,411.16447 207.36927,407.16391 204.77528,402.4659 204.07268,401.19341 202.87322,399.47996 203.65169,398.25242 204.21234,397.36836 205.70859,397.86043 206.74157,397.69062 Z"
 id="path38"
 inkscape:connector-curvature="0"
 sodipodi:nodetypes="aaaaaaaaaaaaaaaaaaaaaaaaaaaaaaaaaaaaaaa" />
<path
 style="fill:#000000;stroke:none;stroke-width:1px;stroke-linecap:butt;stroke-linejoin:miter;stroke-opacity:1;fill-opacity:1"
 d="M 212.82723,458.61185 C 215.40976,457.76544 218.22552,459.33076 220.94241,459.39719 222.7764,459.44203 224.64152,459.49836 226.43979,459.13541 230.17407,458.38172 233.62078,456.58575 237.17277,455.20871 247.89994,451.04998 257.92728,444.82437 269.10995,442.11971 272.00426,441.41969 275.0826,440.81271 278.01047,441.35548 281.92138,442.08049 285.85485,443.83559 288.74346,446.56997 290.04834,447.80518 291.0963,449.50486 291.36126,451.28201 291.5455,452.51772 291.23275,453.88415 290.57592,454.94693 289.98843,455.89751 288.99922,456.63513 287.95812,457.04117 286.40981,457.64503 284.63703,457.21062 282.98429,457.38486 280.09184,457.68981 277.18177,457.96756 274.34555,458.61185 268.45018,459.95107 262.65196,461.79772 257.04948,464.06955 252.70727,465.83034 248.50142,467.95924 244.48404,470.37085 242.01487,471.85308 239.44823,473.30691 237.43455,475.36578 236.61337,476.20539 236.07657,477.28432 235.46191,478.28505 234.81062,479.34542 234.5432,480.68358 233.64803,481.54801 232.90537,482.26517 231.89925,482.73974 230.89005,482.9574 229.09675,483.34417 227.1879,483.07334 225.39267,482.69562 223.01397,482.19513 220.65552,481.35352 218.58639,480.07782 215.27375,478.03544 211.91112,475.58442 209.94764,472.22442 208.36699,469.51954 206.90338,466.04747 207.8534,463.06212 208.52802,460.94217 210.71317,459.30472 212.82723,458.61185 Z"
 id="path40"
 inkscape:connector-curvature="0"
 sodipodi:nodetypes="aaaaaaaaaaaaaaaaaaaaaaa" />
<path
 style="fill:#000000;stroke:none;stroke-width:1px;stroke-linecap:butt;stroke-linejoin:miter;stroke-opacity:1;fill-opacity:1"
 d="M 207.25806,527.72687 C 215.18765,525.66441 223.34366,524.56124 231.29032,522.56558 244.09703,519.3494 256.65046,515.19702 269.35484,511.59784 273.59682,510.39608 277.81374,509.09553 282.09678,508.04945 284.12495,507.55409 286.13816,506.78414 288.22581,506.75913 297.35703,506.64975 307.55036,506.71285 315.16129,511.75913 317.84571,513.53899 319.99447,516.64017 320.48387,519.82364 320.72176,521.37108 320.11662,523.07521 319.19355,524.33977 318.39352,525.43577 317.04015,526.03282 315.80645,526.59783 313.06694,527.85249 310.04435,528.39198 307.09677,529.01719 305.66125,529.32168 304.20726,529.58323 302.74194,529.66235 294.52178,530.10619 286.29659,528.66611 278.06451,528.69461 274.56619,528.70673 271.05245,528.74837 267.58065,529.17848 257.12718,530.47354 246.81768,532.85833 236.6129,535.4688 228.86973,537.44957 221.38018,540.31979 213.70968,542.56558 210.60525,543.4745 207.58795,545.04309 204.35484,545.14622 201.72013,545.23026 198.56735,545.3022 196.6129,543.53332 194.35622,541.4909 193.27573,537.80856 193.87097,534.82364 194.21426,533.10218 195.79436,531.76032 197.25807,530.79138 200.16515,528.86695 203.88398,528.60445 207.25806,527.72687 Z"
 id="path42"
 inkscape:connector-curvature="0"
 sodipodi:nodetypes="aaaaaaaaaaaaaaaaaaaa" />
</g>
</svg>
