<?xml version="1.0" encoding="UTF-8" standalone="no"?>
<!-- Created with Inkscape (http://www.inkscape.org/) -->

<svg
   xmlns:dc="http://purl.org/dc/elements/1.1/"
   xmlns:cc="http://creativecommons.org/ns#"
   xmlns:rdf="http://www.w3.org/1999/02/22-rdf-syntax-ns#"
   xmlns:svg="http://www.w3.org/2000/svg"
   xmlns="http://www.w3.org/2000/svg"
   xmlns:sodipodi="http://sodipodi.sourceforge.net/DTD/sodipodi-0.dtd"
   xmlns:inkscape="http://www.inkscape.org/namespaces/inkscape"
   width="512"
   height="512"
   viewBox="0 0 512 512"
   version="1.1"
   id="svg8"
   inkscape:version="0.92.4 (5da689c313, 2019-01-14)"
   sodipodi:docname="更2.svg">
  <defs
     id="defs2" />
  <sodipodi:namedview
     id="base"
     pagecolor="#ffffff"
     bordercolor="#666666"
     borderopacity="1.0"
     inkscape:pageopacity="0.0"
     inkscape:pageshadow="2"
     inkscape:zoom="1.42"
     inkscape:cx="88.50693"
     inkscape:cy="263.47812"
     inkscape:document-units="px"
     inkscape:current-layer="layer1"
     showgrid="false"
     units="px"
     inkscape:window-width="1920"
     inkscape:window-height="1017"
     inkscape:window-x="-8"
     inkscape:window-y="-8"
     inkscape:window-maximized="1">
    <inkscape:grid
       type="xygrid"
       id="grid3724" />
  </sodipodi:namedview>
  <metadata
     id="metadata5">
    <rdf:RDF>
      <cc:Work
         rdf:about="">
        <dc:format>image/svg+xml</dc:format>
        <dc:type
           rdf:resource="http://purl.org/dc/dcmitype/StillImage" />
        <dc:title></dc:title>
      </cc:Work>
    </rdf:RDF>
  </metadata>
  <g
     inkscape:label="圖層 1"
     inkscape:groupmode="layer"
     id="layer1"
     transform="translate(0,-161.53332)">
    <path
       style="fill:#000000;stroke:none;stroke-width:1px;stroke-linecap:butt;stroke-linejoin:miter;stroke-opacity:1;fill-opacity:1"
       d="M 52.970297,261.65213 C 58.834435,258.95501 65.843557,260.68704 72.277228,260.16698 91.755441,258.5925 111.30342,257.64987 130.69307,255.21649 148.62006,252.96667 166.35547,249.38676 184.15842,246.3056 203.48654,242.96048 222.68803,238.86728 242.07921,235.90956 268.22124,231.92214 294.46816,228.52975 320.79208,226.00857 335.77263,224.5738 350.8588,221.62697 365.84158,223.03827 370.42404,223.46991 375.45712,223.83588 379.20792,226.50362 382.117,228.5727 384.62478,231.88329 385.14851,235.41451 385.52201,237.93283 384.58405,240.78266 382.93877,242.72547 381.30963,244.64923 378.6428,245.64636 376.15879,246.07605 369.48351,247.23077 362.71703,244.35729 355.97307,243.71557 345.10289,242.68124 334.21544,241.70965 323.30327,241.31569 311.91256,240.90445 300.49046,240.74054 289.10891,241.3551 275.18847,242.10676 261.34986,244.0189 247.52475,245.81055 232.29581,247.78413 217.06085,249.84475 201.9802,252.74124 187.6716,255.48945 173.27629,258.18108 159.40594,262.64223 146.30695,266.85528 134.44087,274.44496 121.28713,278.48382 116.56852,279.93267 111.69831,281.03655 106.77997,281.45411 101.73018,281.88282 96.597765,281.69929 91.584158,280.95906 78.912798,279.08822 65.250652,277.95205 54.455446,271.05807 52.283009,269.67072 49.388147,267.69247 49.50495,265.11748 49.578974,263.48558 51.486168,262.33473 52.970297,261.65213 Z"
       id="path3726"
       inkscape:connector-curvature="0"
       sodipodi:nodetypes="aaaaaaaaaaaaaaaaaaaaaaa" />
    <path
       style="fill:#000000;stroke:none;stroke-width:1px;stroke-linecap:butt;stroke-linejoin:miter;stroke-opacity:1;fill-opacity:1"
       d="M 139.60396,316.10758 C 149.66002,322.25398 157.97125,331.2911 164.85149,340.86005 168.38444,345.77363 170.8115,351.47128 172.77228,357.19669 175.0686,363.90186 176.48042,370.94523 177.17237,377.99885 178.28377,389.32819 174.73763,400.93965 176.73267,412.14719 177.78536,418.06091 183.40004,422.97664 183.16832,428.97886 183.03449,432.44555 181.56482,436.40939 178.71287,438.38481 177.07939,439.51625 174.56398,439.73906 172.77228,438.87985 165.05513,435.1791 160.58929,425.87077 158.41584,417.59272 157.36485,413.5898 159.57227,409.35174 159.40594,405.21649 158.74086,388.68125 155.43472,372.27698 151.48515,356.20659 150.48881,352.1526 149.43222,348.03876 147.52475,344.3254 143.79954,337.07335 135.68378,332.27854 133.16832,324.52342 132.50644,322.48287 132.61771,320.16113 133.16832,318.08778 133.50979,316.80194 133.90572,315.09726 135.14851,314.62243 136.61089,314.0637 138.26822,315.29116 139.60396,316.10758 Z"
       id="path3728"
       inkscape:connector-curvature="0"
       sodipodi:nodetypes="aaaaaaaaaaaaaaaa" />
    <path
       style="fill:#000000;stroke:none;stroke-width:1px;stroke-linecap:butt;stroke-linejoin:miter;stroke-opacity:1;fill-opacity:1"
       d="M 183.16832,298.2858 C 186.62745,296.03781 191.43442,298.64054 195.54455,298.2858 203.22071,297.62328 210.77913,295.92085 218.31683,294.3254 240.28273,289.67602 261.5571,281.91689 283.66337,277.98877 288.23861,277.17578 292.887,276.21202 297.52475,276.50362 304.87699,276.9659 312.29985,278.59911 319.03128,281.59194 324.26426,283.91855 328.94348,287.48883 333.16832,291.3551 336.62334,294.51689 341.02296,297.61736 342.14391,302.16462 342.5484,303.80546 342.56454,306.2995 341.08911,307.12356 339.8655,307.80698 338.4605,305.27495 337.12871,305.71154 334.93118,306.43194 334.2828,309.39317 333.24145,311.45805 328.90588,320.05506 326.47312,329.49791 323.62407,338.69511 318.19686,356.21501 313.13535,373.89206 309.40594,391.85015 307.13295,402.7952 305.2828,413.87055 304.45545,425.01847 304.26004,427.65149 305.18332,430.40131 304.45545,432.93926 304.02628,434.4357 303.46881,436.44409 301.9802,436.89966 300.42612,437.37527 298.75849,435.97741 297.52475,434.91946 295.4399,433.13166 293.80443,430.63498 293.06931,427.98877 291.56692,422.58058 293.07728,416.7489 293.56436,411.15708 296.26476,380.15547 304.4603,349.78685 306.99539,318.77129 307.61899,311.14181 311.05782,302.54893 307.42574,295.81055 305.66625,292.54626 301.64418,290.65431 298.0198,289.86995 293.29831,288.84816 288.38417,290.82518 283.66337,291.85015 270.94617,294.61128 258.01222,297.4469 246.25901,303.03377 240.0524,305.98407 234.59684,310.35794 229.20792,314.62243 224.99493,317.95635 221.92793,322.73985 217.32673,325.51352 215.22579,326.78 212.84693,327.88368 210.39604,327.98877 207.15696,328.12765 203.82091,327.09387 200.9901,325.51352 196.81166,323.18083 193.75108,319.20892 190.59406,315.61253 187.0884,311.61899 181.7526,308.02512 181.18812,302.74124 181.01548,301.12521 181.80558,299.17141 183.16832,298.2858 Z"
       id="path3730"
       inkscape:connector-curvature="0"
       sodipodi:nodetypes="aaaaaaaaaaaaaaaaaaaaaaaaaaaaaaa" />
    <path
       style="fill:#000000;stroke:none;stroke-width:1px;stroke-linecap:butt;stroke-linejoin:miter;stroke-opacity:1;fill-opacity:1"
       d="M 180.4878,371.10815 C 184.73803,367.1062 190.66341,365.33664 196.02273,363.02196 204.33126,359.43353 212.91977,356.43153 221.6602,354.08349 231.14935,351.53431 240.85464,347.35856 250.60976,348.53331 253.28281,348.85521 257.0563,349.3558 257.95455,351.89391 259.01906,354.9018 256.17581,358.46086 253.69318,360.46514 248.22301,364.88132 239.99386,363.66709 233.2525,365.66192 224.88163,368.13894 216.01047,369.70176 208.44651,374.05992 206.18585,375.36246 204.76908,377.83199 202.55682,379.21514 200.9015,380.25009 199.10424,381.32172 197.15909,381.48787 191.7348,381.95119 185.75336,380.85367 181.25,377.79468 180.01143,376.95336 178.74218,375.59799 178.69318,374.1015 178.65511,372.93876 179.64081,371.90567 180.4878,371.10815 Z"
       id="path3732"
       inkscape:connector-curvature="0"
       sodipodi:nodetypes="aaaaaaaaaaaaa" />
    <path
       style="fill:#000000;stroke:none;stroke-width:1px;stroke-linecap:butt;stroke-linejoin:miter;stroke-opacity:1;fill-opacity:1"
       d="M 177.13415,426.5821 C 192.40078,420.26259 207.90556,414.39562 223.78049,409.81381 235.57845,406.4087 247.65381,403.96574 259.7561,401.88698 271.96814,399.78937 284.26292,396.88416 296.64634,397.31381 305.13172,397.60821 313.91774,398.67658 321.64634,402.19186 324.81055,403.63107 329.36025,405.15694 329.87805,408.5943 330.06283,409.82096 328.87137,411.12572 327.7439,411.64308 325.88737,412.49498 323.67347,411.28469 321.64634,411.03332 318.89357,410.69197 316.18666,409.91427 313.41463,409.81381 302.51745,409.41888 291.62039,410.96238 280.79268,412.25283 267.70328,413.81283 254.55036,415.43274 241.76829,418.65527 228.74203,421.93937 216.04508,426.56479 203.65854,431.76503 199.46801,433.52434 195.81945,436.56619 191.46341,437.86259 188.91411,438.62129 186.17715,439.09663 183.53659,438.77722 179.76971,438.32156 175.26902,437.7501 172.86585,434.81381 171.62776,433.30105 171.0361,430.74852 171.95122,429.02113 172.84506,427.33389 175.36994,427.31238 177.13415,426.5821 Z"
       id="path3734"
       inkscape:connector-curvature="0"
       sodipodi:nodetypes="aaaaaaaaaaaaaaaaa" />
    <path
       style="fill:#000000;stroke:none;stroke-width:1px;stroke-linecap:butt;stroke-linejoin:miter;stroke-opacity:1;fill-opacity:1"
       d="M 214.36488,256.92104 C 216.49141,262.10307 217.59987,267.67742 218.52779,273.20142 221.37145,290.12998 221.59794,307.3979 222.77228,324.52342 224.19456,345.26475 225.85617,366.01346 226.16449,386.80121 226.44649,405.81466 226.79451,424.92477 224.75248,443.83035 223.25458,457.69822 220.68061,471.51247 216.83168,484.91946 212.53598,499.88268 206.79696,514.47838 200,528.48382 195.47761,537.8024 190.59201,547.0988 184.15842,555.21649 176.90944,564.36302 168.68729,573.09985 158.91089,579.47391 142.91839,589.90077 124.45622,596.60302 105.94059,601.25609 93.86355,604.29111 81.193308,606.03437 68.778128,605.07023 60.529424,604.42965 52.495202,601.72808 44.77447,598.75457 41.673058,597.56012 38.788564,595.84917 35.92142,594.16841 35.1579,593.72082 34.427131,592.1974 33.704118,592.70785 32.538258,593.53093 34.019358,595.62579 34.726598,596.86535 38.633282,603.71249 44.771396,609.51403 51.622975,613.41293 58.882705,617.54409 67.50188,619.37018 75.841022,619.84858 85.440074,620.39926 95.04266,617.96107 104.38231,615.67723 117.90824,612.36971 131.41747,608.25265 143.84,601.9621 156.78203,595.40849 169.49827,587.6101 179.6861,577.28276 189.43103,567.40438 196.27653,554.91134 202.82404,542.67711 210.80523,527.76401 217.35279,511.99233 222.27723,495.81055 228.40146,475.68622 232.40208,454.84409 234.65347,433.92936 236.55224,416.29034 235.48214,398.4551 235.56199,380.71436 235.63887,363.63382 234.82943,346.55163 235.14851,329.47391 235.49675,310.83544 240.80647,291.98556 237.68846,273.60645 235.89972,263.06276 234.60128,249.82136 225.74257,243.83035 222.18858,241.42684 216.56062,241.64024 212.87129,243.83035 211.09332,244.88581 209.87087,247.20846 209.90099,249.27589 209.94398,252.22656 213.24455,254.19099 214.36488,256.92104 Z"
       id="path3736"
       inkscape:connector-curvature="0"
       sodipodi:nodetypes="aaaaaaaaaaaaaaaaaaaaaaaaaaaaaa" />
    <path
       style="fill:#000000;stroke:none;stroke-width:1px;stroke-linecap:butt;stroke-linejoin:miter;stroke-opacity:1;fill-opacity:1"
       d="M 73.404255,399.06523 C 76.082474,400.26561 75.374019,404.69056 77.12766,407.04396 78.403361,408.75596 80.001916,410.35118 81.914894,411.29928 90.171245,415.39124 100.05401,414.58923 109.04255,416.61843 116.71899,418.35142 124.45594,419.96051 131.91489,422.46949 142.30836,425.96556 152.45973,430.26457 162.23404,435.23545 175.70467,442.08616 188.12424,450.83219 201.06383,458.6397 218.23475,469.00031 234.93847,480.17523 252.56196,489.74577 277.68845,503.39085 303.3014,516.29253 329.73943,527.18102 353.31464,536.89046 377.70167,544.57181 402.10774,551.94793 426.5375,559.33121 451.60542,564.44069 476.15148,571.42758 484.81626,573.89396 493.83055,575.53221 501.99219,579.34653 503.19095,579.90677 504.68838,580.34885 505.31915,581.51204 505.82628,582.44722 506.07139,583.95129 505.31915,584.70353 504.19079,585.83189 502.12766,584.70353 500.53191,584.70353 495.03546,584.70353 489.52945,584.37957 484.04255,584.70353 477.85706,585.06874 471.68294,585.80311 465.58292,586.89096 458.17094,588.21276 450.84718,590.05049 443.61702,592.15034 437.31706,593.98004 431.25889,596.5677 425,598.53332 422.53701,599.30683 420.11925,600.37816 417.55319,600.66098 414.55197,600.99176 411.44983,600.82037 408.51064,600.12906 397.61378,597.56607 387.70454,591.81357 377.62172,586.95072 367.23344,581.94054 357.0884,576.40703 347.18304,570.49922 333.76466,562.49616 320.9797,553.4746 307.97872,544.80992 291.93747,534.119 276.11739,523.09926 260.10638,512.36311 242.25785,500.39481 224.29002,488.60539 206.38298,476.72481 187.41054,464.13738 169.69212,449.4176 149.46809,438.95885 142.03923,435.11705 134.35174,431.03791 126.06383,429.9163 122.53224,429.43837 118.86664,430.05311 115.42553,430.98013 109.21963,432.65197 103.82943,436.54611 97.87234,438.95885 95.429286,439.94833 93.061168,441.65026 90.425532,441.61843 87.956139,441.58861 85.471464,440.46017 83.510638,438.95885 78.977203,435.4878 77.270594,429.33045 73.404255,425.12906 71.021066,422.53935 67.48686,421.06673 65.425532,418.21417 64.075505,416.34594 62.708767,414.13545 62.765957,411.83119 62.86828,407.70845 64.954707,403.34576 68.085106,400.66098 69.490229,399.45588 71.715044,398.30813 73.404255,399.06523 Z"
       id="path3738"
       inkscape:connector-curvature="0"
       sodipodi:nodetypes="aaaaaaaaaaaaaaaaaaaaaaaaaaaaaaaaaaaaa" />
  </g>
</svg>
