<?xml version="1.0" encoding="UTF-8" standalone="no"?>
<!-- Created with Inkscape (http://www.inkscape.org/) -->

<svg
 xmlns:dc="http://purl.org/dc/elements/1.1/"
 xmlns:cc="http://creativecommons.org/ns#"
 xmlns:rdf="http://www.w3.org/1999/02/22-rdf-syntax-ns#"
 xmlns:svg="http://www.w3.org/2000/svg"
 xmlns="http://www.w3.org/2000/svg"
 xmlns:sodipodi="http://sodipodi.sourceforge.net/DTD/sodipodi-0.dtd"
 xmlns:inkscape="http://www.inkscape.org/namespaces/inkscape"
 width="512"
 height="530"
 viewBox="0 0 512 530"
 version="1.1"
 id="svg8"
 inkscape:version="0.92.4 (5da689c313, 2019-01-14)"
 sodipodi:docname="楚2.svg">
<defs
 id="defs2" />
<sodipodi:namedview
 id="base"
 pagecolor="#ffffff"
 bordercolor="#666666"
 borderopacity="1.0"
 inkscape:pageopacity="0.0"
 inkscape:pageshadow="2"
 inkscape:zoom="1.75"
 inkscape:cx="209.70683"
 inkscape:cy="304.63786"
 inkscape:document-units="px"
 inkscape:current-layer="layer1"
 showgrid="false"
 units="px"
 inkscape:window-width="1920"
 inkscape:window-height="1001"
 inkscape:window-x="-9"
 inkscape:window-y="-9"
 inkscape:window-maximized="1">
<inkscape:grid
 type="xygrid"
 id="grid18" />
</sodipodi:namedview>
<metadata
 id="metadata5">
<rdf:RDF>
<cc:Work
 rdf:about="">
<dc:format>image/svg+xml</dc:format>
<dc:type
 rdf:resource="http://purl.org/dc/dcmitype/StillImage" />
<dc:title></dc:title>
</cc:Work>
</rdf:RDF>
</metadata>
<g
 inkscape:label="圖層 1"
 inkscape:groupmode="layer"
 id="layer1"
 transform="translate(0,-143.53332)">
<path
 style="fill:#000000;stroke:none;stroke-width:1px;stroke-linecap:butt;stroke-linejoin:miter;stroke-opacity:1;fill-opacity:1"
 d="M 78.313253,257.46906 C 83.105033,254.94768 89.103362,256.28494 94.37751,255.05942 112.02761,250.95819 128.98199,244.28665 146.18474,238.59356 166.88325,231.74357 188.65182,227.29612 208.03213,217.30842 209.05577,216.78088 209.8568,215.89438 210.84337,215.30039 212.38205,214.37398 213.89525,213.21023 215.66265,212.89075 221.88908,211.76524 228.64186,212.60337 234.53815,214.89878 238.10606,216.28776 242.05087,218.30757 243.7751,221.72609 244.79997,223.75803 244.74038,226.49249 243.7751,228.5534 242.88815,230.44708 240.7826,231.55184 238.95582,232.56946 236.73689,233.80553 234.26352,234.84824 231.72691,234.9791 228.0292,235.16985 224.54731,233.10442 220.88353,232.56946 219.02431,232.29799 217.12773,231.95369 215.26104,232.16786 207.6048,233.04629 200.46044,236.48948 193.17269,238.99517 185.31971,241.6952 177.50043,244.53185 169.87952,247.83051 151.96767,255.58353 133.91893,263.34872 117.26908,273.53332 114.98511,274.93041 112.44879,276.20995 110.84337,278.3526 109.4717,280.18328 109.67218,282.85499 108.43373,284.7783 107.40878,286.37004 106.19916,288.15369 104.41767,288.79436 101.76032,289.75001 98.691943,288.79207 95.983936,287.99115 89.036421,285.93634 82.288324,282.5702 76.706827,277.95099 74.21028,275.88487 71.298312,273.50209 70.682731,270.32047 70.232121,267.9915 71.515193,265.55354 72.690763,263.49316 74.051972,261.10741 75.882469,258.74811 78.313253,257.46906 Z"
 id="path20"
 inkscape:connector-curvature="0"
 sodipodi:nodetypes="aaaaaaaaaaaaaaaaaaaaaaaa" />
<path
 style="fill:#000000;stroke:none;stroke-width:1px;stroke-linecap:butt;stroke-linejoin:miter;stroke-opacity:1;fill-opacity:1"
 d="M 161.65997,172.4832 C 167.19617,171.94684 173.09797,171.59992 178.31325,173.53332 185.39269,176.15779 191.33879,181.5722 196.38554,187.18794 200.03785,191.25203 202.93138,196.11659 204.81928,201.24416 205.94467,204.30074 206.86331,207.65508 206.4257,210.88272 204.76,223.16818 194.89553,232.92878 190.76305,244.61766 188.55531,250.86235 187.15643,257.38326 185.94378,263.89477 183.15307,278.87996 181.72717,294.09843 180.32129,309.27629 178.71314,326.63784 177.81818,344.06371 177.10843,361.48513 176.8356,368.18197 176.52943,374.88826 176.70683,381.58831 176.8038,385.25082 177.12082,388.90716 177.50756,392.55048 178.05887,397.74422 179.48177,402.84954 179.67216,408.06899 179.90692,414.50512 179.44821,420.99335 178.40421,427.34858 177.8653,430.62917 177.30983,434.0049 175.84049,436.98714 175.31801,438.04759 174.86006,439.76445 173.67838,439.79838 172.97073,439.8187 172.6414,438.80603 172.28916,438.19195 171.61209,437.01157 171.33834,435.63849 170.97188,434.32798 168.33696,424.90507 166.97192,415.16881 164.65863,405.66183 164.16729,403.64255 163.69387,401.6144 163.05221,399.63774 162.47651,397.86426 161.7673,396.1355 161.04418,394.41685 159.78762,391.4304 158.06085,388.6397 156.9978,385.57903 156.4277,383.93763 154.39572,381.58743 155.76265,380.51472 156.25531,380.1281 156.9115,381.02944 157.42972,381.38105 158.01554,381.77852 158.4703,382.34483 159.03614,382.77027 161.58846,384.68928 163.94226,387.33919 167.06827,387.99115 167.86541,388.1574 168.8435,388.10002 169.47791,387.58954 170.29685,386.93057 170.39932,385.68282 170.64993,384.66199 174.1693,370.32613 174.08239,355.32798 175.1004,340.60159 175.89921,329.04607 176.01547,317.45331 176.39866,305.87655 176.62492,299.04087 176.69416,292.19983 176.98964,285.36679 177.42102,275.39095 178.04438,265.42365 178.71486,255.46103 179.41807,245.01205 181.1478,234.60832 181.1245,224.13573 181.11366,219.26428 181.42929,214.20737 179.9388,209.56953 178.6618,205.59601 176.03497,202.14556 173.49398,198.83453 170.09331,194.40331 165.88586,190.64522 161.84739,186.78633 159.65308,184.68959 157.09394,182.97819 155.02008,180.76224 153.66059,179.3096 150.87311,177.96017 151.37587,176.03518 153.79062,173.87848 158.5729,172.81051 161.65997,172.4832 Z"
 id="path22"
 inkscape:connector-curvature="0"
 sodipodi:nodetypes="caaaaaaaaaaaaaaaaaaaaaaaaaaaaaaaaaaacc" />
<path
 style="fill:#000000;stroke:none;stroke-width:1px;stroke-linecap:butt;stroke-linejoin:miter;stroke-opacity:1;fill-opacity:1"
 d="M 173.81816,283.7146 C 169.35305,292.18775 163.68001,299.99112 157.9836,307.69062 153.38348,313.90832 148.61779,320.05325 143.20922,325.58211 137.08521,331.84232 131.29442,339.12411 123.32386,342.75233 122.45671,343.14706 121.18797,343.81031 120.49438,343.15709 119.41647,342.14192 121.74314,339.91766 120.8589,338.72998 120.10991,337.72398 118.42183,337.79019 117.17791,337.9505 115.31955,338.18999 113.57841,339.25434 112.15359,340.4712 110.06947,342.25114 108.40235,344.61734 107.36196,347.15295 105.86876,350.79214 104.91994,354.92204 105.52147,358.80939 105.80118,360.61697 106.47208,362.67553 107.97546,363.71737 111.18668,365.94275 115.73513,365.2261 119.6319,364.94436 123.07338,364.69553 126.52149,363.81718 129.66347,362.39111 133.87947,360.47756 137.68689,357.63865 141.10429,354.51492 145.62077,350.38656 149.2327,345.34054 152.82664,340.38822 156.66524,335.09878 160.17292,329.55128 163.28945,323.8067 169.80226,311.80188 177.27354,299.87622 180.41692,286.58519 181.72158,281.06875 183.08105,274.85422 180.9816,269.58871 180.77739,269.07654 180.3311,268.26422 179.80423,268.42681 179.44697,268.53706 179.69554,269.16926 179.58869,269.52755 178.12963,274.41985 176.19823,279.1981 173.81816,283.7146 Z"
 id="path24"
 inkscape:connector-curvature="0"
 sodipodi:nodetypes="aaaaaaaaaaaaaaaaaaaaa" />
<path
 style="fill:#000000;stroke:none;stroke-width:1px;stroke-linecap:butt;stroke-linejoin:miter;stroke-opacity:1;fill-opacity:1"
 d="M 194.06478,304.73414 C 197.83512,305.48423 201.39024,307.22583 204.71931,309.14817 207.10083,310.52336 209.23659,312.31322 211.26424,314.17102 213.09113,315.84487 214.81518,317.65731 216.28709,319.6505 218.3134,322.39443 220.50531,325.20447 221.46215,328.47854 221.83246,329.74565 221.99299,331.17129 221.61436,332.43594 221.364,333.27216 220.83518,334.10854 220.09229,334.56685 218.69377,335.42964 216.84536,335.58047 215.22164,335.32788 213.42803,335.04886 211.86855,333.8885 210.35099,332.89256 208.6348,331.76626 207.04728,330.42258 205.63256,328.93516 202.38768,325.52353 199.56984,321.68581 197.10892,317.67179 195.04526,314.30575 192.8189,310.86506 191.93387,307.01725 191.76328,306.27558 191.39574,305.27228 191.93387,304.73414 192.43613,304.23188 193.36813,304.59554 194.06478,304.73414 Z"
 id="path26"
 inkscape:connector-curvature="0"
 sodipodi:nodetypes="aaaaaaaaaaaaaa" />
<path
 style="fill:#000000;stroke:none;stroke-width:1px;stroke-linecap:butt;stroke-linejoin:miter;stroke-opacity:1;fill-opacity:1"
 d="M 264.04495,257.80299 C 270.14284,256.46857 275.99717,254.19073 282.02247,252.55954 291.46279,250.00382 301.10392,248.20228 310.48689,245.44343 325.0314,241.16694 339.14343,235.53244 353.55805,230.83669 363.50727,227.5956 373.14033,222.79315 383.5206,221.47339 388.48067,220.84276 393.82204,220.46203 398.50187,222.22246 402.0787,223.56797 405.60697,226.01352 407.49064,229.33856 408.91797,231.85808 409.54668,235.2113 408.61423,237.9528 407.87515,240.12578 405.89579,242.01951 403.74532,242.82171 400.4618,244.04657 396.75782,242.26237 393.25843,242.07264 389.89028,241.89003 386.50164,241.35471 383.14607,241.69811 368.05494,243.24251 353.4196,247.99925 338.95131,252.55954 328.7356,255.77945 318.54203,259.3261 308.98876,264.17002 300.92695,268.2577 293.24689,273.18866 286.14232,278.77677 282.88043,281.34242 280.60596,285.08808 277.15356,287.391 275.33976,288.6009 273.33954,290.10158 271.16105,290.01272 269.31928,289.9376 267.50052,288.78296 266.29213,287.391 264.63494,285.48207 264.87845,282.49545 263.67041,280.27489 262.47719,278.08158 261.01493,275.97142 259.17603,274.28238 257.44122,272.68894 254.71635,272.32566 253.18352,270.53707 251.94611,269.09319 250.88047,267.19437 250.93633,265.29362 251.00193,263.06131 252.12424,260.61162 253.93258,259.30111 256.69178,257.30151 260.71614,258.53144 264.04495,257.80299 Z"
 id="path28"
 inkscape:connector-curvature="0"
 sodipodi:nodetypes="aaaaaaaaaaaaaaaaaaaaaaa" />
<path
 style="fill:#000000;stroke:none;stroke-width:1px;stroke-linecap:butt;stroke-linejoin:miter;stroke-opacity:1;fill-opacity:1"
 d="M 284.26966,149.18875 C 294.88729,151.21713 305.76042,152.87669 315.73033,157.05392 320.58833,159.08934 325.25347,161.82066 329.21348,165.29361 332.35047,168.04478 335.40305,171.2102 337.07865,175.03145 338.44708,178.15218 338.6797,181.73779 338.57678,185.14381 338.50356,187.56673 337.62239,189.89765 337.07865,192.25991 335.92401,197.27619 334.01544,202.13913 333.33333,207.24118 331.74481,219.12308 332.70912,231.20927 332.58427,243.19624 332.47895,253.30805 332.46533,263.42166 332.58427,273.53332 332.70912,284.14726 333.01735,294.75856 333.33333,305.36853 333.74612,319.22906 334.34283,333.0835 334.83146,346.94156 335.08676,354.18231 335.74483,361.42102 335.58052,368.66441 335.4385,374.92494 335.59518,381.31433 334.08239,387.391 332.86664,392.27456 332.38002,398.6177 328.08989,401.24867 326.38377,402.29498 323.78825,401.94493 322.09738,400.87415 318.60399,398.66189 317.57211,393.87861 316.10487,390.01272 314.2886,385.2272 313.2039,380.12844 312.73408,375.03145 311.81671,365.0791 313.23354,355.04393 313.85768,345.0689 314.30378,337.93941 315.36262,330.85455 315.73034,323.72059 316.55946,307.63514 316.35455,291.5123 316.4794,275.40598 316.58294,262.04808 317.17233,248.67139 316.4794,235.33108 316.16687,229.31425 315.45162,223.31894 314.60674,217.35354 313.91306,212.4557 313.64563,207.40646 311.98502,202.7468 310.69055,199.11453 308.4688,195.86734 306.36704,192.63444 300.48776,183.59101 293.19427,175.54522 286.89139,166.79175 284.05853,162.85746 280.08969,159.43662 278.65169,154.80673 278.02218,152.77989 277.05487,149.83773 278.65169,148.43969 280.07312,147.19521 282.41399,148.83424 284.26966,149.18875 Z"
 id="path30"
 inkscape:connector-curvature="0"
 sodipodi:nodetypes="aaaaaaaaaaaaaaaaaaaaaaaaaaaa" />
<path
 style="fill:#000000;stroke:none;stroke-width:1px;stroke-linecap:butt;stroke-linejoin:miter;stroke-opacity:1;fill-opacity:1"
 d="M 308.98876,288.14006 C 299.68817,295.3195 293.82999,306.21057 285.01873,313.98276 280.52372,317.94769 275.92325,322.11343 270.41199,324.46965 268.54329,325.26857 266.42284,325.25142 264.41948,325.59325 262.80081,325.86944 260.84253,325.32881 259.55056,326.34231 255.19079,329.76237 253.87756,336.20059 253.18352,341.69811 252.96238,343.44977 252.92597,345.49106 253.93258,346.94156 255.7163,349.51184 259.17019,350.55534 262.17228,351.43594 263.8537,351.92915 265.6803,352.05279 267.41573,351.81047 270.31017,351.40632 273.07784,350.19159 275.65543,348.81422 279.75173,346.6253 283.32727,343.55245 286.89139,340.57452 294.68458,334.06308 302.14429,327.10313 308.98876,319.60074 314.56054,313.49337 320.89934,307.64007 324.34457,300.12508 326.25264,295.96305 328.90799,290.78837 326.96629,286.64193 325.75781,284.06126 322.32523,282.5378 319.47566,282.52208 315.51008,282.5002 312.12792,285.71684 308.98876,288.14006 Z"
 id="path32"
 inkscape:connector-curvature="0"
 sodipodi:nodetypes="aaaaaaaaaaaaaaaa" />
<path
 style="fill:#000000;stroke:none;stroke-width:1px;stroke-linecap:butt;stroke-linejoin:miter;stroke-opacity:1;fill-opacity:1"
 d="M 336.96072,299.56399 C 337.28942,299.22073 337.86141,299.86793 338.30853,300.02905 346.18363,302.86681 357.05699,307.0184 361.81584,308.8629 367.56467,311.09111 373.42197,313.0864 378.98251,315.74992 385.71326,318.97399 393.05042,321.61985 398.50187,326.71684 401.33473,329.3655 403.65295,332.77202 404.86891,336.45467 405.53549,338.47348 405.60289,340.7263 405.24345,342.82171 404.80832,345.35838 404.25121,348.3229 402.24719,349.93781 399.92952,351.80547 396.4048,352.06396 393.46882,351.57428 391.12562,351.18347 389.25408,349.36537 387.26592,348.06516 383.60897,345.67359 380.13244,343.00133 376.77903,340.19999 373.11807,337.14173 369.69891,333.80124 366.29213,330.46216 362.57192,326.81589 359.06898,322.95423 355.43071,319.2262 350.22976,313.89695 344.88765,308.70506 339.75189,303.31296 338.97245,302.49461 338.05562,301.7763 337.45544,300.81869 337.21669,300.43776 336.64978,299.8887 336.96072,299.56399 Z"
 id="path34"
 inkscape:connector-curvature="0"
 sodipodi:nodetypes="aasaaaaaaaaaaaaa" />
<path
 style="fill:#000000;stroke:none;stroke-width:1px;stroke-linecap:butt;stroke-linejoin:miter;stroke-opacity:1;fill-opacity:1"
 d="M 137.34162,447.84786 C 142.96533,446.42244 148.84389,446.28408 154.54545,445.21164 165.57777,443.13651 176.53645,440.64885 187.41259,437.86898 200.45718,434.53487 213.38001,430.71937 226.22378,426.68017 241.37756,421.9145 256.25149,416.29828 271.32867,411.29556 282.13831,407.70884 292.76116,403.42059 303.84615,400.80605 315.89458,397.96427 328.18042,395.22585 340.55944,395.21164 345.37315,395.20612 350.51893,395.23445 354.84074,397.35431 360.37999,400.07133 364.52875,405.20153 368.21699,410.14747 371.2788,414.25335 374.90283,418.70861 375.22813,423.82007 375.3482,425.70686 374.24097,427.51412 373.30078,429.15438 372.12311,431.20895 370.8849,433.57855 368.75533,434.61446 367.63969,435.15716 366.25766,434.9324 365.03497,434.72213 361.3332,434.08553 358.1708,431.56512 354.52734,430.65212 352.25535,430.08279 349.89456,429.77617 347.55245,429.80037 345.065,429.82607 342.63892,430.59737 340.16502,430.85786 338.66962,431.01531 337.15498,431.36023 335.66434,431.16273 334.66198,431.02993 333.62342,430.75743 332.79571,430.17668 331.80915,429.48448 330.64474,428.56078 330.52725,427.36135 330.41244,426.18937 331.09442,424.71688 332.16783,424.23262 332.86614,423.91759 333.65717,424.96655 334.40006,424.77948 335.45122,424.51478 336.15298,423.46008 336.81542,422.60207 339.24863,419.45047 340.75805,415.66252 342.30769,411.99486 343.31181,409.61833 345.94385,406.94203 344.75524,404.6522 344.19464,403.57221 342.47059,403.7131 341.25874,403.60325 337.05435,403.22214 332.8459,404.37332 328.67133,405.00185 321.27997,406.11471 313.79596,407.02718 306.64336,409.19766 291.50097,413.79268 277.45575,421.43517 262.93706,427.72912 255.01787,431.16214 247.1154,434.63555 239.26297,438.21863 225.01476,444.72011 211.07374,451.89167 196.73544,458.19197 187.20303,462.38055 177.31241,465.73147 167.83217,470.03682 165.93384,470.89892 164.32201,472.78145 162.23776,472.83402 160.17075,472.88616 158.38098,471.31668 156.55681,470.34319 147.41668,465.46545 135.71053,462.50557 130.34336,453.64398 129.79089,452.73181 129.49409,451.354 130.06993,450.4564 131.46042,448.28895 134.84542,448.48057 137.34162,447.84786 Z"
 id="path36"
 inkscape:connector-curvature="0"
 sodipodi:nodetypes="aaaaaaaaaaaaaaaaaaaaaaaaaaaaaaaaaaaa" />
<path
 style="fill:#000000;stroke:none;stroke-width:1px;stroke-linecap:butt;stroke-linejoin:miter;stroke-opacity:1;fill-opacity:1"
 d="M 246.45329,455.31428 C 252.6163,453.76759 259.28922,454.54147 265.50829,455.8446 273.62978,457.54636 281.76124,460.46721 288.57706,465.19999 291.32895,467.11085 293.58951,469.76964 295.37037,472.60739 298.06913,476.90779 300.15576,481.75332 301.00149,486.75947 301.6816,490.78531 301.27334,494.99462 300.46296,498.99628 299.31935,504.64343 295.91086,509.62794 294.44444,515.19999 292.89645,521.08196 292.22688,527.17147 291.55462,533.21646 290.52778,542.44994 291.52611,551.90189 289.81481,561.03332 289.15855,564.53513 288.49201,568.21603 286.57407,571.21851 285.22171,573.3356 283.40908,575.53896 281.01852,576.3111 278.50484,577.12301 275.29185,576.92866 273.14815,575.38517 270.79518,573.691 270.02007,570.35651 269.44444,567.5148 267.93699,560.07291 270.19595,552.34535 270.35821,544.75405 270.59699,533.58291 271.36207,522.36916 270.44594,511.23309 269.74754,502.74365 269.15007,494.02564 266.2037,486.03332 262.94899,477.20457 257.66357,469.09395 251.69994,461.81556 250.25093,460.0471 248.27923,458.77983 246.62348,457.20326 246.19198,456.79239 245.27951,456.53134 245.35814,455.94073 245.41364,455.52385 246.04539,455.41665 246.45329,455.31428 Z"
 id="path38"
 inkscape:connector-curvature="0"
 sodipodi:nodetypes="aaaaaaaaaaaaaaaaaaaa" />
<path
 style="fill:#000000;stroke:none;stroke-width:1px;stroke-linecap:butt;stroke-linejoin:miter;stroke-opacity:1;fill-opacity:1"
 d="M 341.00529,468.50686 C 346.7058,467.76283 352.69587,470.94822 357.14286,474.59152 360.3605,477.22764 362.41349,481.23674 363.75661,485.17353 364.65659,487.81143 364.87547,490.72239 364.58288,493.49419 364.30544,496.12247 363.88301,499.03457 362.16931,501.04655 361.14188,502.25282 359.51149,503.11044 357.92926,503.19556 355.93804,503.30269 353.96345,502.22841 352.33383,501.07916 349.01336,498.73747 346.65214,495.19832 344.44444,491.78729 342.7073,489.1033 341.51128,486.09517 340.31673,483.12961 339.23085,480.43383 337.89015,477.74421 337.56614,474.85607 337.40985,473.46292 337.2741,471.88412 337.97564,470.67039 338.59665,469.596 339.77478,468.66747 341.00529,468.50686 Z"
 id="path40"
 inkscape:connector-curvature="0"
 sodipodi:nodetypes="aaaaaaaaaaaa" />
<path
 style="fill:#000000;stroke:none;stroke-width:1px;stroke-linecap:butt;stroke-linejoin:miter;stroke-opacity:1;fill-opacity:1"
 d="M 185.83883,486.84292 C 179.70871,492.65512 173.82516,498.74227 167.41573,504.24493 158.16911,512.18339 148.46452,519.59282 138.57678,526.71684 126.29155,535.56823 113.85826,544.28919 100.74906,551.86697 92.70913,556.51446 84.4765,560.95192 75.803952,564.27254 70.675358,566.23622 65.416149,568.58172 59.925094,568.66441 56.770639,568.71191 53.595883,567.73898 50.731305,566.41722 49.316423,565.76437 48.495875,563.59713 46.939978,563.68249 45.158996,563.78019 43.97502,565.79615 42.968649,567.26879 41.633155,569.22303 40.450479,571.54087 40.449438,573.90785 40.448488,576.06749 42.298898,577.8538 42.742639,579.96736 43.174715,582.02536 43.237728,584.17114 43.071161,586.2674 42.929304,588.05269 41.847324,589.73323 41.947566,591.52134 42.013672,592.70054 42.308714,593.97965 43.071161,594.88163 44.441275,596.50248 46.630159,597.36314 48.689139,597.87789 50.384768,598.3018 52.210253,598.17527 53.932584,597.87789 61.637047,596.54763 68.893081,593.20541 76.029963,590.01272 87.453341,584.90247 98.422789,578.74104 108.98876,572.03519 119.69887,565.23787 129.57109,557.19922 139.70037,549.56328 150.42859,541.47583 161.21914,533.45074 171.53558,524.84419 180.15751,517.65131 188.97664,510.58893 196.62921,502.37227 198.13623,500.75416 199.68586,499.09757 200.69257,497.12883 201.63885,495.27825 202.40289,493.22471 202.45222,491.14681 202.55441,486.84269 201.56048,482.32046 199.39947,478.59677 198.87127,477.68661 198.15776,476.4685 197.10625,476.42706 196.19734,476.39124 195.66654,477.54106 194.98257,478.14071 191.81872,480.91453 188.89219,483.94792 185.83883,486.84292 Z"
 id="path42"
 inkscape:connector-curvature="0"
 sodipodi:nodetypes="aaaaaaaaaaaaaaaaaaaaaaaaaaa" />
<path
 style="fill:#000000;stroke:none;stroke-width:1px;stroke-linecap:butt;stroke-linejoin:miter;stroke-opacity:1;fill-opacity:1"
 d="M 112.71552,484.52469 C 116.20479,486.69525 119.26225,489.4966 122.62931,491.85229 127.21686,495.06187 131.79044,498.31794 136.63793,501.11953 142.47928,504.49552 148.70215,507.16353 154.74138,510.17125 172.97421,519.25174 191.13393,528.48267 209.48276,537.32642 225.80075,545.19135 242.22416,552.83845 258.70175,560.36329 280.9969,570.54484 302.96216,581.56518 325.87059,590.27965 343.34478,596.92691 361.31523,602.24197 379.31887,607.28203 394.40725,611.50598 409.63115,615.31146 425,618.36091 443.39727,622.01125 462.07598,624.06319 480.60345,626.9816 484.19678,627.54762 488.31248,626.74947 491.37931,628.70573 492.46173,629.39618 493.48409,630.61508 493.53448,631.89797 493.60314,633.64591 492.26795,635.31609 490.94828,636.46435 489.09831,638.07403 486.42913,638.38127 484.10722,639.17006 478.93521,640.92706 473.57539,642.07801 468.35097,643.67244 465.93756,644.40898 463.48659,645.05514 461.1514,646.01113 457.17254,647.64002 453.3337,649.62068 449.61158,651.77253 446.07151,653.81912 442.69906,656.1525 439.38625,658.54957 435.26583,661.531 431.37488,664.81765 427.40269,667.99389 426.18234,668.9697 425.30478,670.69707 423.76239,670.94711 421.85377,671.25652 420.09685,669.69704 418.33392,668.90292 414.64848,667.24281 411.14946,665.19401 407.61356,663.23546 401.77517,660.00154 396.09934,656.48144 390.29113,653.19365 380.95601,647.90942 371.43725,642.95291 362.12446,637.62944 349.20357,630.24348 336.53248,622.42843 323.68668,614.91263 307.35601,605.3579 291.07161,595.7189 274.56897,586.46435 251.18554,573.35111 227.60858,560.57881 203.87931,548.10229 194.39871,543.11752 185.15067,537.59447 175.24341,533.52313 162.05195,528.10216 147.95731,525.18922 134.48276,520.51608 131.00331,519.30936 127.10031,518.82471 124.13793,516.63677 117.42249,511.67691 112.81649,504.14776 108.83621,496.80918 106.65894,492.79489 103.82041,488.41852 104.31034,483.87815 104.42798,482.7879 104.97802,481.37033 106.03448,481.07643 108.44893,480.40473 110.58751,483.20093 112.71552,484.52469 Z"
 id="path44"
 inkscape:connector-curvature="0"
 sodipodi:nodetypes="aaaaaaaaaaaaaaaaaaaaaaaaaaaaaaaaaa" />
</g>
</svg>
