<?xml version="1.0" encoding="UTF-8" standalone="no"?>
<!-- Created with Inkscape (http://www.inkscape.org/) -->

<svg
 xmlns:dc="http://purl.org/dc/elements/1.1/"
 xmlns:cc="http://creativecommons.org/ns#"
 xmlns:rdf="http://www.w3.org/1999/02/22-rdf-syntax-ns#"
 xmlns:svg="http://www.w3.org/2000/svg"
 xmlns="http://www.w3.org/2000/svg"
 xmlns:sodipodi="http://sodipodi.sourceforge.net/DTD/sodipodi-0.dtd"
 xmlns:inkscape="http://www.inkscape.org/namespaces/inkscape"
 width="512"
 height="512"
 viewBox="0 0 512 512"
 version="1.1"
 id="svg8"
 inkscape:version="0.92.4 (5da689c313, 2019-01-14)"
 sodipodi:docname="橫2.svg">
<defs
 id="defs2" />
<sodipodi:namedview
 id="base"
 pagecolor="#ffffff"
 bordercolor="#666666"
 borderopacity="1.0"
 inkscape:pageopacity="0.0"
 inkscape:pageshadow="2"
 inkscape:zoom="1.75"
 inkscape:cx="228.24501"
 inkscape:cy="221.86142"
 inkscape:document-units="px"
 inkscape:current-layer="layer1"
 showgrid="false"
 units="px"
 inkscape:window-width="1920"
 inkscape:window-height="1001"
 inkscape:window-x="-9"
 inkscape:window-y="-9"
 inkscape:window-maximized="1">
<inkscape:grid
 type="xygrid"
 id="grid18" />
</sodipodi:namedview>
<metadata
 id="metadata5">
<rdf:RDF>
<cc:Work
 rdf:about="">
<dc:format>image/svg+xml</dc:format>
<dc:type
 rdf:resource="http://purl.org/dc/dcmitype/StillImage" />
<dc:title></dc:title>
</cc:Work>
</rdf:RDF>
</metadata>
<g
 inkscape:label="圖層 1"
 inkscape:groupmode="layer"
 id="layer1"
 transform="translate(0,-161.53332)">
<path
 style="fill:#000000;stroke:none;stroke-width:1px;stroke-linecap:butt;stroke-linejoin:miter;stroke-opacity:1;fill-opacity:1"
 d="M 8.8068182,363.87423 C 11.900622,364.39836 15.045859,364.83646 18.181818,364.7265 21.729195,364.60211 25.213295,363.72178 28.693182,363.02196 46.549529,359.43098 64.075591,354.35427 81.818182,350.23787 90.703137,348.1765 99.760558,346.80494 108.52273,344.27196 109.87513,343.88101 111.56405,343.90308 112.5,342.8515 113.33997,341.90775 112.80185,340.29553 113.35227,339.15832 113.61644,338.61253 113.91673,337.93933 114.48864,337.73787 115.3121,337.44779 116.19426,338.11187 117.04545,338.30605 125.95853,340.33934 135.26623,341.14974 143.75,344.55605 145.99563,345.45769 148.51334,346.33988 150,348.24923 151.03091,349.57325 151.33599,351.40286 151.42045,353.07877 151.49804,354.61837 151.18891,356.21317 150.56818,357.62423 149.99622,358.92444 149.24863,360.33557 148.01136,361.03332 145.52448,362.43577 142.31784,361.50211 139.48864,361.88559 136.15637,362.33726 132.81786,362.81593 129.54545,363.59014 103.54196,369.74221 77.464862,376.50819 52.840909,386.88559 46.865386,389.40388 41.569144,393.30878 35.795455,396.26059 34.022799,397.16686 32.372564,398.56509 30.397727,398.81741 28.389661,399.07397 26.254419,398.56212 24.431818,397.68105 21.953472,396.48299 19.895868,394.43729 18.181818,392.28332 12.247103,384.82543 7.9437901,376.00714 4.8295455,366.99923 4.4836037,365.9986 3.8748344,364.85989 4.2613636,363.87423 4.4342245,363.43343 4.9336117,363.11568 5.3977273,363.02196 6.5458869,362.7901 7.6519372,363.67858 8.8068182,363.87423 Z"
 id="path22"
 inkscape:connector-curvature="0"
 sodipodi:nodetypes="aaaaaaaaaaaaaaaaaaaaaaaaa" />
<path
 style="fill:#000000;stroke:none;stroke-width:1px;stroke-linecap:butt;stroke-linejoin:miter;stroke-opacity:1;fill-opacity:1"
 d="M 81.534091,269.55605 C 88.198292,271.65258 94.473992,275.06299 100.24201,279.0047 103.72391,281.38413 107.5972,283.77492 109.65909,287.45377 111.44805,290.64566 112.02422,294.60962 111.64773,298.24923 110.95292,304.96615 105.80291,310.49793 103.97727,316.99923 94.772222,349.77931 91.507925,384.00775 87.784091,417.8515 83.291424,458.68272 81.774931,499.80832 80.397727,540.86287 79.950056,554.20797 79.232978,567.59615 80.113636,580.91968 80.744292,590.46091 82.858335,599.84649 84.090909,609.32877 84.398266,611.69329 85.18398,614.05883 84.943182,616.43105 84.126653,624.47508 80.825046,632.1792 77.272727,639.44241 76.672688,640.66927 76.232102,642.26229 75,642.8515 74.056384,643.30275 72.862574,642.91199 71.875,642.56741 68.452776,641.37334 65.207486,639.29679 62.784091,636.6015 42.141034,613.6424 32.893456,582.4734 20.454545,554.21514 19.356067,551.71966 17.763791,549.26709 17.613636,546.54468 17.585528,546.03507 17.540957,545.31193 17.984298,545.05905 18.320939,544.86704 18.77836,545.17269 19.098555,545.39104 21.576187,547.08055 22.650665,550.23421 24.638661,552.47943 36.285682,565.63341 48.600849,578.28248 61.931818,589.7265 62.583697,590.28611 63.251694,590.84634 64.008359,591.25324 64.828804,591.69443 65.789099,592.61783 66.630883,592.21885 67.062551,592.01425 67.001942,591.33211 67.099055,590.86438 72.582653,564.45402 71.505192,537.09521 73.295455,510.18105 75.309872,479.89704 75.97947,449.52549 78.409091,419.27196 80.333179,395.3133 82.650936,371.36988 85.900673,347.55479 86.832664,340.72486 88.435935,333.99687 89.34133,327.16337 89.925862,322.75159 90.600988,318.3245 90.625,313.87423 90.642949,310.54773 90.635578,307.14374 89.772727,303.93105 87.520167,295.54399 82.671218,288.07109 78.693182,280.3515 77.896866,278.80621 76.500222,277.50595 76.136364,275.80605 75.917438,274.78326 75.997486,273.63768 76.420455,272.68105 77.043833,271.27116 78.093943,269.7911 79.545455,269.27196 80.175952,269.04646 80.895345,269.3551 81.534091,269.55605 Z"
 id="path24"
 inkscape:connector-curvature="0"
 sodipodi:nodetypes="aaaaaaaaaaaaaaaaaaaaaaaaaaaaaaaaaa" />
<path
 style="fill:#000000;stroke:none;stroke-width:1px;stroke-linecap:butt;stroke-linejoin:miter;stroke-opacity:1;fill-opacity:1"
 d="M 124.21624,426.53565 C 106.18097,444.13188 88.322429,461.97199 69.148936,478.32055 59.433898,486.60422 49.180745,494.25094 38.829787,501.72481 31.374193,507.1081 22.159153,510.36031 15.957447,517.15034 10.498813,523.12681 4.413936,530.33437 4.2553191,538.42694 4.1853948,541.99445 6.519458,545.47832 9.0425532,548.00141 11.285303,550.24416 14.612365,553.44474 17.553191,552.25672 20.516903,551.05945 19.125911,545.97037 20.744681,543.21417 22.561104,540.12144 25.224027,537.57433 27.862298,535.14454 39.229947,524.67516 53.196007,517.3707 65.033652,507.43584 78.049397,496.51224 90.387832,484.75407 102.12766,472.46949 109.07672,465.19797 115.85246,457.70208 121.80851,449.59715 125.28973,444.85994 128.4486,439.85726 131.13113,434.62619 133.56841,429.87336 136.19716,425.04963 137.23404,419.80992 137.50939,418.41846 138.47295,416.24531 137.23404,415.5546 135.32727,414.49155 133.37075,417.63793 131.66305,418.99793 128.9002,421.19824 126.74429,424.06914 124.21624,426.53565 Z"
 id="path26"
 inkscape:connector-curvature="0"
 sodipodi:nodetypes="aaaaaaaaaaaaaaaaa" />
<path
 style="fill:#000000;stroke:none;stroke-width:1px;stroke-linecap:butt;stroke-linejoin:miter;stroke-opacity:1;fill-opacity:1"
 d="M 190.08621,308.01608 C 193.38092,307.63156 196.29117,310.52442 199.56897,311.03332 203.54433,311.65052 207.61873,311.20774 211.63793,311.03332 221.57978,310.60188 231.45612,307.70092 241.37931,308.44711 245.65357,308.76852 251.14012,308.16746 253.87931,311.46435 255.62626,313.56699 255.46817,317.17765 254.31034,319.65401 252.18044,324.20941 246.49738,326.02719 242.24138,328.70573 232.2339,335.004 221.72274,340.61473 210.77586,345.08504 207.57797,346.39094 204.25722,348.73858 200.86207,348.10229 198.34773,347.63107 196.45122,345.33772 194.82759,343.36091 188.79167,336.012 182.8086,327.39597 181.89655,317.92987 181.69592,315.84753 182.34744,313.55528 183.62069,311.89539 185.1504,309.90118 187.58981,308.30743 190.08621,308.01608 Z"
 id="path28"
 inkscape:connector-curvature="0"
 sodipodi:nodetypes="aaaaaaaaaaaaa" />
<path
 style="fill:#000000;stroke:none;stroke-width:1px;stroke-linecap:butt;stroke-linejoin:miter;stroke-opacity:1;fill-opacity:1"
 d="M 235.34483,266.63677 C 243.67309,271.35216 252.01622,276.52066 258.62069,283.44711 261.34326,286.30241 263.83001,289.62098 265.08621,293.36091 270.95644,310.83758 269.97584,330.12482 268.96552,348.53332 268.87749,350.13728 268.91269,351.88706 268.10345,353.2747 267.53814,354.24407 266.63606,355.34337 265.51724,355.42987 264.68195,355.49445 263.98682,354.69495 263.36207,354.13677 261.0691,352.08812 259.15707,349.54761 257.75862,346.80918 248.88969,329.44213 246.97256,309.32141 240.94828,290.7747 240.00775,287.87913 239.07631,284.97487 237.93103,282.15401 236.26249,278.04437 233.284,274.41614 232.32759,270.08504 231.9868,268.54176 231.00816,266.21369 232.32759,265.34366 233.24109,264.7413 234.39264,266.09765 235.34483,266.63677 Z"
 id="path30"
 inkscape:connector-curvature="0"
 sodipodi:nodetypes="aaaaaaaaaaaaa" />
<path
 style="fill:#000000;stroke:none;stroke-width:1px;stroke-linecap:butt;stroke-linejoin:miter;stroke-opacity:1;fill-opacity:1"
 d="M 321.24973,228.72601 C 331.58951,231.38399 339.62364,239.70967 348.03978,246.27811 349.11346,247.11607 350.52092,247.7912 351.04212,249.0495 351.77921,250.829 351.17291,252.93138 350.81117,254.82322 349.67717,260.75391 347.06929,266.31532 344.8065,271.91342 335.88642,293.98161 327.28485,316.41391 315.01411,336.81003 312.46616,341.04517 309.56211,345.15469 306.00711,348.58841 302.94962,351.54159 299.5332,354.33176 295.61441,355.97877 292.80236,357.16063 289.4223,358.77049 286.60741,357.59542 285.22803,357.0196 284.00044,355.3935 284.06697,353.90024 284.19595,351.00524 287.76044,349.43381 289.60975,347.20273 292.99385,343.12002 296.96749,339.46335 299.77149,334.96244 303.65248,328.73278 306.32746,321.78822 308.77849,314.8699 313.48647,301.58105 316.9435,287.83121 319.63308,273.99196 320.69873,268.50865 321.62702,262.94892 321.71163,257.36366 321.7737,253.26591 321.31046,249.1517 320.55687,245.12337 319.77715,240.95532 317.07093,237.12338 317.09265,232.88308 317.09964,231.51896 317.18732,229.81552 318.24739,228.95696 319.02739,228.32523 320.2776,228.47611 321.24973,228.72601 Z"
 id="path32"
 inkscape:connector-curvature="0"
 sodipodi:nodetypes="aaaaaaaaaaaaaaaaaaa" />
<path
 style="fill:#000000;stroke:none;stroke-width:1px;stroke-linecap:butt;stroke-linejoin:miter;stroke-opacity:1;fill-opacity:1"
 d="M 305.77617,286.69415 C 308.31345,286.5676 310.87022,286.95261 313.39747,286.69414 327.3957,285.26252 341.13514,281.75201 354.7373,278.14904 363.89174,275.72419 372.37713,270.66811 381.7583,269.37299 386.56644,268.7092 391.59096,268.80683 396.30808,269.95036 399.93973,270.83075 404.01524,271.86718 406.46982,274.68481 407.1576,275.47432 407.62331,276.66557 407.39361,277.68714 406.45526,281.86035 402.42118,284.98954 398.73303,287.15605 395.56129,289.01921 391.51047,288.617 387.99392,289.69648 376.81351,293.12855 365.95812,297.58229 355.19919,302.16771 350.73252,304.07139 346.72906,307.16158 342.03511,308.40333 339.04984,309.19306 335.83973,309.62373 332.79716,309.09618 327.56783,308.18947 322.92277,305.14136 318.24739,302.62961 313.13975,299.88564 307.27348,297.74736 303.58214,293.27619 302.1851,291.58401 300.01595,289.03028 301.15718,287.15604 301.96192,285.83442 304.23075,286.77123 305.77617,286.69415 Z"
 id="path34"
 inkscape:connector-curvature="0"
 sodipodi:nodetypes="aaaaaaaaaaaaaaaa" />
<path
 style="fill:#000000;stroke:none;stroke-width:1px;stroke-linecap:butt;stroke-linejoin:miter;stroke-opacity:1;fill-opacity:1"
 d="M 133.51064,387.89502 C 137.20409,386.59129 141.3751,387.61452 145.21277,386.83119 150.87145,385.67616 156.16653,383.15879 161.70213,381.51204 184.95412,374.59494 208.18313,367.3935 231.91489,362.36311 254.90027,357.49093 278.25376,354.41145 301.59574,351.72481 331.10046,348.32885 360.74842,345.96327 390.42553,344.80992 406.90245,344.16957 423.42473,343.98852 439.89362,344.80992 450.5717,345.3425 461.45294,345.34296 471.80851,348.00141 483.19632,350.92485 495.2895,354.22575 504.25532,361.83119 507.78119,364.82208 511.99786,368.91924 511.70213,373.53332 511.52498,376.29724 508.96806,378.92232 506.38298,379.9163 504.04256,380.81621 501.39476,379.34518 498.93617,378.85247 484.3889,375.93712 470.33457,370.89942 455.85106,367.68226 438.77506,363.88924 421.62358,360.18636 404.25532,358.10779 391.38448,356.56745 378.38807,355.92068 365.42553,355.98013 343.2173,356.08199 320.96105,357.38576 298.93617,360.23545 281.55564,362.48423 264.34345,366.09482 247.34043,370.34183 236.72943,372.99224 226.29847,376.35523 215.95745,379.9163 206.61744,383.13266 197.05396,385.9817 188.29787,390.5546 182.41318,393.6279 176.86943,397.42808 171.80851,401.72481 168.27098,404.72818 165.734,408.78412 162.23404,411.83119 159.93332,413.8342 157.80667,416.71634 154.78723,417.15034 150.51349,417.76462 146.35215,414.94687 142.55319,412.89502 139.99453,411.51307 137.58774,409.7337 135.6383,407.57587 132.70269,404.32644 129.39799,400.7325 128.7234,396.40566 128.38555,394.2387 129.05579,391.81539 130.31915,390.02268 131.05567,388.97756 132.30498,388.3206 133.51064,387.89502 Z"
 id="path36"
 inkscape:connector-curvature="0"
 sodipodi:nodetypes="aaaaaaaaaaaaaaaaaaaaaaaaaaa" />
<path
 style="fill:#000000;stroke:none;stroke-width:1px;stroke-linecap:butt;stroke-linejoin:miter;stroke-opacity:1;fill-opacity:1"
 d="M 200.59108,422.77957 C 201.40477,422.14279 202.6862,422.53795 203.69079,422.77956 207.92268,423.79736 211.76879,426.20104 215.32047,428.71707 219.80598,431.89462 224.36691,435.41557 227.26641,440.08563 230.27652,444.93385 231.44619,450.79978 232.34351,456.43545 234.51725,470.08768 233.64115,484.0965 232.95334,497.90358 232.64285,504.13643 232.44337,510.4778 230.81895,516.50326 229.89487,519.93093 229.85124,524.95442 226.55017,526.26047 224.39088,527.11478 221.63227,525.30128 220.147,523.51625 218.081,521.03328 218.37055,517.27416 218.01261,514.06396 216.78497,503.05369 218.78803,491.8798 218.01261,480.82847 217.45223,472.84193 216.63495,464.80367 214.65857,457.04527 213.09303,450.89964 210.67406,444.97135 207.97824,439.23094 205.6951,434.36929 200.72165,430.56205 199.98124,425.24226 199.86466,424.40464 199.92508,423.30076 200.59108,422.77957 Z"
 id="path38"
 inkscape:connector-curvature="0"
 sodipodi:nodetypes="aaaaaaaaaaaaaaa" />
<path
 style="fill:#000000;stroke:none;stroke-width:1px;stroke-linecap:butt;stroke-linejoin:miter;stroke-opacity:1;fill-opacity:1"
 d="M 233.41014,406.48263 C 236.09943,405.95062 238.73487,408.18989 241.47465,408.09553 244.10023,408.0051 246.50983,406.5737 249.07834,406.0218 275.00345,400.45125 301.43774,397.5884 327.64977,393.5794 337.01253,392.14741 346.29399,389.74754 355.76037,389.43194 361.53593,389.23939 367.41818,389.48297 373.04147,390.81443 379.00933,392.22747 385.267,393.9414 390.09217,397.72687 392.77561,399.8321 394.64493,402.92908 396.08295,406.0218 397.15108,408.31901 398.14545,410.87117 397.92627,413.39507 397.72994,415.65588 396.66052,417.9127 395.16129,419.61627 393.49918,421.50492 390.62757,421.90503 388.70968,423.53332 386.55048,425.36648 384.74647,427.62528 383.17972,429.98493 380.80477,433.5618 379.01767,437.52073 377.41935,441.50567 368.98151,462.54287 363.32455,484.61156 357.37327,506.48263 356.23358,510.671 354.82373,514.83773 354.37788,519.15544 354.07799,522.05959 355.10882,525.03483 354.60829,527.9112 354.35399,529.37259 354.06072,531.02649 352.99539,532.05867 352.00097,533.02215 350.45809,533.55719 349.07834,533.44115 347.5024,533.30861 346.01456,532.28888 344.93088,531.13701 343.58912,529.71081 343.18278,527.63074 342.39631,525.83747 340.90122,522.42844 339.37647,519.01637 338.24885,515.4688 336.55027,510.12498 333.69218,504.68004 334.3318,499.10936 334.44934,498.08564 334.77812,496.77496 335.71429,496.34438 337.1528,495.68276 338.85429,498.08906 340.32258,497.49645 341.66641,496.95408 342.00409,495.11839 342.62673,493.80982 345.27741,488.23898 346.79929,482.19358 348.61751,476.2983 353.47757,460.54039 358.06923,444.6765 361.75115,428.60244 362.6055,424.87264 363.68159,421.13583 363.82488,417.31212 363.90587,415.15079 364.17321,412.75714 363.13364,410.86051 362.18812,409.13548 360.36169,407.87926 358.52535,407.17387 356.08343,406.23586 353.30269,406.56085 350.69124,406.71304 333.09341,407.73858 315.75901,411.81812 298.61751,415.92963 283.23698,419.61876 267.45611,422.85025 253.22581,429.75452 251.28975,430.69386 249.95977,432.73717 247.92627,433.44115 246.6903,433.86903 245.25446,434.07167 244.00922,433.67157 242.03354,433.03678 240.60161,431.25726 239.17051,429.75452 236.47959,426.92888 233.82966,423.87899 232.25806,420.30752 230.68069,416.72293 228.45522,412.40497 229.95392,408.78678 230.48379,407.50756 232.05184,406.75134 233.41014,406.48263 Z"
 id="path40"
 inkscape:connector-curvature="0"
 sodipodi:nodetypes="aaaaaaaaaaaaaaaaaaaaaaaaaaaaaaaaaaaaaaa" />
<path
 style="fill:#000000;stroke:none;stroke-width:1px;stroke-linecap:butt;stroke-linejoin:miter;stroke-opacity:1;fill-opacity:1"
 d="M 245.85253,460.86051 C 250.16903,458.19275 256.01151,462.06437 261.05991,461.55175 267.60195,460.88746 273.89568,458.63464 280.18433,456.71304 291.03465,453.39754 301.42703,448.71465 312.21198,445.19231 313.50572,444.76978 314.76805,444.04378 316.12903,444.04023 320.28572,444.02939 324.93689,444.8121 328.1106,447.49645 329.73679,448.8719 331.03293,451.13277 330.87558,453.25682 330.66312,456.12479 328.4372,458.81576 326.03687,460.39968 321.98855,463.07106 316.41881,461.84627 311.75115,463.16466 297.4599,467.20124 284.40499,475.04398 270.04608,478.83286 267.18912,479.58672 264.22069,480.59412 261.29032,480.21535 257.87958,479.77449 254.53792,478.20485 251.84332,476.06788 249.4362,474.1589 247.6206,471.47481 246.31336,468.69461 245.47313,466.90764 244.75077,464.90066 244.93088,462.93424 244.99988,462.18095 245.20907,461.25819 245.85253,460.86051 Z"
 id="path42"
 inkscape:connector-curvature="0"
 sodipodi:nodetypes="aaaaaaaaaaaaaaa" />
<path
 style="fill:#000000;stroke:none;stroke-width:1px;stroke-linecap:butt;stroke-linejoin:miter;stroke-opacity:1;fill-opacity:1"
 d="M 291.70507,421.45958 C 294.2923,422.87697 296.58094,424.96251 298.30375,427.35723 300.27626,430.09903 301.38395,433.41712 302.30415,436.66696 303.74234,441.74618 304.46888,447.0581 304.6083,452.33517 304.82628,460.58623 303.807,468.87357 302.30415,476.98954 300.85193,484.83211 299.34244,492.85917 295.85254,500.03102 294.60231,502.60029 293.06082,505.21788 290.78341,506.94346 288.69126,508.52868 285.95562,510.34919 283.41014,509.70844 281.82664,509.30984 280.75866,507.55036 280.18433,506.0218 278.91466,502.64263 280.05224,498.79972 280.18433,495.1923 280.60704,483.64837 282.09901,472.16512 282.7189,460.63009 283.2014,451.65162 284.81902,442.58543 283.64055,433.67157 283.12469,429.76969 278.54498,425.95942 280.18433,422.38125 281.05809,420.4741 283.85218,419.99497 285.94471,419.84668 287.93369,419.70573 289.95633,420.50155 291.70507,421.45958 Z"
 id="path44"
 inkscape:connector-curvature="0"
 sodipodi:nodetypes="aaaaaaaaaaaaaaa" />
<path
 style="fill:#000000;stroke:none;stroke-width:1px;stroke-linecap:butt;stroke-linejoin:miter;stroke-opacity:1;fill-opacity:1"
 d="M 200.06014,520.25293 C 204.21416,519.84288 208.35134,519.24367 212.46201,518.51812 222.97063,516.66329 233.35151,514.14363 243.769,511.83119 264.47515,507.2349 285.12391,502.38282 305.77508,497.54548 316.42255,495.05141 326.81801,488.76784 337.68997,489.94669 340.93362,490.2984 344.77005,491.4386 346.50456,494.20201 348.17431,496.86223 347.8544,500.78853 346.50456,503.62451 345.60689,505.51048 343.51286,506.64845 341.64134,507.57587 338.55876,509.10342 334.98201,509.32071 331.61094,510.00748 315.81203,513.22613 299.59643,514.26449 283.89058,517.91022 268.12283,521.57031 252.6278,526.44162 237.38602,531.89198 232.42517,533.66595 227.20766,535.0905 222.79635,537.97101 220.21626,539.65576 218.6696,542.63912 216.10942,544.35399 214.45131,545.46464 212.62942,546.65032 210.6383,546.7856 207.3753,547.00729 203.78936,546.06824 201.21581,544.05004 198.8227,542.17335 198.0651,538.84264 196.65653,536.1473 194.8932,532.77313 192.18378,529.60003 191.79331,525.81296 191.6122,524.0564 191.66962,521.79388 193.0235,520.66016 194.82482,519.15176 197.72203,520.48374 200.06014,520.25293 Z"
 id="path46"
 inkscape:connector-curvature="0"
 sodipodi:nodetypes="aaaaaaaaaaaaaaaaaaa" />
<path
 style="fill:#000000;stroke:none;stroke-width:1px;stroke-linecap:butt;stroke-linejoin:miter;stroke-opacity:1;fill-opacity:1"
 d="M 261.72043,544.50106 C 264.5119,546.05943 266.56518,548.83399 268.17204,551.59784 271.77247,557.79072 275.9263,564.94755 274.83871,572.02794 274.3706,575.07547 271.69937,577.43295 269.46237,579.55483 263.84995,584.87842 256.68327,588.32322 249.89247,592.02794 245.52808,594.40893 241.1821,597.11966 236.34409,598.2645 232.15628,599.25548 227.69965,599.31308 223.44086,598.69461 219.17853,598.07562 214.68637,597.11371 211.1828,594.60859 209.64332,593.50783 207.85176,591.9818 207.74194,590.09246 207.48084,585.60044 211.54247,581.75869 214.62366,578.47956 216.10769,576.90019 217.91444,575.41287 220,574.82364 222.96953,573.98467 226.2374,575.93374 229.24731,575.25375 233.84574,574.21489 237.93382,571.39535 241.72043,568.58708 245.62896,565.68838 249.49606,562.41083 252.04301,558.2645 254.21432,554.72969 253.81998,550.01769 255.91398,546.43655 256.50302,545.42918 257.17251,544.22492 258.27957,543.8559 259.38663,543.48688 260.70151,543.93224 261.72043,544.50106 Z"
 id="path48"
 inkscape:connector-curvature="0"
 sodipodi:nodetypes="aaaaaaaaaaaaaaaaa" />
<path
 style="fill:#000000;stroke:none;stroke-width:1px;stroke-linecap:butt;stroke-linejoin:miter;stroke-opacity:1;fill-opacity:1"
 d="M 311.08841,541.56331 C 324.013,542.67959 336.64311,547.16222 348.3871,552.6731 354.9386,555.7474 360.91664,560.05377 366.45162,564.71612 372.26886,569.61622 378.23843,574.75248 382.15054,581.27526 384.59904,585.35771 386.10858,590.09605 386.66667,594.82364 387.05471,598.11075 387.12072,601.67829 385.80645,604.71612 385.08077,606.39348 383.93191,608.39368 382.15054,608.80214 380.06366,609.28065 378.01653,607.50866 376.20998,606.35956 370.43009,602.6831 365.99061,597.22911 361.07527,592.45805 355.32801,586.87949 350.08078,580.79868 344.30108,575.25375 335.22994,566.55108 325.17331,558.90401 316.23137,550.06864 313.58373,547.45255 307.3808,545.33719 308.67515,541.84741 308.95682,541.08799 310.28144,541.49362 311.08841,541.56331 Z"
 id="path50"
 inkscape:connector-curvature="0"
 sodipodi:nodetypes="aaaaaaaaaaaaa" />
</g>
</svg>
