<?xml version="1.0" encoding="UTF-8" standalone="no"?>
<!-- Created with Inkscape (http://www.inkscape.org/) -->

<svg
   xmlns:dc="http://purl.org/dc/elements/1.1/"
   xmlns:cc="http://creativecommons.org/ns#"
   xmlns:rdf="http://www.w3.org/1999/02/22-rdf-syntax-ns#"
   xmlns:svg="http://www.w3.org/2000/svg"
   xmlns="http://www.w3.org/2000/svg"
   xmlns:sodipodi="http://sodipodi.sourceforge.net/DTD/sodipodi-0.dtd"
   xmlns:inkscape="http://www.inkscape.org/namespaces/inkscape"
   width="512"
   height="512"
   viewBox="0 0 512 512"
   version="1.1"
   id="svg8"
   inkscape:version="0.92.4 (5da689c313, 2019-01-14)"
   sodipodi:docname="趙2.svg">
  <defs
     id="defs2" />
  <sodipodi:namedview
     id="base"
     pagecolor="#ffffff"
     bordercolor="#666666"
     borderopacity="1.0"
     inkscape:pageopacity="0.0"
     inkscape:pageshadow="2"
     inkscape:zoom="1.75"
     inkscape:cx="137.66034"
     inkscape:cy="257.7927"
     inkscape:document-units="px"
     inkscape:current-layer="layer1"
     showgrid="false"
     units="px"
     inkscape:window-width="1920"
     inkscape:window-height="1017"
     inkscape:window-x="-8"
     inkscape:window-y="-8"
     inkscape:window-maximized="1">
    <inkscape:grid
       type="xygrid"
       id="grid826" />
  </sodipodi:namedview>
  <metadata
     id="metadata5">
    <rdf:RDF>
      <cc:Work
         rdf:about="">
        <dc:format>image/svg+xml</dc:format>
        <dc:type
           rdf:resource="http://purl.org/dc/dcmitype/StillImage" />
        <dc:title></dc:title>
      </cc:Work>
    </rdf:RDF>
  </metadata>
  <g
     inkscape:label="圖層 1"
     inkscape:groupmode="layer"
     id="layer1"
     transform="translate(0,-161.53332)">
    <path
       style="fill:#000000;stroke:none;stroke-width:1px;stroke-linecap:butt;stroke-linejoin:miter;stroke-opacity:1;fill-opacity:1"
       d="M 281.18812,256.70164 C 286.10339,262.66229 285.48121,271.66261 289.10891,278.48382 290.16281,280.46547 292.37522,281.79491 293.06931,283.92936 293.63064,285.65556 293.43785,287.59753 293.06931,289.3749 291.97389,294.65784 289.90948,299.93939 286.63366,304.22639 285.35058,305.90553 283.74781,307.73618 281.68317,308.18679 279.68897,308.62203 277.51877,307.7073 275.74257,306.70163 273.7118,305.55183 272.21688,303.59939 270.79208,301.75114 267.9928,298.1199 265.24874,294.23998 263.86139,289.86995 262.70862,286.23884 262.49226,282.27462 262.87129,278.48382 263.45314,272.66463 265.11915,266.83838 267.82178,261.65213 269.28667,258.84106 270.78397,255.31133 273.76238,254.22639 275.34358,253.65041 277.14325,254.60966 278.71287,255.21649 279.61034,255.56346 280.57596,255.95928 281.18812,256.70164 Z"
       id="path4531"
       inkscape:connector-curvature="0"
       sodipodi:nodetypes="aaaaaaaaaaaaaa" />
    <path
       style="fill:#000000;stroke:none;stroke-width:1px;stroke-linecap:butt;stroke-linejoin:miter;stroke-opacity:1;fill-opacity:1"
       d="M 313.86139,172.04817 C 318.61773,171.32492 323.64599,172.03525 328.21782,173.53332 333.48915,175.2606 338.21947,178.51314 342.57426,181.94916 347.06378,185.49148 351.32197,189.54156 354.45545,194.3254 356.80632,197.91444 358.98317,201.93704 359.40594,206.20659 359.8205,210.39323 358.38887,214.6365 356.93069,218.58283 355.29189,223.01798 351.86081,226.61239 350,230.95906 348.23336,235.08575 346.89892,239.42443 346.0396,243.83035 345.31031,247.5696 345.18007,251.40903 345.0495,255.21649 344.73839,264.28856 344.85306,273.39318 345.54455,282.44421 346.01388,288.58741 348.5156,294.61991 348.0198,300.76104 347.70055,304.71544 348.01415,310.2056 344.55446,312.14718 339.94728,314.73273 333.39752,311.40525 329.20792,308.18679 320.94603,301.83999 312.44813,291.28104 313.86139,280.95906 313.95636,280.26543 314.65262,279.56684 315.34653,279.47391 316.66516,279.29732 317.555,281.01795 318.81188,281.45411 321.96469,282.5482 325.69454,284.36297 328.71287,282.93926 329.58312,282.52877 330.01,281.40767 330.19802,280.46401 331.07814,276.04676 328.66672,271.57933 328.21782,267.09768 327.90491,263.97366 327.38798,260.81349 327.72277,257.69174 328.52527,250.20874 332.93745,243.40038 333.66337,235.90956 334.3177,229.15743 334.05275,222.13216 332.17822,215.61253 330.42401,209.5114 327.28071,203.69956 323.26733,198.78084 320.96986,195.9651 317.0169,194.76867 314.85149,191.85015 312.29501,188.40454 310.58034,184.20526 309.90099,179.96896 309.56031,177.84455 309.14357,175.28275 310.39604,173.53332 311.12761,172.51147 312.61894,172.2371 313.86139,172.04817 Z"
       id="path4533"
       inkscape:connector-curvature="0"
       sodipodi:nodetypes="aaaaaaaaaaaaaaaaaaaaaaaaaaa" />
    <path
       style="fill:#000000;stroke:none;stroke-width:1px;stroke-linecap:butt;stroke-linejoin:miter;stroke-opacity:1;fill-opacity:1"
       d="M 425.17379,207.8866 C 429.33881,212.51284 431.70939,218.63854 433.51064,224.59715 434.33791,227.3338 435.2761,230.33626 434.57447,233.10779 433.45152,237.54356 429.8738,241.0856 426.59574,244.278 417.83144,252.81327 407.19967,259.50595 396.17654,264.81203 391.68797,266.97264 386.89,269.5305 381.91489,269.278 379.21774,269.14111 376.47277,267.8961 374.46809,266.08651 373.11304,264.86333 371.45573,263.09033 371.80851,261.29928 372.24732,259.07147 375.38932,258.50473 377.12766,257.04396 385.24509,250.2227 393.92005,243.91019 400.97957,235.99909 404.98045,231.51559 408.4353,226.50017 411.2966,221.21606 413.88961,216.4274 414.07121,210.36973 417.40573,206.06439 417.98299,205.31907 418.73867,204.41664 419.68085,204.38438 421.85106,204.31007 423.72088,206.27279 425.17379,207.8866 Z"
       id="path4535"
       inkscape:connector-curvature="0"
       sodipodi:nodetypes="aaaaaaaaaaaaaa" />
    <path
       style="fill:#000000;stroke:none;stroke-width:1px;stroke-linecap:butt;stroke-linejoin:miter;stroke-opacity:1;fill-opacity:1"
       d="M 283.33333,313.34813 C 287.91528,314.75779 289.38894,320.94804 291.2037,325.38517 292.99098,329.75512 293.76673,334.55763 293.98148,339.27406 294.70859,355.24297 290.08119,371.01833 288.88889,386.95925 287.01099,412.06663 285.53337,437.24497 285.64815,462.42221 285.71578,477.25695 290.86708,492.31879 287.96297,506.86665 287.19276,510.72495 286.6756,516.51481 282.87037,517.5148 281.0485,517.99357 279.5251,515.65205 278.24074,514.27406 275.78663,511.64105 274.23642,508.26272 272.68519,505.0148 269.78158,498.9353 266.17802,492.75642 265.74074,486.03332 265.23774,478.29973 269.78724,471.02713 270.83333,463.34813 271.25046,460.28614 271.14458,457.17543 271.2963,454.08888 272.86646,422.14575 275.99487,390.23717 275.92592,358.25554 275.90694,349.44709 273.89981,340.65204 274.53704,331.86665 274.93552,326.37288 274.28565,319.92267 277.77778,315.66295 279.04967,314.11149 281.41585,312.75821 283.33333,313.34813 Z"
       id="path4537"
       inkscape:connector-curvature="0"
       sodipodi:nodetypes="aaaaaaaaaaaaaaaa" />
    <path
       style="fill:#000000;stroke:none;stroke-width:1px;stroke-linecap:butt;stroke-linejoin:miter;stroke-opacity:1;fill-opacity:1"
       d="M 303.24074,320.29258 C 313.4907,305.15305 336.12679,302.89371 354.16667,299.92221 359.80885,298.99284 365.69944,299.67633 371.2963,300.84813 379.03952,302.46931 387.42411,304.13728 393.51852,309.18147 396.71954,311.83087 399.48548,315.70638 400,319.82962 400.25991,321.91246 398.75294,323.83816 398.14815,325.84813 397.36023,328.46674 396.19181,331.00753 395.83333,333.71851 388.83197,386.66695 402.41202,440.57179 399.53704,493.90369 399.21865,499.80986 398.56886,505.73688 397.22222,511.49628 395.58891,518.48172 393.29757,525.35935 390.27778,531.86665 388.76265,535.13157 388.08607,539.84534 384.72222,541.12591 382.30459,542.04627 379.25362,540.52371 377.31481,538.8111 374.51976,536.34216 374.1497,532.05565 372.68519,528.62591 368.76897,519.45451 365.87464,509.84571 361.57407,500.84813 358.44553,494.30265 353.02824,488.81009 350.92593,481.86665 350.34285,479.94089 349.09584,477.32445 350.46296,475.84813 351.30179,474.9423 353.03764,475.34868 354.16667,475.84813 356.2647,476.77624 357.25309,479.2432 358.7963,480.94073 363.42593,486.03332 366.74659,492.73986 372.68519,496.21851 374.46173,497.25915 376.90794,498.61451 378.7037,497.60739 380.40625,496.65254 380.39299,493.99708 380.55556,492.05184 380.97181,487.07101 378.65253,482.21822 378.24074,477.23702 374.41356,430.94202 382.15068,384.03489 376.85185,337.88517 376.52726,335.05821 374.72478,332.38404 375,329.55184 375.26067,326.86937 377.99674,324.82846 378.24074,322.14443 378.48474,319.4604 378.23123,316.24112 376.38889,314.27406 372.41783,310.03419 365.50982,309.68099 359.72222,309.18147 356.00352,308.86051 352.11905,309.29518 348.61111,310.57036 343.26049,312.51537 339.20468,317.00917 334.25926,319.82962 329.76301,322.3939 325.3624,325.40603 320.37037,326.77406 318.28139,327.34653 316.03613,327.52149 313.88889,327.23702 310.16348,326.74347 305.41822,326.59614 303.24074,323.53332 302.61481,322.6529 302.63512,321.1871 303.24074,320.29258 Z"
       id="path4539"
       inkscape:connector-curvature="0"
       sodipodi:nodetypes="aaaaaaaaaaaaaaaaaaaaaaaaaaaaaaaaa" />
    <path
       style="fill:#000000;stroke:none;stroke-width:1px;stroke-linecap:butt;stroke-linejoin:miter;stroke-opacity:1;fill-opacity:1"
       d="M 293.98149,373.07035 C 296.09929,370.41231 300.832,373.26333 304.16667,372.60739 317.67274,369.95071 330.14945,363.50433 343.05556,358.71851 345.0709,357.97118 346.95014,356.73384 349.07407,356.40369 351.67088,356.00003 354.75048,355.41997 356.94444,356.86665 358.09677,357.62649 358.71997,359.19218 358.7963,360.57036 358.9691,363.69034 357.36868,366.82171 355.55556,369.36665 349.19227,378.29829 339.53729,384.62655 330.09259,390.19999 327.22972,391.8894 324.14878,393.66296 320.83333,393.90369 316.87617,394.19101 312.76915,392.97587 309.25926,391.12591 303.55643,388.12011 298.04333,383.79528 294.90741,378.16295 294.0681,376.65549 292.90633,374.41976 293.98149,373.07035 Z"
       id="path4541"
       inkscape:connector-curvature="0"
       sodipodi:nodetypes="aaaaaaaaaaaa" />
    <path
       style="fill:#000000;stroke:none;stroke-width:1px;stroke-linecap:butt;stroke-linejoin:miter;stroke-opacity:1;fill-opacity:1"
       d="M 287.5,436.49628 C 288.74557,434.92361 291.55131,436.88972 293.51852,436.49628 303.35459,434.52907 311.79921,428.15077 321.2963,424.92221 325.83274,423.38003 330.41232,420.79734 335.18519,421.2185 340.27434,421.66757 345.04606,424.55732 349.07407,427.69999 351.58237,429.65698 354.83332,431.93656 355.09259,435.10739 355.19398,436.34743 354.30629,437.7058 353.24074,438.34813 349.27359,440.73958 343.87563,437.81478 339.35185,438.8111 335.09715,439.74817 331.32716,442.20616 327.31481,443.90369 323.30247,445.60122 319.52767,448.03768 315.27778,448.99628 311.81211,449.77799 308.14803,449.95202 304.62963,449.45925 299.31345,448.71469 292.97174,448.33055 289.35185,444.36665 287.53444,442.37653 285.82669,438.609 287.5,436.49628 Z"
       id="path4543"
       inkscape:connector-curvature="0"
       sodipodi:nodetypes="aaaaaaaaaaaaa" />
    <path
       style="fill:#000000;stroke:none;stroke-width:1px;stroke-linecap:butt;stroke-linejoin:miter;stroke-opacity:1;fill-opacity:1"
       d="M 53.703704,282.79258 C 57.077247,284.75748 60.404365,286.90926 64.080502,288.22365 70.273685,290.438 76.823846,292.31603 83.400459,292.23226 103.10316,291.9813 121.80246,287.96072 140.57216,283.57945 159.69511,279.11573 179.10897,273.09157 196.70333,265.69652 197.7842,265.24222 199.12058,264.84542 199.67271,263.8111 200.54504,262.17695 198.70958,259.91286 199.53704,258.25554 200.13003,257.06783 201.48805,256.25522 202.77778,255.94073 210.19884,254.13116 218.39573,256.28304 225.46296,259.18147 229.54656,260.85625 233.27122,263.67313 236.11111,267.05184 237.44328,268.63677 238.81762,270.53818 238.88889,272.60739 238.95795,274.61238 238.12838,276.89454 236.57407,278.16295 233.25801,280.86905 228.15046,279.69761 223.97196,280.62463 181.93074,289.95169 139.13518,297.26327 98.599923,311.80119 94.097672,313.41592 90.094694,316.21542 85.648148,317.97776 81.882392,319.47028 78.082206,322.26747 74.074074,321.68147 70.55871,321.16752 67.798358,318.16667 65.277778,315.66295 59.316141,309.74119 54.944008,302.3218 50.90355,294.9541 48.733505,290.99706 46.149919,286.95327 45.675283,282.46529 45.521019,281.00662 45.14047,278.72015 46.48791,278.14057 49.116827,277.00979 51.230788,281.35225 53.703704,282.79258 Z"
       id="path4545"
       inkscape:connector-curvature="0"
       sodipodi:nodetypes="aasasaaaaaaaaaaaaaaaa" />
    <path
       style="fill:#000000;stroke:none;stroke-width:1px;stroke-linecap:butt;stroke-linejoin:miter;stroke-opacity:1;fill-opacity:1"
       d="M 10.671946,390.5743 C 14.804244,389.50352 19.236744,391.05579 23.478281,390.5743 33.840852,389.39796 43.852944,386.09524 53.969555,383.5613 79.211284,377.23893 103.97718,369.06426 129.31347,363.13215 146.14987,359.19016 163.22598,356.35181 180.20343,353.07003 189.34337,351.30326 198.53631,349.80517 207.64558,347.88651 212.03629,346.96171 216.27068,344.74796 220.75683,344.83738 227.33989,344.96859 234.04072,346.88879 239.80293,350.07483 245.84204,353.41397 254.20722,357.21462 255.06569,364.0618 255.19509,365.09388 254.15138,366.00151 253.3568,366.67275 251.55241,368.19705 249.13977,368.88061 246.86256,369.50803 230.1223,374.12034 212.41767,378.17972 195.18382,376.05746 192.57187,375.73581 188.2961,375.78367 187.82625,373.19427 187.52227,371.519 190.40899,370.972 191.63211,369.78756 192.3213,369.12016 193.26274,368.59638 193.61959,367.70584 193.95984,366.85673 194.05977,365.76349 193.61959,364.96162 192.9819,363.79995 191.55706,363.12409 190.26555,362.82724 187.67304,362.23135 184.9556,363.26931 182.33782,363.74197 163.58595,367.12777 144.87615,371.30458 126.8437,377.46305 110.65178,382.99293 95.134736,390.43383 79.887138,398.19711 66.900011,404.80948 54.512156,412.54954 42.077958,420.15083 40.634692,421.03313 39.482642,422.64809 37.80918,422.89505 34.881161,423.32716 31.782189,422.02324 29.271623,420.45574 19.992585,414.66226 10.446848,406.54484 7.3179058,396.06272 6.9355297,394.78174 7.1639057,393.19599 7.9277313,392.09886 8.5256256,391.24007 9.6589795,390.83679 10.671946,390.5743 Z"
       id="path4547"
       inkscape:connector-curvature="0"
       sodipodi:nodetypes="aaaaaaaaaaaaaaaaaaaaaaaaaa" />
    <path
       style="fill:#000000;stroke:none;stroke-width:1px;stroke-linecap:butt;stroke-linejoin:miter;stroke-opacity:1;fill-opacity:1"
       d="M 125,212.88518 C 132.20503,214.17794 139.60649,215.98122 145.83333,219.82961 149.5463,222.12435 152.77021,225.39313 155.09259,229.08887 158.57229,234.62632 160.92374,241.0998 161.57408,247.60739 162.37651,255.6369 159.12602,263.56499 158.25672,271.58754 157.53478,278.25013 157.31702,284.95911 156.68199,291.63055 154.52029,314.34059 158.24204,338.75503 149.07407,359.64443 147.18378,363.95151 144.1955,372.0054 139.81482,370.29258 125.29215,364.6143 140.65639,339.11701 141.2037,323.53333 141.60485,312.11123 142.36106,300.70085 142.59259,289.27406 142.78017,280.0167 144.14393,270.62466 142.5926,261.49628 141.49686,255.04872 140.50903,247.81822 136.11111,242.97776 133.13944,239.70706 127.84553,239.72532 124.07407,237.42221 120.22747,235.07321 116.36588,232.50514 113.42593,229.08888 110.76647,225.99855 107.33157,222.51714 107.40741,218.44073 107.45123,216.08553 109.03592,213.53686 111.11111,212.42221 115.19189,210.23029 120.44061,212.06711 125,212.88518 Z"
       id="path4549"
       inkscape:connector-curvature="0"
       sodipodi:nodetypes="aaaaaaaaaaaaaaaaa" />
    <path
       style="fill:#000000;stroke:none;stroke-width:1px;stroke-linecap:butt;stroke-linejoin:miter;stroke-opacity:1;fill-opacity:1"
       d="M 75.042088,418.69326 C 82.026607,418.90909 80.249828,432.69162 86.111111,436.49628 89.321323,438.58009 93.690238,438.55944 97.485271,438.06403 108.20838,436.66422 116.64121,426.52649 127.40951,425.53247 128.63498,425.41935 130.42935,425.23061 131.01852,426.3111 131.72894,427.61395 130.23494,429.21794 129.45075,430.47777 124.20094,438.91177 116.82084,446.01323 109.05599,452.21001 103.33173,456.77829 97.182056,461.45504 90.098906,463.31657 87.975177,463.87471 85.613455,463.84892 83.512205,463.21135 81.686622,462.65743 80.107643,461.39911 78.703704,460.10739 75.908205,457.53534 73.688298,454.34586 71.748738,451.07962 70.008848,448.14962 68.123992,445.09645 67.624159,441.72566 67.073799,438.01412 68.069167,434.19094 68.98148,430.55142 69.620012,428.0041 70.587291,425.51907 71.832912,423.20715 72.70857,421.5819 73.196831,418.63624 75.042088,418.69326 Z"
       id="path4551"
       inkscape:connector-curvature="0"
       sodipodi:nodetypes="aaaaaaaaaaaaaaa" />
    <path
       style="fill:#000000;stroke:none;stroke-width:1px;stroke-linecap:butt;stroke-linejoin:miter;stroke-opacity:1;fill-opacity:1"
       d="M 174.14773,392.56741 C 176.83158,391.61249 179.81569,391.64484 182.65979,391.80629 188.59108,392.14299 194.74927,392.84823 200.1178,395.39233 206.90919,398.6107 213.05704,403.63639 217.61364,409.61287 219.18182,411.66971 220.69467,414.12906 220.73864,416.71514 220.79932,420.28434 219.2115,424.06223 216.76136,426.65832 214.46429,429.09222 210.72166,429.54472 207.67045,430.91968 191.58391,438.16872 176.48601,448.98677 159.09091,451.94241 157.81405,452.15936 156.00898,452.68724 155.21544,451.66365 154.68357,450.97759 155.29569,449.87898 155.68182,449.1015 156.15938,448.13991 157.09142,447.47861 157.85807,446.72697 166.21254,438.53611 176.56075,432.39136 184.19804,423.52799 186.05889,421.3684 188.03727,419.08061 188.83997,416.34523 189.18861,415.15716 189.20643,413.81008 188.82932,412.63073 187.91115,409.75933 185.67372,407.44081 183.60321,405.2497 182.10641,403.66572 180.4736,402.07765 178.48958,401.17596 176.26897,400.16674 173.72804,399.76449 171.29083,399.86264 169.85137,399.92061 168.13832,401.99196 167.11528,400.97767 166.03291,399.90457 167.37842,397.7955 168.25697,396.55002 169.62321,394.61316 171.91463,393.36195 174.14773,392.56741 Z"
       id="path4553"
       inkscape:connector-curvature="0"
       sodipodi:nodetypes="aaaaaaaaaaaaaaaaaaaa" />
    <path
       style="fill:#000000;stroke:none;stroke-width:1px;stroke-linecap:butt;stroke-linejoin:miter;stroke-opacity:1;fill-opacity:1"
       d="M 41.142857,495.81903 C 45.909982,493.85215 51.465657,493.95147 56.571429,494.67618 71.336866,496.77197 84.854514,504.26603 98.507493,510.26658 124.08256,521.50695 146.94424,538.6919 173.14286,548.39046 205.11697,560.22707 239.06486,566.08502 272.57143,572.39046 296.18564,576.8343 320.01517,580.65327 344,582.10475 357.31034,582.91025 370.66831,581.81631 384,581.53332 400.84854,581.17568 417.69453,579.53157 434.53695,580.10968 445.35463,580.48099 456.04051,582.84685 466.85714,583.24761 474.23993,583.52114 481.65992,583.4393 489.01499,582.74411 493.49157,582.32099 497.84123,580.11559 502.31968,580.51833 503.31569,580.6079 504.7127,580.63053 505.14286,581.53332 505.75043,582.80846 504.4994,584.33963 503.74426,585.53332 502.60634,587.33209 500.8462,588.66989 499.20053,590.01978 493.69037,594.53961 487.99958,599.09344 481.49332,602.00192 476.36343,604.29512 470.55056,604.57791 465.14286,606.10475 458.41762,608.00359 451.47839,609.44165 445.14286,612.39046 438.38815,615.53437 433.4998,622.52842 426.28571,624.39046 419.75246,626.07677 412.75367,624.153 406.08192,623.1457 378.53361,618.98649 351.79243,610.55699 324.8596,603.42741 293.97569,595.25192 264.01335,583.49281 232.73326,576.99586 224.02797,575.18775 215.06793,574.92038 206.28571,573.53332 201.11945,572.71736 195.89003,572.09958 190.85714,570.67618 177.10573,566.78702 163.60427,561.70806 150.85714,555.24761 142.98647,551.25863 136.16364,545.4583 128.57143,540.96189 120.35726,536.09714 112.28047,530.82282 103.42857,527.24761 96.10172,524.28836 88.471949,521.10915 80.571429,520.96189 77.245483,520.8999 73.994791,522.14265 70.857143,523.24761 66.276664,524.86067 62.255418,527.8126 57.714286,529.53332 55.120851,530.51602 52.48404,531.9607 49.714286,531.81903 46.641066,531.66184 43.711861,530.08445 41.142857,528.39046 36.846463,525.55744 32.0657,522.2796 30.225774,517.47338 28.686764,513.45321 29.021192,508.43905 30.925074,504.57828 32.909203,500.55478 36.99585,497.53006 41.142857,495.81903 Z"
       id="path4557"
       inkscape:connector-curvature="0"
       sodipodi:nodetypes="aaaaaaaaaaaaaaaaaaaaaaaaaaaaaaaaaa" />
  </g>
</svg>
