<?xml version="1.0" encoding="UTF-8" standalone="no"?>
<!-- Created with Inkscape (http://www.inkscape.org/) -->

<svg
   xmlns:dc="http://purl.org/dc/elements/1.1/"
   xmlns:cc="http://creativecommons.org/ns#"
   xmlns:rdf="http://www.w3.org/1999/02/22-rdf-syntax-ns#"
   xmlns:svg="http://www.w3.org/2000/svg"
   xmlns="http://www.w3.org/2000/svg"
   xmlns:sodipodi="http://sodipodi.sourceforge.net/DTD/sodipodi-0.dtd"
   xmlns:inkscape="http://www.inkscape.org/namespaces/inkscape"
   width="512"
   height="512"
   viewBox="0 0 512 512"
   version="1.1"
   id="svg8"
   inkscape:version="0.92.4 (5da689c313, 2019-01-14)"
   sodipodi:docname="途2.svg">
  <defs
     id="defs2" />
  <sodipodi:namedview
     id="base"
     pagecolor="#ffffff"
     bordercolor="#666666"
     borderopacity="1.0"
     inkscape:pageopacity="0.0"
     inkscape:pageshadow="2"
     inkscape:zoom="1.32"
     inkscape:cx="183.90904"
     inkscape:cy="286.2817"
     inkscape:document-units="px"
     inkscape:current-layer="layer1"
     showgrid="false"
     units="px"
     inkscape:window-width="1920"
     inkscape:window-height="1017"
     inkscape:window-x="-8"
     inkscape:window-y="-8"
     inkscape:window-maximized="1">
    <inkscape:grid
       type="xygrid"
       id="grid21" />
  </sodipodi:namedview>
  <metadata
     id="metadata5">
    <rdf:RDF>
      <cc:Work
         rdf:about="">
        <dc:format>image/svg+xml</dc:format>
        <dc:type
           rdf:resource="http://purl.org/dc/dcmitype/StillImage" />
        <dc:title></dc:title>
      </cc:Work>
    </rdf:RDF>
  </metadata>
  <g
     inkscape:label="圖層 1"
     inkscape:groupmode="layer"
     id="layer1"
     transform="translate(0,-161.53332)">
    <path
       style="fill:#000000;stroke:none;stroke-width:1px;stroke-linecap:butt;stroke-linejoin:miter;stroke-opacity:1;fill-opacity:1"
       d="M 264.78873,198.18121 C 267.84946,204.04032 269.64605,210.63067 270.42254,217.19529 270.94717,221.63064 270.76,226.23248 269.71831,230.57557 268.63986,235.07192 266.35498,239.22358 264.08451,243.25163 256.21851,257.2067 246.58308,270.14435 236.61972,282.68825 220.4935,302.99121 203.19876,322.46573 184.50704,340.43473 173.93341,350.59953 164.0625,362.54722 150.70423,368.60374 146.59182,370.46827 141.38278,372.69486 137.32394,370.71642 135.15147,369.65747 134.26049,366.75147 133.80282,364.37839 132.07621,355.42568 133.8389,345.70125 137.24175,337.24236 137.65749,336.2089 138.13765,334.36516 139.23449,334.55966 140.81724,334.84032 139.89056,337.74293 140.60365,339.18355 142.25194,342.51347 143.86995,346.49947 147.1831,348.18121 148.64834,348.92496 150.55701,348.71033 152.11268,348.18121 166.69263,343.22225 177.45045,330.49475 188.73239,320.01219 206.02694,303.94304 221.8559,286.15965 235.91549,267.19529 243.44402,257.04039 250.2296,246.22876 255.6338,234.80093 257.76025,230.30429 260.0566,225.66463 260.56338,220.71642 260.9253,217.18262 259.62441,213.67417 259.15493,210.15304 258.68545,206.63191 256.73738,202.99561 257.74648,199.58966 258.36127,197.51461 259.80793,194.62341 261.97183,194.66008 263.4747,194.68555 264.09278,196.84896 264.78873,198.18121 Z"
       id="path23"
       inkscape:connector-curvature="0"
       sodipodi:nodetypes="aaaaaaaaaaaaaaaaaaaaaa" />
    <path
       style="fill:#000000;stroke:none;stroke-width:1px;stroke-linecap:butt;stroke-linejoin:miter;stroke-opacity:1;fill-opacity:1"
       d="M 296.72304,221.12108 C 304.5314,221.56694 311.41209,226.84692 317.91472,231.19261 326.98782,237.25613 334.76912,245.15385 342.20963,253.13672 350.87751,262.43643 356.81727,274.09225 365.72238,283.16505 370.75335,288.29076 376.28133,293.06137 382.43626,296.76278 390.95817,301.88764 400.55517,305.01887 409.91501,308.37751 422.66731,312.95349 435.73187,316.67012 448.87312,319.96681 460.13935,322.79313 471.67743,324.41475 483.00753,326.97305 489.72176,328.4891 497.55215,327.78348 503.05706,331.9157 504.44533,332.9578 505.91829,334.70544 505.66572,336.42284 505.26285,339.16223 501.93382,340.60258 499.61106,342.10969 496.74313,343.97053 493.43332,345.11384 490.15268,346.0757 476.41546,350.10332 461.94371,350.97377 447.84992,353.4834 442.5451,354.42801 437.25584,355.46062 431.94364,356.36282 429.79817,356.72719 427.6412,357.7505 425.49575,357.38601 421.37217,356.68545 417.91033,353.78309 414.44759,351.437 401.29527,342.52599 388.6916,332.50445 377.90368,320.8421 371.05344,313.4366 365.90088,304.61305 360.33994,296.19621 352.65348,284.56227 345.26016,272.71255 338.52691,260.50216 337.39559,258.45057 336.9172,255.99649 335.41076,254.20217 333.07566,251.42084 329.63983,249.78474 326.6289,247.75428 320.37156,243.53456 313.64054,240.04954 307.36544,235.85627 301.46028,231.91022 289.04013,230.41667 290.08499,223.39168 290.42903,221.07858 294.38829,220.98776 296.72304,221.12108 Z"
       id="path25"
       inkscape:connector-curvature="0"
       sodipodi:nodetypes="aaaaaaaaaaaaaaaaaaaaaaaa" />
    <path
       style="fill:#000000;stroke:none;stroke-width:1px;stroke-linecap:butt;stroke-linejoin:miter;stroke-opacity:1;fill-opacity:1"
       d="M 222.22319,343.5471 C 235.53202,339.3919 249.26268,336.72561 262.71043,333.04477 277.73382,328.93265 292.08979,321.40423 307.61169,320.10712 311.17391,319.80944 315.16915,319.53982 318.26623,321.32478 320.18281,322.42937 321.90677,324.46275 322.22363,326.65205 322.45585,328.2565 321.65179,330.02967 320.54934,331.21828 317.63111,334.36459 312.73357,334.76444 308.82935,336.54555 286.54233,346.71291 262.22924,353.30902 242.01019,367.13929 240.02603,368.4965 239.14664,371.50194 236.83513,372.16214 235.68686,372.4901 234.40308,371.93391 233.33435,371.4011 231.17721,370.32566 229.4659,368.47554 227.85488,366.68267 223.19873,361.50094 216.78146,356.40361 215.98268,349.4832 215.80767,347.96697 216.56542,346.28822 217.65696,345.22138 218.81634,344.08823 220.67569,344.03025 222.22319,343.5471 Z"
       id="path27"
       inkscape:connector-curvature="0"
       sodipodi:nodetypes="aaaaaaaaaaaaaa" />
    <path
       style="fill:#000000;stroke:none;stroke-width:1px;stroke-linecap:butt;stroke-linejoin:miter;stroke-opacity:1;fill-opacity:1"
       d="M 207.45905,402.75588 C 226.46511,397.68281 246.19957,395.74949 265.29796,391.03589 283.05245,386.65397 301.89738,384.40118 317.96181,375.66292 319.25738,374.95819 319.91484,373.24807 321.31038,372.77097 324.00267,371.85054 327.0342,372.72096 329.83401,373.2276 338.99224,374.88481 348.58121,376.66132 356.47035,381.59902 358.59995,382.9319 361.19514,384.60685 361.64541,387.07849 362.06929,389.40527 360.71043,392.09488 358.90568,393.62342 356.87725,395.3414 353.79274,395.23694 351.14309,395.44991 345.41406,395.9104 339.67582,393.81312 333.94362,394.23225 314.87678,395.62637 296.34973,401.438 277.9312,406.56107 263.12298,410.67994 247.69321,413.87779 234.2476,421.32522 231.72443,422.72279 230.04658,425.35937 227.55046,426.80469 226.56378,427.376 225.49418,428.00961 224.3541,428.02236 221.93111,428.04946 219.58995,426.82134 217.50475,425.58703 212.18573,422.4385 206.44882,418.77123 203.65386,413.25821 202.68594,411.349 202.47247,408.92804 203.04503,406.86549 203.43317,405.46728 204.45835,404.21728 205.63256,403.36471 206.15187,402.98765 206.83899,402.92138 207.45905,402.75588 Z"
       id="path29"
       inkscape:connector-curvature="0"
       sodipodi:nodetypes="aaaaaaaaaaaaaaaaaaa" />
    <path
       style="fill:#000000;stroke:none;stroke-width:1px;stroke-linecap:butt;stroke-linejoin:miter;stroke-opacity:1;fill-opacity:1"
       d="M 255.7271,281.96137 C 262.752,282.26754 269.06061,286.87619 274.84939,290.8678 277.75499,292.87133 280.23087,295.49719 282.44,298.24972 285.15618,301.63402 288.61366,305.03795 289.2811,309.3258 290.03748,314.18503 286.64086,318.8115 285.71042,323.64043 282.22535,341.72775 279.05174,359.98787 278.20503,378.38841 277.4156,395.54415 279.76017,412.70103 280.4854,429.8596 281.28394,448.7525 282.9177,467.6339 282.76576,486.54306 282.70371,494.26485 282.68441,502.04772 281.4627,509.67251 280.2,517.5531 278.99435,525.74148 275.27312,532.80197 274.33955,534.57329 273.33782,537.02678 271.36392,537.36271 270.28771,537.54587 269.18969,536.59094 268.52999,535.72114 263.4506,529.02406 265.48377,519.05666 262.24244,511.30135 258.95242,503.42954 252.55621,497.14021 249.08831,489.34513 248.09107,487.10355 245.4094,484.23233 246.93139,482.30809 247.65631,481.39158 249.30679,482.2122 250.42961,482.53588 256.03516,484.1518 260.28051,489.03855 265.81951,490.86962 266.34232,491.04245 266.98628,491.39319 267.45472,491.10379 268.33112,490.56235 268.25503,489.18674 268.43202,488.17189 272.38831,465.48703 269.91055,442.13607 270.06085,419.10929 270.19553,398.47667 270.28628,377.82796 269.40932,357.21355 268.80914,343.10535 268.10937,328.96699 266.25599,314.96819 265.69996,310.76843 265.52768,306.38386 263.87128,302.4847 261.22084,296.24556 254.19436,292.33173 252.14367,285.87058 251.88087,285.04257 251.64529,283.97598 252.14367,283.26444 252.87284,282.22341 254.45731,281.90603 255.7271,281.96137 Z"
       id="path31"
       inkscape:connector-curvature="0"
       sodipodi:nodetypes="aaaaaaaaaaaaaaaaaaaaaaaaaa" />
    <path
       style="fill:#000000;stroke:none;stroke-width:1px;stroke-linecap:butt;stroke-linejoin:miter;stroke-opacity:1;fill-opacity:1"
       d="M 206.89656,455.42987 C 208.69636,455.04747 210.22234,457.32375 211.2069,458.87815 217.52847,468.85852 219.40566,481.54693 219.39655,493.36091 219.39131,500.15644 217.97295,507.25793 214.65517,513.18849 213.76233,514.78445 212.6038,517.01408 210.77586,517.0678 209.04649,517.11862 207.85603,515.05921 206.89655,513.61953 201.75607,505.90634 198.76561,496.54976 197.84483,487.32642 197.19688,480.83595 198.47262,474.15166 200.43103,467.92987 201.83949,463.45526 202.30794,456.4048 206.89656,455.42987 Z"
       id="path33"
       inkscape:connector-curvature="0"
       sodipodi:nodetypes="aaaaaaaaa" />
    <path
       style="fill:#000000;stroke:none;stroke-width:1px;stroke-linecap:butt;stroke-linejoin:miter;stroke-opacity:1;fill-opacity:1"
       d="M 339.39336,443.65358 C 341.42741,443.52911 343.50174,444.237 345.31825,445.16064 359.66814,452.45709 373.99089,462.30847 382.51277,475.96626 386.92771,483.04196 388.75855,491.95797 388.37801,500.28938 388.24422,503.21857 387.88297,506.84778 385.54491,508.61739 384.23366,509.60984 382.20239,509.31994 380.61836,508.87815 377.50485,508.00979 375.446,504.9565 372.59792,503.42796 369.8039,501.92844 366.13524,501.96405 363.7931,499.82642 360.80276,497.09719 359.89746,492.72129 358.18966,489.05056 354.05899,480.17215 351.42304,470.62308 346.98276,461.89539 344.61393,457.23929 340.69984,453.39696 338.7931,448.53332 338.2583,447.16917 337.22722,445.50811 337.93103,444.22298 338.18229,443.76419 338.87125,443.68553 339.39336,443.65358 Z"
       id="path35"
       inkscape:connector-curvature="0"
       sodipodi:nodetypes="aaaaaaaaaaaaa" />
    <path
       style="fill:#000000;stroke:none;stroke-width:1px;stroke-linecap:butt;stroke-linejoin:miter;stroke-opacity:1;fill-opacity:1"
       d="M 32.394366,256.63191 C 37.793285,254.95506 43.872959,256.82134 49.295775,255.22346 53.123667,254.09554 56.206679,251.19726 59.859155,249.58966 63.732446,247.88487 67.60194,245.51882 71.830986,245.36431 77.180353,245.16886 82.694135,246.90288 87.323944,249.58966 90.195229,251.25593 93.738407,253.37206 94.366197,256.63191 95.042348,260.14288 92.34124,263.67286 90.140845,266.49107 85.604617,272.30097 78.931067,276.2073 72.535211,279.87135 68.790497,282.01662 64.877834,284.69826 60.56338,284.80093 57.07468,284.88395 53.572948,283.26685 50.704225,281.2798 47.418044,279.0036 46.071824,274.63138 42.957746,272.12487 39.440268,269.29366 34.210831,268.94727 30.985915,265.78684 29.259797,264.09524 26.814849,261.77659 27.464789,259.44881 27.973741,257.62598 30.586986,257.19326 32.394366,256.63191 Z"
       id="path37"
       inkscape:connector-curvature="0"
       sodipodi:nodetypes="aaaaaaaaaaaaaa" />
    <path
       style="fill:#000000;stroke:none;stroke-width:1px;stroke-linecap:butt;stroke-linejoin:miter;stroke-opacity:1;fill-opacity:1"
       d="M 9.4058641,369.08035 C 12.17656,368.4187 15.011766,371.03365 17.821637,370.56549 21.355127,369.97677 24.235011,367.33656 27.227501,365.36751 33.417721,361.29437 39.241654,356.65234 44.801616,351.75376 48.47873,348.51405 50.789906,343.50008 55.197571,341.3578 58.934534,339.5415 63.599682,338.65985 67.573708,339.87267 72.889163,341.49488 77.656682,345.82094 80.197368,350.76367 81.863872,354.00574 81.910414,358.08178 81.187459,361.65467 80.074753,367.15374 75.157199,371.22361 73.266731,376.50603 70.998605,382.84372 71.340043,389.89108 69.306367,396.30785 67.889014,400.77996 65.773166,405.01444 63.613344,409.17903 61.176951,413.87691 57.488788,417.91125 55.445094,422.79278 54.424986,425.22939 52.826629,427.90273 53.464912,430.46599 54.410378,434.26286 58.26338,436.77099 61.385639,439.12929 65.360508,442.13158 70.484362,443.24302 74.751867,445.8124 76.576025,446.91069 78.647044,447.84105 79.949845,449.52524 87.843865,459.73021 90.091384,473.30959 93.811118,485.66356 95.126996,490.03385 96.54665,494.47174 96.781391,499.02979 96.965093,502.59679 97.108723,506.46263 95.543777,509.67327 91.223676,518.53638 83.274366,525.95911 74.504345,530.46518 71.898318,531.80417 68.633232,532.83799 65.841049,531.95031 62.393876,530.85441 60.870876,526.68078 58.167844,524.27711 55.182782,521.62265 50.893969,520.22951 48.76198,516.85143 47.768486,515.27727 46.816154,513.1274 47.524366,511.40593 47.933654,510.41106 49.271448,510.12642 50.247116,509.67327 51.501502,509.09067 52.891308,508.86062 54.20748,508.43565 60.414728,506.43142 66.385309,503.57464 72.771685,502.24759 75.528944,501.67464 79.138198,503.43667 81.187459,501.50502 82.826208,499.96032 82.419697,497.06086 82.177549,494.8219 81.076897,484.64498 77.334949,474.36746 71.286549,466.10926 68.614065,462.46037 63.738104,460.99157 60.643071,457.69349 57.964925,454.83965 56.326006,451.15759 53.959957,448.04011 50.523977,443.5129 45.105245,440.22754 43.068957,434.9214 42.329337,432.99411 42.459616,430.76571 42.821434,428.73333 43.275293,426.18394 44.838985,423.96301 45.791707,421.55517 47.251965,417.86462 50.018817,414.38555 49.999593,410.41665 49.991875,408.82318 49.137728,407.29575 48.266934,405.96124 47.820586,405.2772 47.345612,404.32275 46.534275,404.22858 44.510077,403.99365 43.108938,406.44122 41.336298,407.44637 36.649625,410.10387 32.314974,414.12038 26.979979,414.87206 25.313607,415.10685 23.628502,414.40656 22.029524,413.88197 19.434143,413.03049 16.68549,412.1852 14.603842,410.41665 9.8077352,406.34192 6.5669655,400.55087 3.9603638,394.82272 2.3357796,391.25261 1.0101024,387.35899 0.99009096,383.43667 0.97967738,381.39557 1.6669617,379.37039 2.4752274,377.49612 3.4449916,375.24735 4.7693247,373.10276 6.4355912,371.30805 7.2776596,370.40107 8.2020992,369.36781 9.4058641,369.08035 Z"
       id="path43"
       inkscape:connector-curvature="0"
       sodipodi:nodetypes="aaaaaaaaaaaaaaaaaaaaaaaaaaaaaaaaaaaaaaaaaaaaaaa" />
    <path
       style="fill:#000000;stroke:none;stroke-width:1px;stroke-linecap:butt;stroke-linejoin:miter;stroke-opacity:1;fill-opacity:1"
       d="M 100.46296,505.0148 C 107.35974,505.71699 113.878,508.60275 120.37037,511.03332 142.55813,519.33984 162.74077,532.61429 185.18519,540.19999 205.15055,546.94782 225.91189,551.46373 246.75926,554.55184 260.83338,556.63662 275.12459,557.44046 289.35186,557.32962 310.40741,557.16558 331.33407,554.01796 352.31481,552.23702 366.2085,551.05766 380.03891,548.707 393.98148,548.53332 408.51605,548.35226 422.96655,551.05543 437.5,551.3111 448.30521,551.50118 459.10163,550.53951 469.90741,550.38517 472.5306,550.3477 476.01743,548.44 477.77778,550.38517 478.81845,551.53509 477.82761,553.55112 477.31481,555.0148 476.28162,557.96381 474.26646,560.52187 472.22222,562.88517 470.07582,565.36657 467.53879,567.5379 464.81482,569.36665 462.52284,570.90537 460.03514,572.22428 457.40741,573.07036 449.07577,575.753 439.94228,574.99477 431.48148,577.23702 423.83435,579.26364 416.41083,582.18795 409.25926,585.57036 403.13375,588.46749 397.27682,591.95534 391.66667,595.75554 389.39183,597.29647 387.53887,599.43055 385.18519,600.84813 383.88321,601.63229 382.5156,602.43767 381.01852,602.69999 378.88503,603.07382 376.67664,602.57413 374.53704,602.23702 354.75675,599.12046 335.63014,592.74171 316.2037,587.88517 306.47233,585.45236 296.89208,582.34764 287.03704,580.47776 277.40853,578.65087 267.54836,578.31751 257.87037,576.77406 249.80062,575.4871 241.73981,574.06218 233.7963,572.14443 222.54546,569.4282 211.35463,566.33768 200.46297,562.42221 187.97302,557.93216 175.73066,552.67578 163.88889,546.68147 156.54493,542.96395 149.91136,537.94833 142.59259,534.18147 134.1777,529.85045 125.88877,524.73365 116.66667,522.6074 107.6391,520.526 98.11327,522.54168 88.888889,521.68147 84.846875,521.30454 79.868625,522.54606 76.851852,519.82962 74.598737,517.80081 73.540274,513.89672 74.537037,511.03332 75.298046,508.84717 77.931993,507.69742 80.092593,506.86665 86.456486,504.41968 93.679904,504.32419 100.46296,505.0148 Z"
       id="path45"
       inkscape:connector-curvature="0"
       sodipodi:nodetypes="aaaaaaaaaaaaaaaaaaaaaaaaaaaaaaaaa" />
  </g>
</svg>
