<?xml version="1.0" encoding="UTF-8" standalone="no"?>
<!-- Created with Inkscape (http://www.inkscape.org/) -->

<svg
   xmlns:dc="http://purl.org/dc/elements/1.1/"
   xmlns:cc="http://creativecommons.org/ns#"
   xmlns:rdf="http://www.w3.org/1999/02/22-rdf-syntax-ns#"
   xmlns:svg="http://www.w3.org/2000/svg"
   xmlns="http://www.w3.org/2000/svg"
   xmlns:sodipodi="http://sodipodi.sourceforge.net/DTD/sodipodi-0.dtd"
   xmlns:inkscape="http://www.inkscape.org/namespaces/inkscape"
   width="512"
   height="512"
   viewBox="0 0 512 512"
   version="1.1"
   id="svg8"
   inkscape:version="0.92.4 (5da689c313, 2019-01-14)"
   sodipodi:docname="霸2.svg">
  <defs
     id="defs2" />
  <sodipodi:namedview
     id="base"
     pagecolor="#ffffff"
     bordercolor="#666666"
     borderopacity="1.0"
     inkscape:pageopacity="0.0"
     inkscape:pageshadow="2"
     inkscape:zoom="1.52"
     inkscape:cx="287.59248"
     inkscape:cy="291.74069"
     inkscape:document-units="px"
     inkscape:current-layer="layer1"
     showgrid="false"
     units="px"
     inkscape:window-width="1920"
     inkscape:window-height="1017"
     inkscape:window-x="-8"
     inkscape:window-y="-8"
     inkscape:window-maximized="1">
    <inkscape:grid
       type="xygrid"
       id="grid21" />
  </sodipodi:namedview>
  <metadata
     id="metadata5">
    <rdf:RDF>
      <cc:Work
         rdf:about="">
        <dc:format>image/svg+xml</dc:format>
        <dc:type
           rdf:resource="http://purl.org/dc/dcmitype/StillImage" />
        <dc:title></dc:title>
      </cc:Work>
    </rdf:RDF>
  </metadata>
  <g
     inkscape:label="圖層 1"
     inkscape:groupmode="layer"
     id="layer1"
     transform="translate(0,-161.53332)">
    <path
       style="fill:#000000;stroke:none;stroke-width:1px;stroke-linecap:butt;stroke-linejoin:miter;stroke-opacity:1;fill-opacity:1"
       d="M 200.69448,181.15056 C 202.82257,179.97591 205.44339,182.22308 207.85388,182.53625 215.81135,183.57007 223.87819,184.84576 231.87256,184.1529 242.47268,183.2342 252.64894,179.49562 262.87639,176.56204 272.83092,173.70675 283.18369,171.59122 292.38113,166.83174 294.33659,165.81984 295.68597,163.81104 297.69295,162.90561 298.69767,162.45234 299.82432,162.23913 300.92623,162.21276 307.55604,162.0541 314.28494,163.29142 320.55688,165.44605 328.01768,168.0091 336.79454,170.31653 341.34227,176.76254 342.19592,177.97251 342.35205,179.70408 342.03511,181.15056 341.79748,182.2351 341.00661,183.17243 340.18752,183.92195 338.76427,185.2243 336.9957,186.30185 335.10665,186.69333 331.7762,187.38352 328.338,186.00445 324.9449,185.76954 321.71569,185.54597 318.48171,185.35163 315.24506,185.30764 311.47246,185.25637 307.6843,185.17856 303.92857,185.53859 294.90815,186.40331 285.93949,187.99919 277.13851,190.15756 266.8529,192.68003 256.56998,195.57458 246.88422,199.85741 244.2032,201.0429 241.67725,202.58284 239.26291,204.24544 237.05468,205.7661 235.44458,208.16637 233.0273,209.32631 231.03982,210.28001 228.72196,211.1464 226.56073,210.712 222.33152,209.86194 219.28004,206.04808 215.93709,203.32164 212.60272,200.6022 209.51719,197.57336 206.58555,194.42393 203.90335,191.54248 199.7012,189.19459 199.07783,185.30764 198.84239,183.83961 199.39282,181.86905 200.69448,181.15056 Z"
       id="path23"
       inkscape:connector-curvature="0"
       sodipodi:nodetypes="aaaaaaaaaaaaaaaaaaaaaaaa" />
    <path
       style="fill:#000000;stroke:none;stroke-width:1px;stroke-linecap:butt;stroke-linejoin:miter;stroke-opacity:1;fill-opacity:1"
       d="M 106.23643,241.4282 C 108.89777,242.45106 111.19042,244.28744 113.44347,246.03466 115.58904,247.69853 117.50367,249.64727 119.40051,251.58994 122.63859,254.90625 125.99245,258.17714 128.63846,261.98263 135.75542,272.21825 141.89763,283.30404 146.19057,295.0083 148.30683,300.77807 149.01461,306.9763 150.11669,313.02231 150.59111,315.62499 151.13232,318.23265 151.27144,320.87456 151.46997,324.64464 151.52962,328.48506 150.80954,332.19106 149.93642,336.68475 148.6385,341.25595 146.19056,345.12418 145.14263,346.78012 143.98762,349.13406 142.03349,349.28126 140.22176,349.41773 138.89196,347.36981 137.64546,346.04798 136.38561,344.71198 135.143,343.19599 134.64313,341.429 132.96615,335.50108 135.21831,329.11262 135.10502,322.9531 134.96743,315.47275 135.6801,307.77118 133.71933,300.55107 131.88768,293.80643 128.18771,287.61856 124.25043,281.84422 122.10027,278.69084 119.71231,275.54878 116.62912,273.29912 114.79167,271.95842 111.97952,272.15816 110.39351,270.52773 108.41978,268.49873 108.30631,265.26371 107.16022,262.67548 105.12465,258.07848 102.81884,253.60577 100.69366,249.0495 99.834543,247.2076 98.652435,245.47687 98.153223,243.50673 97.868958,242.38488 97.064608,240.81953 97.922274,240.0425 100.00444,238.1561 103.61385,240.42024 106.23643,241.4282 Z"
       id="path25"
       inkscape:connector-curvature="0"
       sodipodi:nodetypes="aaaaaaaaaaaaaaaaaaaaaa" />
    <path
       style="fill:#000000;stroke:none;stroke-width:1px;stroke-linecap:butt;stroke-linejoin:miter;stroke-opacity:1;fill-opacity:1"
       d="M 167.89975,246.74001 C 171.13489,247.33122 174.15629,248.80686 177.36865,249.5114 179.42109,249.96155 181.50317,250.41174 183.60426,250.43519 207.11135,250.6975 230.3034,244.94106 253.58174,241.65914 266.39003,239.85335 279.11361,237.47912 291.91923,235.65447 311.66682,232.84068 331.55629,231.05536 351.27306,228.03316 363.40836,226.17305 375.56707,224.31714 387.53202,221.5666 391.11839,220.74215 395.01393,220.48031 398.15566,218.56426 399.50421,217.74182 400.25653,216.20123 401.38895,215.10003 403.89146,212.66651 406.18356,209.85544 409.2412,208.17157 410.92704,207.24317 412.85974,206.51841 414.78397,206.55493 421.8425,206.6889 428.62309,209.97594 434.87652,213.25244 437.26317,214.50293 439.62204,216.02925 441.34308,218.10237 445.56533,223.1884 448.29837,229.5309 450.11913,235.88542 450.75844,238.11664 451.17082,240.52078 450.81198,242.81388 450.51348,244.72139 449.88779,246.78084 448.50249,248.1257 447.31269,249.28077 445.4406,249.40292 443.88352,249.97329 441.59764,250.81063 439.06259,251.06431 436.95505,252.28278 435.35,253.21074 433.86227,254.45988 432.79798,255.97796 428.13678,262.62657 427.33021,271.30308 423.79098,278.61094 422.78377,280.69065 422.00223,283.02426 420.32674,284.61561 417.2562,287.53194 412.97596,288.90396 409.01025,290.38933 407.22679,291.05733 405.33192,292.16337 403.46748,291.77502 402.2314,291.51755 401.22826,290.47144 400.46515,289.46553 396.85363,284.70493 393.95031,278.80991 393.76764,272.83722 393.73043,271.62058 394.37803,270.46169 394.92238,269.37299 395.46673,268.28429 395.8218,266.67275 397.00092,266.37066 398.00144,266.11433 398.8004,267.40683 399.7723,267.75635 400.73878,268.10392 401.84546,268.88683 402.77464,268.44919 403.70902,268.0091 403.76508,266.63202 404.16033,265.67781 407.14148,258.48067 410.30285,251.19626 411.55069,243.50673 411.73566,242.3669 411.87973,241.14937 411.55069,240.0425 410.94835,238.01626 409.77672,236.00014 408.08646,234.73068 406.60657,233.61922 404.61841,233.27515 402.77464,233.11403 379.28863,231.0617 355.91599,238.40456 332.56621,241.65914 316.3581,243.91829 300.23633,246.7588 284.06698,249.28045 271.13618,251.29704 258.20265,253.2961 245.26758,255.28512 239.72563,256.1373 234.09549,256.53362 228.63927,257.82555 220.13458,259.83931 211.84518,262.74821 203.69681,265.90876 198.49339,267.92704 193.6049,270.688 188.45419,272.83722 186.85763,273.50341 185.24827,274.14625 183.60426,274.68481 181.40345,275.40577 179.20627,276.80726 176.90675,276.5324 173.75881,276.15613 170.78515,274.20338 168.5926,271.91343 167.52117,270.7944 167.32462,269.07664 166.51406,267.75635 165.16072,265.55196 162.70575,263.97709 161.89508,261.52073 160.59224,257.57309 160.146,252.82071 161.89508,249.0495 162.44667,247.86022 163.65003,246.91241 164.89741,246.50906 165.85246,246.20024 166.91237,246.55957 167.89975,246.74001 Z"
       id="path27"
       inkscape:connector-curvature="0"
       sodipodi:nodetypes="aaaaaaaaaaaaaaaaaaaaaaaaaaaaaaaaaaaaaaaaaaaaaaaa" />
    <path
       style="fill:#000000;stroke:none;stroke-width:1px;stroke-linecap:butt;stroke-linejoin:miter;stroke-opacity:1;fill-opacity:1"
       d="M 248.99598,229.75822 C 249.10762,232.88234 254.12151,233.53468 255.89974,236.10577 259.93813,241.94481 262.71297,248.85566 263.85542,255.86264 264.76258,261.42651 263.8844,267.2033 262.84857,272.74465 261.68611,278.96339 258.65933,284.69867 257.05838,290.8192 254.84689,299.27385 246.83503,309.31849 251.80723,316.50521 253.7356,319.29244 258.78452,319.56287 261.84739,318.11163 269.5592,314.45765 271.81828,304.00905 274.72717,295.98646 278.565,285.40188 280.28687,273.94664 280.39198,262.68825 280.43656,257.91358 279.82176,253.03415 278.25362,248.52412 276.25382,242.77265 273.29104,237.16331 269.18608,232.66577 267.0768,230.35477 264.42877,228.37323 261.49572,227.28373 258.58032,226.20078 255.12672,225.25865 252.21287,226.34577 250.74825,226.8922 248.94015,228.19599 248.99598,229.75822 Z"
       id="path29"
       inkscape:connector-curvature="0"
       sodipodi:nodetypes="aaaaaaaaaaaaaa" />
    <path
       style="fill:#000000;stroke:none;stroke-width:1px;stroke-linecap:butt;stroke-linejoin:miter;stroke-opacity:1;fill-opacity:1"
       d="M 205.30504,312.52536 C 209.84972,312.86791 213.78569,316.16043 218.30239,316.76939 220.14459,317.01776 222.04216,316.82753 223.87268,316.50414 230.89511,315.2635 237.36517,311.81207 244.29709,310.13809 261.39423,306.00932 280.07688,307.94653 296.28647,301.11953 298.09573,300.35752 299.23419,298.39016 301.06101,297.67125 302.38766,297.14917 303.88396,297.02627 305.30504,297.14075 315.95843,297.99894 326.47173,301.46651 336.07427,306.15931 338.52144,307.35525 341.13955,308.70528 342.70557,310.93385 344.18591,313.04049 345.34849,315.8394 344.82759,318.36091 344.57336,319.59157 343.52196,320.63898 342.44032,321.27868 340.35058,322.5146 337.70233,322.74494 335.27851,322.60494 331.6767,322.3969 328.40669,320.39896 324.93369,319.42191 320.80503,318.26041 316.66915,317.09649 312.46684,316.23889 310.18792,315.77381 307.89554,315.23285 305.57029,315.17788 296.32618,314.95934 287.13572,316.77318 277.98408,318.09565 269.2648,319.35564 260.55739,320.82015 251.98939,322.87019 244.72488,324.60835 237.29765,326.13133 230.50398,329.23624 228.11708,330.32712 225.9832,331.92046 223.87267,333.48027 220.79536,335.7546 218.29419,338.77124 215.11936,340.90733 213.21627,342.18776 211.3118,344.13896 209.01857,344.09035 206.36517,344.0341 203.86886,342.10962 202.12202,340.11157 199.66881,337.30556 198.40828,333.45601 197.87798,329.76674 197.27088,325.54316 197.66811,321.01555 199.20424,317.03465 199.79632,315.50026 200.72128,313.91775 202.12202,313.05587 203.03813,312.49218 204.23244,312.44451 205.30504,312.52536 Z"
       id="path31"
       inkscape:connector-curvature="0"
       sodipodi:nodetypes="aaaaaaaaaaaaaaaaaaaaaaaaaa" />
    <path
       style="fill:#000000;stroke:none;stroke-width:1px;stroke-linecap:butt;stroke-linejoin:miter;stroke-opacity:1;fill-opacity:1"
       d="M 145.25862,373.53332 C 149.95284,373.87201 154.80963,374.51217 159.05172,376.55056 162.5507,378.23188 165.91582,380.67128 168.10345,383.87814 171.58601,388.98325 173.11674,395.39897 173.7069,401.55056 174.30087,407.74192 172.12264,413.89151 171.55173,420.08504 170.97011,426.39481 171.98707,432.95434 170.25862,439.05056 169.41713,442.01847 168.97151,446.62646 165.94828,447.24022 163.94705,447.6465 162.30607,445.08189 161.2069,443.3609 158.41205,438.98493 158.05495,433.41583 157.32758,428.2747 156.64296,423.43572 157.75022,418.43156 156.89655,413.61953 156.02354,408.69852 154.30311,403.90814 152.15517,399.39539 150.54496,396.01238 148.3416,392.9301 146.12069,389.91263 144.67033,387.94209 142.97079,386.16761 141.37931,384.30918 139.52428,382.14299 135.75796,380.69553 135.77586,377.84366 135.78672,376.11358 137.67213,374.72891 139.22414,373.96435 141.03316,373.07318 143.24723,373.3882 145.25862,373.53332 Z"
       id="path33"
       inkscape:connector-curvature="0"
       sodipodi:nodetypes="aaaaaaaaaaaaaaaa" />
    <path
       style="fill:#000000;stroke:none;stroke-width:1px;stroke-linecap:butt;stroke-linejoin:miter;stroke-opacity:1;fill-opacity:1"
       d="M 108.62069,423.53332 C 110.84907,421.40003 113.74182,419.54044 116.81034,419.22298 119.93166,418.90006 123.64318,419.59029 125.86207,421.80918 127.34133,423.28844 127.74122,425.75743 127.58621,427.84366 127.45757,429.57496 126.58682,431.28963 125.43103,432.58504 123.75777,434.46042 121.25718,435.43229 118.96552,436.46435 116.35525,437.6399 113.59794,439.53154 110.77587,439.05057 108.65133,438.68848 106.56727,437.0989 105.60345,435.17125 104.63963,433.2436 105.04099,430.78621 105.60345,428.70573 106.12438,426.77886 107.17885,424.91363 108.62069,423.53332 Z"
       id="path35"
       inkscape:connector-curvature="0"
       sodipodi:nodetypes="aaaaaaaaaa" />
    <path
       style="fill:#000000;stroke:none;stroke-width:1px;stroke-linecap:butt;stroke-linejoin:miter;stroke-opacity:1;fill-opacity:1"
       d="M 218.96552,349.82642 C 223.14851,351.51058 227.37742,353.57234 230.60345,356.72298 232.54288,358.61709 234.10745,361.03131 234.91379,363.61952 235.85495,366.6405 235.78956,369.96951 235.34483,373.10229 234.54428,378.74149 231.96216,383.99233 229.84888,389.28152 228.00122,393.90589 225.90601,398.43864 223.58344,402.84367 221.78902,406.247 219.94301,409.6515 217.67241,412.75746 213.70792,418.1805 209.22836,423.26768 204.31035,427.84367 202.05923,429.93822 199.93993,432.6046 196.98276,433.44711 196.2241,433.66326 195.0362,433.89088 194.6275,433.21616 194.18031,432.47791 195.28261,431.61895 195.59707,430.81514 197.5502,425.82262 199.56064,420.84801 201.2931,415.7747 204.1572,407.3875 206.9888,398.96297 209.05172,390.34366 210.4959,384.30957 211.52492,378.17004 212.26905,372.01032 212.85995,367.119 212.98433,362.18203 213.25457,357.26256 213.3853,354.88278 212.34609,352.16888 213.56215,350.11909 213.93212,349.49547 214.70837,349.10801 215.42465,348.99522 216.62227,348.80664 217.84088,349.37362 218.96552,349.82642 Z"
       id="path37"
       inkscape:connector-curvature="0"
       sodipodi:nodetypes="aaaaaaaaaaaaaaaaaa" />
    <path
       style="fill:#000000;stroke:none;stroke-width:1px;stroke-linecap:butt;stroke-linejoin:miter;stroke-opacity:1;fill-opacity:1"
       d="M 230.25591,377.45701 C 235.41894,374.56939 241.33034,373.15155 247.11517,371.91424 250.74817,371.13718 254.48769,370.88595 258.20071,370.75949 260.35636,370.68607 262.53734,370.65049 264.66728,370.99044 268.78154,371.64709 273.18809,372.17684 276.67661,374.45468 278.69037,375.76957 281.19108,377.5947 281.29559,379.99745 281.38932,382.15231 279.31354,383.99879 277.60041,385.30927 275.78246,386.69994 273.38511,387.20558 271.13385,387.61875 267.34718,388.31372 263.43441,387.97123 259.58641,387.8497 255.88027,387.73265 252.18432,387.35179 248.50087,386.92591 244.32623,386.44324 240.08671,386.17408 236.02963,385.07832 233.22806,384.32165 229.976,383.91921 227.94643,381.84504 227.48642,381.37492 227.08774,380.63394 227.25358,379.99744 227.58412,378.72883 229.11173,378.09693 230.25591,377.45701 Z"
       id="path39"
       inkscape:connector-curvature="0"
       sodipodi:nodetypes="aaaaaaaaaaaaaa" />
    <path
       style="fill:#000000;stroke:none;stroke-width:1px;stroke-linecap:butt;stroke-linejoin:miter;stroke-opacity:1;fill-opacity:1"
       d="M 117.44187,471.72566 C 126.64574,474.34382 134.95582,480.79306 140.86957,488.31593 144.44022,492.85814 146.08072,498.7712 147.26324,504.42654 148.51348,510.40576 149.67456,516.8978 147.8946,522.74125 147.0181,525.61871 145.58127,529.59474 142.6087,530.05506 141.42078,530.23901 140.3532,528.92436 139.71123,527.90806 137.17162,523.88758 138.85596,518.27205 136.96549,513.90856 135.48435,510.48987 133.20875,507.32491 130.43478,504.83767 127.93537,502.59661 124.42885,501.78993 121.67061,499.87641 118.49517,497.67346 115.11602,495.50998 112.78734,492.42556 110.19542,488.99248 107.81202,484.93651 107.51937,480.64483 107.31955,477.71456 107.69652,474.02085 109.99102,472.18737 111.93499,470.63398 115.04844,471.04482 117.44187,471.72566 Z"
       id="path41"
       inkscape:connector-curvature="0"
       sodipodi:nodetypes="aaaaaaaaaaaaa" />
    <path
       style="fill:#000000;stroke:none;stroke-width:1px;stroke-linecap:butt;stroke-linejoin:miter;stroke-opacity:1;fill-opacity:1"
       d="M 159.28705,462.27628 C 161.17668,462.08818 162.82909,463.94526 164.72795,463.96484 169.02293,464.00913 172.95904,461.5013 177.11069,460.40011 190.17393,456.93518 203.48174,454.42472 216.51032,450.83163 222.6316,449.14347 229.76848,449.19175 234.70919,445.20311 236.49579,443.76079 236.47279,440.83301 238.0863,439.19936 240.01595,437.24562 242.52561,435.62294 245.21576,435.07178 247.25235,434.65452 249.63668,434.73261 251.40713,435.82225 253.90355,437.35869 255.55816,440.29957 256.28518,443.13932 257.00137,445.93675 256.30505,448.98671 255.53471,451.76972 254.81095,454.38447 253.63187,456.9423 251.96998,459.08679 250.61125,460.84009 248.64081,462.02184 246.90432,463.40199 245.25927,464.70946 243.3519,465.69634 241.83865,467.15433 240.68515,468.2657 239.6043,469.50076 238.83677,470.90668 236.15881,475.81197 235.24391,481.49098 233.4882,486.79672 231.93239,491.49839 231.43623,496.67591 228.89306,500.92544 227.8255,502.70929 226.50527,504.64921 224.57786,505.42825 223.06921,506.03803 221.00135,506.21729 219.69981,505.24064 218.11797,504.05366 217.85619,501.58951 217.82364,499.61212 217.63574,488.19638 225.76568,478.05134 227.57974,466.7791 227.9078,464.74059 228.83932,462.35239 227.76735,460.58773 226.79436,458.98601 224.56879,458.31026 222.70168,458.1487 218.81615,457.81249 215.1514,460.1256 211.44465,461.33819 203.26335,464.01455 195.18092,467.01662 187.24202,470.34383 183.29411,471.99841 179.80838,474.9509 175.60976,475.78472 172.90796,476.32128 170.04042,476.02102 167.3546,475.40949 164.23992,474.70031 160.98315,473.71105 158.53659,471.65715 157.39404,470.69797 156.34362,469.37616 156.09756,467.9048 155.84238,466.37886 156.27688,464.6259 157.22326,463.40199 157.7026,462.78208 158.50729,462.3539 159.28705,462.27628 Z"
       id="path43"
       inkscape:connector-curvature="0"
       sodipodi:nodetypes="aaaaaaaaaaaaaaaaaaaaaaaaaaaaaa" />
    <path
       style="fill:#000000;stroke:none;stroke-width:1px;stroke-linecap:butt;stroke-linejoin:miter;stroke-opacity:1;fill-opacity:1"
       d="M 132.6454,525.31568 C 144.51563,521.33321 156.42588,517.44293 168.4803,514.05865 183.49257,509.84396 198.49887,505.33927 213.88368,502.80161 220.50946,501.70871 227.27692,500.44304 233.95872,501.11305 238.62575,501.58103 243.95592,501.94315 247.46717,505.05302 248.5368,506.00038 249.11333,507.56476 249.15572,508.99298 249.20501,510.65395 248.65607,512.52248 247.46717,513.68341 246.1937,514.92692 244.18128,515.39235 242.4015,515.37197 239.81026,515.3423 237.64204,513.1625 235.08443,512.74532 232.18277,512.27203 229.19681,512.69542 226.26641,512.93294 220.03388,513.43812 213.82399,514.33399 207.69231,515.55959 191.34538,518.82702 174.75067,521.90302 159.28705,528.12995 155.49489,529.65699 152.09916,532.03174 148.59287,534.1337 146.30141,535.50739 144.29824,537.4057 141.83865,538.44889 140.59578,538.97603 139.24464,539.49189 137.89869,539.38698 135.27036,539.18212 132.88364,537.66991 130.58161,536.3851 129.09607,535.55599 127.31512,534.85046 126.45403,533.38323 125.657,532.02514 125.19375,530.10462 125.89118,528.69279 126.59899,527.25997 128.57175,526.93211 130.01876,526.25377 130.86056,525.85914 131.76397,525.6114 132.6454,525.31568 Z"
       id="path45"
       inkscape:connector-curvature="0"
       sodipodi:nodetypes="aaaaaaaaaaaaaaaaaaaa" />
    <path
       style="fill:#000000;stroke:none;stroke-width:1px;stroke-linecap:butt;stroke-linejoin:miter;stroke-opacity:1;fill-opacity:1"
       d="M 49.34334,574.09617 C 52.950275,573.70759 56.630082,574.39489 60.225141,573.90855 66.944166,572.99959 73.349033,570.49479 79.924953,568.84289 96.474881,564.68547 112.96101,560.23632 129.64353,556.64777 149.1063,552.46117 168.73983,549.09357 188.36773,545.76597 202.96575,543.29111 217.83391,542.30134 232.27017,539.01174 235.20209,538.34364 238.41151,538.07246 240.90056,536.3851 241.89494,535.711 242.0042,533.92558 243.15197,533.57084 245.40116,532.87569 247.74777,534.69479 249.90619,535.63463 256.20045,538.37534 262.31636,541.7318 267.72983,545.95358 270.1362,547.83023 272.96147,549.69247 274.10882,552.52019 274.64963,553.85305 274.767,555.5564 274.10882,556.83538 273.61648,557.79209 272.54301,558.53172 271.48218,558.71156 267.30661,559.41945 263.2694,556.58813 259.28705,555.14683 254.8625,553.54549 250.90168,550.6782 246.34146,549.51831 244.27274,548.99213 242.09703,548.96861 239.96248,548.95546 226.7291,548.87392 213.53819,550.59144 200.37523,551.95734 188.9559,553.1423 177.50075,554.28058 166.22889,556.46015 151.14292,559.37723 136.0436,562.7295 121.57598,567.9048 113.90984,570.6471 106.4644,574.11187 99.437148,578.22375 91.662689,582.77285 83.954497,587.71509 77.485929,593.9836 75.788202,595.62882 75.22973,598.45042 73.170731,599.61212 71.691052,600.44697 69.793893,600.36012 68.105066,600.17497 65.411738,599.87969 62.791776,598.84505 60.412758,597.54833 57.402611,595.9076 54.832919,593.52822 52.345216,591.16934 49.805084,588.76075 47.10863,586.34649 45.403377,583.28942 44.670936,581.97634 44.205372,580.47333 44.090056,578.97422 43.988307,577.65147 43.741212,575.99801 44.652908,575.03426 45.748632,573.87597 47.758073,574.26695 49.34334,574.09617 Z"
       id="path47"
       inkscape:connector-curvature="0"
       sodipodi:nodetypes="aaaaaaaaaaaaaaaaaaaaaaaaaaaaa" />
    <path
       style="fill:#000000;stroke:none;stroke-width:1px;stroke-linecap:butt;stroke-linejoin:miter;stroke-opacity:1;fill-opacity:1"
       d="M 189.65517,486.46435 C 194.00445,488.48054 195.12774,494.45954 196.76724,498.96435 199.09001,505.34655 199.93517,512.23385 200.43103,519.00746 201.43261,532.6893 200.86009,546.54562 199.0053,560.1381 196.58587,577.86838 192.84563,595.62436 186.42241,612.32642 182.6954,622.01763 177.70976,631.33716 171.55172,639.69711 169.29198,642.76486 166.70302,645.70751 163.57759,647.88677 161.34951,649.44034 158.85004,651.2303 156.13395,651.20241 153.87461,651.17922 151.67574,649.8334 150,648.3178 147.49634,646.05341 145.54239,642.92265 144.79443,639.6308 143.56839,634.23491 144.88076,628.44087 146.33621,623.10229 147.35121,619.37926 148.83634,615.62771 151.25995,612.62483 152.40393,611.20743 153.80684,609.00928 155.60345,609.30918 156.62539,609.47977 156.87691,610.96247 157.32759,611.89539 157.71908,612.70579 157.83053,613.62612 158.1565,614.46502 158.41622,615.13345 158.40221,616.11731 159.05172,616.42125 159.7936,616.76842 160.7022,616.16484 161.42241,615.7747 162.94367,614.95064 164.07834,613.5498 165.30172,612.32642 167.13678,610.49136 169.07686,608.69436 170.47414,606.50746 175.02992,599.37715 177.80896,591.2183 180.60345,583.2316 183.5271,574.87577 185.70638,566.25398 187.5,557.58504 188.7832,551.38303 189.63701,545.08874 190.25199,538.78531 190.75431,533.63662 191.33227,528.44802 191.01459,523.28465 190.59438,516.45471 188.84173,509.7692 187.5,503.05918 186.73454,499.23112 184.8052,495.5391 184.91379,491.63677 184.95743,490.06839 185.04711,488.16761 186.2069,487.11091 187.07135,486.32329 188.59417,485.97251 189.65517,486.46435 Z"
       id="path49"
       inkscape:connector-curvature="0"
       sodipodi:nodetypes="aaaaaaaaaaaaaaaaaaaaaaaaaaa" />
    <path
       style="fill:#000000;stroke:none;stroke-width:1px;stroke-linecap:butt;stroke-linejoin:miter;stroke-opacity:1;fill-opacity:1"
       d="M 301.9802,407.19669 C 307.8476,410.13152 313.03479,414.5864 317.25137,419.61235 318.40808,420.99109 319.45808,422.57964 319.87734,424.32982 322.1577,433.84919 319.33451,443.9026 318.77063,453.67503 318.04493,466.25203 317.22026,478.83285 315.84158,491.3551 312.29167,523.59807 310.05632,556.24704 302.09498,587.69268 298.84499,600.52948 294.27454,613.12639 288.31661,624.95217 285.82071,629.90621 283.27852,635.11125 279.20792,638.87985 278.08426,639.92014 276.69481,641.32314 275.18123,641.091 273.71963,640.86683 272.97587,639.08836 272.11147,637.88864 268.15616,632.39897 265.31197,626.14981 262.65808,619.92583 261.51787,617.25178 259.0019,614.41659 259.90099,611.65213 260.34003,610.3022 261.94734,609.13821 263.36634,609.17688 264.42257,609.20567 264.84452,610.80733 265.84158,611.15708 267.55444,611.75792 269.6468,611.9344 271.28713,611.15708 273.40653,610.15274 274.5247,607.71587 275.74257,605.71154 282.33458,594.8626 287.49318,582.98594 290.79297,570.72766 299.60927,537.97631 300.55032,503.53644 302.93715,469.7033 303.52097,461.42772 303.98706,453.10018 303.46535,444.82045 303.18211,440.32529 302.42959,435.85806 301.48515,431.45411 299.83114,423.7414 292.71603,416.21685 295.0495,408.68183 295.43076,407.45069 296.76343,406.49398 298.0198,406.20659 299.3463,405.90316 300.76319,406.58795 301.9802,407.19669 Z"
       id="path51"
       inkscape:connector-curvature="0"
       sodipodi:nodetypes="aaaaaaaaaaaaaaaaaaaaaaa" />
    <path
       style="fill:#000000;stroke:none;stroke-width:1px;stroke-linecap:butt;stroke-linejoin:miter;stroke-opacity:1;fill-opacity:1"
       d="M 308.33333,377.23702 C 311.60658,377.28815 314.79463,378.91414 318.05556,378.62591 323.95142,378.10478 329.27453,374.84639 334.92064,373.07036 347.80816,369.01648 361.27651,366.63585 373.74339,361.43015 377.26658,359.959 380.13585,357.02624 383.7963,355.94073 385.72536,355.36866 387.88569,354.90589 389.81481,355.47776 399.44936,358.33386 406.82336,366.52382 413.75662,373.79787 419.15725,379.46396 424.88427,385.60743 427.1164,393.11004 428.05344,396.25962 427.91144,399.85404 426.85185,402.96454 425.81387,406.01159 422.55292,407.86482 421.16402,410.76877 414.82104,424.03084 411.64572,438.78686 409.72222,453.36136 409.10493,458.03862 409.70809,462.79701 409.72222,467.5148 409.79938,493.28675 409.37262,519.07036 410.18519,544.82962 410.69691,561.05169 411.4691,577.27949 412.96296,593.44073 413.91512,603.74158 416.2903,613.89736 416.90188,624.22403 417.40774,632.76552 417.89653,641.424 416.67199,649.89238 415.86813,655.45149 415.09555,661.37968 412.04342,666.09502 411.38401,667.11376 410.47279,668.43746 409.25926,668.44073 408.05398,668.44398 407.1715,667.11414 406.48148,666.12591 405.1681,664.24491 404.79517,661.8508 404.16667,659.64443 399.78977,644.27918 397.08309,628.48001 394.08198,612.78793 392.60961,605.08924 390.98836,597.39454 390.19773,589.5963 390.10994,588.73041 389.99676,587.85079 390.1034,586.98702 390.15228,586.59109 390.04216,585.89952 390.43623,585.83742 391.59134,585.65539 391.23873,588.87382 392.40084,588.7438 395.30462,588.41892 394.99604,583.43853 395.58353,580.5763 397.94959,569.04885 396.58295,557.05903 396.75926,545.29258 397.45057,499.15552 394.97711,452.99002 396.2963,406.86665 396.44216,401.7668 397.06783,396.68848 397.22222,391.58888 397.31095,388.65812 397.85726,385.65508 397.22222,382.79258 396.66896,380.29874 396.21271,377.09189 393.98148,375.84813 391.67419,374.56198 388.69016,376.20282 386.11111,376.77406 369.76851,380.3938 352.88233,384.07705 338.42593,392.5148 336.44458,393.67125 335.25479,395.89098 333.33333,397.14443 332.06036,397.97484 330.67796,398.83485 329.16667,398.99628 325.40485,399.39811 321.3125,398.60635 318.05556,396.68147 316.83071,395.95757 316.21052,394.5151 315.27778,393.44073 313.04531,390.86925 310.4786,388.56273 308.53174,385.76877 306.78351,383.25985 302.74882,380.40937 304.16667,377.69999 304.8146,376.46185 306.93607,377.21519 308.33333,377.23702 Z"
       id="path53"
       inkscape:connector-curvature="0"
       sodipodi:nodetypes="aaaaaaaaaaaaaaaaaaaaaaaaaaaaaaaaaaaaaaaa" />
    <path
       style="fill:#000000;stroke:none;stroke-width:1px;stroke-linecap:butt;stroke-linejoin:miter;stroke-opacity:1;fill-opacity:1"
       d="M 314.60674,455.93032 C 319.49057,452.68758 325.03322,450.56239 330.33708,448.06516 336.75938,445.04132 343.12372,441.8272 349.81273,439.45092 352.49536,438.49791 355.2147,436.97569 358.05243,437.20373 361.05973,437.4454 364.11967,438.85557 366.29213,440.94905 368.10127,442.69242 369.66292,445.17818 369.66292,447.69062 369.66292,450.76137 367.62359,453.67178 365.54307,455.93032 362.77234,458.93812 358.78676,460.62208 355.05618,462.29736 348.86002,465.07985 342.10684,466.40792 335.58052,468.28987 332.35061,469.22126 329.20394,470.86766 325.8427,470.9116 322.11856,470.96029 318.06839,470.37344 314.98127,468.28987 312.31076,466.48748 308.97454,463.62301 309.3633,460.42471 309.64107,458.13952 312.68897,457.20367 314.60674,455.93032 Z"
       id="path55"
       inkscape:connector-curvature="0"
       sodipodi:nodetypes="aaaaaaaaaaaaa" />
    <path
       style="fill:#000000;stroke:none;stroke-width:1px;stroke-linecap:butt;stroke-linejoin:miter;stroke-opacity:1;fill-opacity:1"
       d="M 310.11236,513.60823 C 314.26113,513.50679 317.67436,517.19033 321.72285,518.10261 325.02019,518.84563 328.4811,519.2694 331.83521,518.85167 334.96932,518.46134 337.75163,516.58738 340.82397,515.85542 344.99751,514.86111 349.26785,514.01775 353.55806,513.98276 356.45369,513.95914 359.49819,513.99527 362.17228,515.10635 365.37763,516.43817 369.23903,518.20656 370.41199,521.47339 371.3638,524.1243 369.94293,527.27113 368.53932,529.7131 367.26281,531.93396 365.17186,533.73305 362.92135,534.95654 357.94676,537.66097 352.04215,538.24084 346.44195,539.07639 341.62001,539.79583 336.70332,540.09024 331.8352,539.82545 327.92081,539.61255 323.93384,539.22173 320.22472,537.9528 315.7845,536.43375 310.83413,534.84555 307.86517,531.21123 304.64232,527.26611 301.2609,521.24119 303.37079,516.60448 304.38931,514.36618 307.65396,513.66834 310.11236,513.60823 Z"
       id="path57"
       inkscape:connector-curvature="0"
       sodipodi:nodetypes="aaaaaaaaaaaaaaa" />
  </g>
</svg>
