<?xml version="1.0" encoding="UTF-8" standalone="no"?>
<!-- Created with Inkscape (http://www.inkscape.org/) -->

<svg
 xmlns:dc="http://purl.org/dc/elements/1.1/"
 xmlns:cc="http://creativecommons.org/ns#"
 xmlns:rdf="http://www.w3.org/1999/02/22-rdf-syntax-ns#"
 xmlns:svg="http://www.w3.org/2000/svg"
 xmlns="http://www.w3.org/2000/svg"
 xmlns:sodipodi="http://sodipodi.sourceforge.net/DTD/sodipodi-0.dtd"
 xmlns:inkscape="http://www.inkscape.org/namespaces/inkscape"
 width="620"
 height="595"
 viewBox="0 0 620 595"
 version="1.1"
 id="svg8"
 inkscape:version="0.92.4 (5da689c313, 2019-01-14)"
 sodipodi:docname="魏2.svg">
<defs
 id="defs2" />
<sodipodi:namedview
 id="base"
 pagecolor="#ffffff"
 bordercolor="#666666"
 borderopacity="1.0"
 inkscape:pageopacity="0.0"
 inkscape:pageshadow="2"
 inkscape:zoom="1.32"
 inkscape:cx="257.19337"
 inkscape:cy="310.54277"
 inkscape:document-units="px"
 inkscape:current-layer="layer1"
 showgrid="false"
 units="px"
 inkscape:window-width="1920"
 inkscape:window-height="1001"
 inkscape:window-x="-9"
 inkscape:window-y="-9"
 inkscape:window-maximized="1">
<inkscape:grid
 type="xygrid"
 id="grid7" />
</sodipodi:namedview>
<metadata
 id="metadata5">
<rdf:RDF>
<cc:Work
 rdf:about="">
<dc:format>image/svg+xml</dc:format>
<dc:type
 rdf:resource="http://purl.org/dc/dcmitype/StillImage" />
<dc:title></dc:title>
</cc:Work>
</rdf:RDF>
</metadata>
<g
 inkscape:label="圖層 1"
 inkscape:groupmode="layer"
 id="layer1"
 transform="translate(0,-78.53332)">
<path
 style="fill:#000000;stroke:none;stroke-width:1px;stroke-linecap:butt;stroke-linejoin:miter;stroke-opacity:1;fill-opacity:1"
 d="M 210.06636,191.78481 C 208.58123,196.2231 206.0646,200.42203 202.86561,203.83823 195.34521,211.86924 185.51917,217.62266 175.70113,222.58849 165.72373,227.63491 154.87275,230.95132 143.99396,233.53332 137.74024,235.0176 127.6713,236.95087 119.38381,237.66451 114.21274,238.10979 108.99882,237.97339 103.81343,237.74989 103.17518,237.72238 102.19574,237.00569 101.90494,237.57451 101.28419,238.78876 103.45998,239.90043 104.59416,240.65765 108.40978,243.2051 113.1002,244.39153 117.64242,245.03703 130.74049,246.89842 144.3001,245.8603 157.2973,243.39107 167.42863,241.46631 176.9546,237.08959 186.52524,233.24882 203.53598,226.42229 220.23138,218.75919 236.52456,210.3628 238.58836,209.29926 241.86204,209.10147 242.5607,206.88736 244.80349,199.77978 237.87527,192.34942 233.09654,186.63002 227.16313,179.52864 218.55535,166.15831 210.43417,170.59469 206.7623,172.60053 211.12861,178.9521 210.99819,183.13409 210.90778,186.03293 210.98668,189.03445 210.06636,191.78481 Z"
 id="path20"
 inkscape:connector-curvature="0"
 sodipodi:nodetypes="aaasaaaaaaaaaaaaa" />
<path
 style="fill:#000000;stroke:none;stroke-width:1px;stroke-linecap:butt;stroke-linejoin:miter;stroke-opacity:1;fill-opacity:1"
 d="M 12.35902,313.85597 C 13.541894,313.37007 14.888105,314.36164 16.166407,314.32652 19.900302,314.22394 23.569759,313.24171 27.195467,312.34352 70.763934,301.55044 112.42276,284.07942 155.52408,271.55032 182.53255,263.69924 209.51088,255.43893 237.11048,250.02057 241.40894,249.17669 245.76769,248.56047 250.14165,248.32085 254.72117,248.06996 259.40201,247.69324 263.89799,248.59937 274.19848,250.67533 285.52677,253.04156 293.20113,260.21887 294.80527,261.71911 295.87388,263.97737 296.03399,266.16788 296.12762,267.44883 295.81569,268.94912 294.90085,269.8506 293.21934,271.50756 290.46017,271.72433 288.10198,271.8336 285.12356,271.97161 282.23314,270.76971 279.32011,270.13389 272.29405,268.60033 265.48351,265.99874 258.35694,265.03474 255.2675,264.61684 252.11981,264.55381 249.0085,264.75145 230.11959,265.95131 211.38968,269.4706 192.92739,273.63889 174.29305,277.84603 156.00246,283.57976 137.96034,289.85834 118.85722,296.50614 100.02341,304.01835 81.672874,312.52601 70.269965,317.81261 59.597256,324.56467 48.322034,330.1184 43.671851,332.40889 39.347657,336.11915 34.186375,336.60055 30.438894,336.95008 26.550877,335.64357 23.229462,333.87326 18.509658,331.35761 13.913283,327.79231 11.331445,323.10839 10.267277,321.1778 9.657061,318.72979 10.1983,316.59281 10.483674,315.46606 11.283872,314.29762 12.35902,313.85597 Z"
 id="path22"
 inkscape:connector-curvature="0"
 sodipodi:nodetypes="aaaaaaaaaaaaaaaaaaaaaaa" />
<path
 style="fill:#000000;stroke:none;stroke-width:1px;stroke-linecap:butt;stroke-linejoin:miter;stroke-opacity:1;fill-opacity:1"
 d="M 153.7035,240.6642 C 155.23754,244.57866 160.3194,245.9954 162.8377,249.36207 165.11385,252.40503 166.97336,255.85715 168.04724,259.50232 171.83095,272.34574 171.78779,286.0879 171.99377,299.47549 172.10062,306.42077 171.02504,313.33398 170.58531,320.26615 169.96562,330.03532 168.01111,339.82875 168.85207,349.58137 169.46856,356.73083 170.59676,364.10713 173.78277,370.53707 174.93705,372.86662 176.14359,376.66121 178.74136,376.55745 180.98648,376.46779 181.69702,373.08742 182.59821,371.02915 185.58383,364.21016 186.38167,356.59275 187.38969,349.21736 189.16531,336.22573 189.24136,323.04885 189.56887,309.94053 189.82367,299.74228 190.68167,289.45749 189.40158,279.33668 188.39213,271.35565 186.60354,263.36076 183.5206,255.93032 180.73085,249.2065 177.5181,242.2637 172.28464,237.20373 169.14064,234.16396 165.184,230.68063 160.81357,230.83669 158.12099,230.93284 155.40102,232.92578 154.04412,235.25345 153.134,236.8147 153.04412,238.98164 153.7035,240.6642 Z"
 id="path24"
 inkscape:connector-curvature="0"
 sodipodi:nodetypes="aaaaaaaaaaaaaaaaa" />
<path
 style="fill:#000000;stroke:none;stroke-width:1px;stroke-linecap:butt;stroke-linejoin:miter;stroke-opacity:1;fill-opacity:1"
 d="M 133.09983,316.61563 C 137.10932,321.67147 141.19366,327.26098 142.38178,333.60337 142.88041,336.26516 142.22265,339.10232 141.331,341.65941 137.67536,352.1432 130.83551,361.32778 124.16813,370.20582 120.29829,375.35877 115.92444,380.19563 111.03327,384.39146 109.05473,386.08873 107.09267,388.18028 104.55341,388.76975 102.48662,389.24954 99.793284,389.34875 98.248687,387.89409 95.517418,385.32186 95.304336,380.53841 96.035052,376.85843 98.115471,366.38117 108.39239,359.40465 113.8637,350.23046 118.59485,342.29734 123.58434,334.38324 126.7951,325.72246 127.49752,323.82774 127.66221,321.77469 128.14477,319.81242 128.65302,317.74569 127.73385,314.25021 129.77233,313.6384 131.19784,313.21056 132.17503,315.44949 133.09983,316.61563 Z"
 id="path28"
 inkscape:connector-curvature="0"
 sodipodi:nodetypes="aaaaaaaaaaaaa" />
<path
 style="fill:#000000;stroke:none;stroke-width:1px;stroke-linecap:butt;stroke-linejoin:miter;stroke-opacity:1;fill-opacity:1"
 d="M 218.31683,313.26104 C 220.00426,312.37727 222.17482,313.24526 224.0099,313.7561 231.22618,315.76491 238.73225,318.51923 244.18317,323.65708 249.11694,328.30749 252.30832,334.84665 254.20792,341.3551 255.30749,345.12248 255.579,349.26073 254.82673,353.11252 254.54726,354.54346 254.24473,356.36476 252.9703,357.07292 250.82779,358.26345 247.98242,357.01447 245.66832,356.20659 243.14987,355.32736 240.87584,353.74728 238.86139,351.99867 236.91481,350.30898 235.4349,348.13693 233.91089,346.05808 228.89732,339.21926 223.99036,332.21919 220.17327,324.64719 218.76266,321.84894 216.58789,318.98424 216.83168,315.86005 216.90931,314.86527 217.43292,313.72398 218.31683,313.26104 Z"
 id="path30"
 inkscape:connector-curvature="0"
 sodipodi:nodetypes="aaaaaaaaaaaa" />
<path
 style="fill:none;stroke:#000000;stroke-width:1px;stroke-linecap:butt;stroke-linejoin:miter;stroke-opacity:1"
 d="M 178.99622,462.87791 Z"
 id="path38"
 inkscape:connector-curvature="0" />
<path
 style="fill:#000000;stroke:none;stroke-width:1px;stroke-linecap:butt;stroke-linejoin:miter;stroke-opacity:1;fill-opacity:1"
 d="M 148.79518,381.56545 C 154.50792,384.27681 158.2214,390.20429 161.64638,395.51996 163.32012,398.11764 164.68805,401.02033 165.26064,404.05702 166.15385,408.79414 165.85469,413.7965 164.85944,418.51324 162.52289,429.58669 157.02633,439.79491 152.00905,449.93925 151.01171,451.95574 149.48005,453.69267 148.59458,455.76072 148.21086,456.65691 147.47126,457.65132 147.79015,458.57258 148.03317,459.27465 148.96742,459.48307 149.59678,459.87789 161.77471,467.5176 174.83776,473.64788 187.5502,480.36063 200.64012,487.27271 214.53508,492.76572 227.00611,500.74044 231.50757,503.61894 236.31342,506.41559 239.65854,510.58201 241.95464,513.44186 244.49106,516.85549 244.37751,520.52127 244.33253,521.97334 243.55166,523.65455 242.26817,524.33512 239.65559,525.72046 236.25438,524.41935 233.43303,523.53353 226.85484,521.46817 221.0189,517.37372 215.46185,513.29236 212.84651,511.37153 210.70444,508.87812 208.33222,506.66403 203.53802,502.1894 198.97957,497.45113 193.9759,493.21203 184.68591,485.34157 175.0189,477.8845 164.96014,471.02379 160.04773,467.67321 155.08379,464.30943 149.6995,461.78603 148.7695,461.35018 147.76183,460.45858 146.78675,460.7812 146.23362,460.96421 146.10042,461.72473 145.80048,462.22422 142.15158,468.30071 140.52859,475.66017 135.94337,481.06516 134.18105,483.14256 132.07958,485.41028 129.41636,485.98352 127.03552,486.49598 124.13474,485.96566 122.28916,484.37669 120.32985,482.6898 119.56672,479.73169 119.47791,477.14778 119.29244,471.75185 121.87046,466.50682 124.2982,461.68432 125.47158,459.3535 127.34556,457.44687 128.91404,455.36134 133.31625,449.50797 138.47932,444.19663 142.36948,437.99115 145.24724,433.40062 147.71933,428.51481 149.59759,423.43282 150.83009,420.09806 151.76911,416.61946 152.20742,413.09135 152.53751,410.4344 152.6399,407.70144 152.20742,405.05922 151.63145,401.54036 150.41446,398.09811 148.797,394.92038 147.64266,392.65251 145.72305,390.85526 144.37893,388.69446 143.63523,387.49891 142.4639,386.38392 142.36948,384.9791 142.28072,383.65852 142.66319,381.98467 143.77409,381.26515 145.18139,380.35367 147.28044,380.84653 148.79518,381.56545 Z"
 id="path40"
 inkscape:connector-curvature="0"
 sodipodi:nodetypes="aaaaaaaaaaaaaaaaaaaaaaaaaaaaaaaaaaaa" />
<path
 style="fill:#000000;stroke:none;stroke-width:1px;stroke-linecap:butt;stroke-linejoin:miter;stroke-opacity:1;fill-opacity:1"
 d="M 212.3364,379.7158 C 213.4165,380.19605 213.93559,381.56979 214.22858,382.71496 215.06208,385.97282 214.25738,389.4852 213.60462,392.78404 209.81679,411.92621 202.75103,430.41248 194.70046,448.1877 188.59666,461.66456 180.93087,474.45402 172.58065,486.66696 168.01764,493.34078 162.84785,499.61203 157.37327,505.56097 151.41373,512.0369 145.17553,518.33465 138.24885,523.76373 129.49556,530.62449 120.24655,537.09793 110.13825,541.73608 104.84436,544.16516 99.206647,546.27934 93.401794,546.75822 89.74632,547.05979 85.762582,547.01525 82.4866,545.36559 80.703905,544.46789 78.496274,543.03475 78.341014,541.04484 78.284329,540.31832 78.992109,539.666 79.591579,539.25166 83.136142,536.80171 88.039073,537.4544 92.123424,536.08171 97.435422,534.29643 102.72904,532.28858 107.60369,529.5241 116.20938,524.64371 124.13132,518.53864 131.56682,512.01258 140.61903,504.06755 148.9487,495.24224 156.49033,485.8513 165.40538,474.75016 173.46362,462.8822 180.32716,450.40802 189.34209,434.02378 196.19236,416.50364 202.8939,399.04508 205.00903,393.53484 206.20658,387.69206 208.44792,382.23194 208.73279,381.53796 208.84574,380.66395 209.447,380.21535 210.2304,379.63085 211.44328,379.31869 212.3364,379.7158 Z"
 id="path42"
 inkscape:connector-curvature="0"
 sodipodi:nodetypes="aaaaaaaaaaaaaaaaaaaaa" />
<path
 style="fill:#000000;stroke:none;stroke-width:1px;stroke-linecap:butt;stroke-linejoin:miter;stroke-opacity:1;fill-opacity:1"
 d="M 7.7091964,449.38397 C 13.241622,448.37777 18.729326,451.88633 24.344569,452.18501 28.466152,452.40424 32.65861,452.25409 36.70412,451.43594 45.953238,449.56544 54.523148,445.21739 63.406251,442.03377 77.778796,436.88279 91.923388,431.07943 106.43708,426.34072 125.01182,420.27607 143.97342,415.46743 162.74948,410.05812 172.54186,407.23697 182.79932,405.70952 192.13483,401.62321 195.88113,399.98339 198.55785,395.71304 202.62172,395.25617 210.46811,394.37406 218.31099,398.70455 225.09363,402.7468 227.44565,404.14853 230.25055,405.75736 231.08614,408.36478 231.47468,409.57721 231.30933,411.28811 230.33708,412.1101 227.18951,414.77122 222.09274,412.71661 217.97753,412.48463 212.21615,412.15985 206.60234,410.3692 200.84245,410.01888 199.52273,409.93862 198.18925,409.94333 196.87687,410.10388 187.97683,411.19266 179.32162,413.79325 170.638,416.02728 152.5635,420.6773 134.51578,425.55506 116.85393,431.58575 100.46518,437.18173 84.351525,443.62428 68.539326,450.68688 59.108409,454.89925 48.96527,458.18803 40.82397,464.54456 38.102288,466.66958 37.089804,470.71302 34.082397,472.40972 32.759602,473.15601 31.098011,473.32202 29.588015,473.15879 24.909135,472.65302 20.57117,470.24024 16.479401,467.91534 12.001262,465.37091 7.1878265,462.72814 4.2057839,458.5287 2.9933488,456.8213 1.502523,454.51675 2.247191,452.55954 2.9960995,450.59118 5.6371696,449.76081 7.7091964,449.38397 Z"
 id="path44"
 inkscape:connector-curvature="0"
 sodipodi:nodetypes="aaaaaaaaaaaaaaaaaaaaaaaa" />
<path
 style="fill:#000000;stroke:none;stroke-width:1px;stroke-linecap:butt;stroke-linejoin:miter;stroke-opacity:1;fill-opacity:1"
 d="M 312.23404,236.29928 C 317.21815,232.92206 323.77456,240.24676 329.78723,240.5546 333.71889,240.7559 337.60774,239.61573 341.48936,238.95885 370.56303,234.03873 399.89658,229.70529 428.19149,221.40566 431.47738,220.44183 434.34231,217.75039 437.76596,217.68226 443.76439,217.56289 449.93653,220.00258 454.78723,223.53332 459.08777,226.66361 462.04608,231.51062 464.3617,236.29928 465.87819,239.43535 467.24928,242.92964 467.02128,246.40566 466.74544,250.61112 464.41569,254.50191 462.23404,258.10779 459.95421,261.87595 456.00323,264.44601 453.7234,268.21417 449.36011,275.42593 446.6576,283.57142 444.14894,291.61843 437.50369,312.93437 434.16524,335.14963 429.78723,357.04396 427.24362,369.76452 427.12861,383.08758 422.87234,395.34183 421.88338,398.18915 420.54264,401.00165 418.61702,403.32055 417.89173,404.19397 417.06414,405.70148 415.95745,405.44821 411.55096,404.43979 411.50317,397.51336 410.10638,393.21417 407.98947,386.69848 405.95948,379.83926 406.38298,373.00141 406.81974,365.94937 410.69663,359.54437 412.76596,352.78864 416.23273,341.47067 419.78342,330.17296 422.87234,318.74608 426.32699,305.96625 429.6071,293.1271 432.29098,280.16348 434.5211,269.39164 437.87391,258.63226 437.83714,247.63204 437.82311,243.43537 438.60454,238.20423 435.6383,235.23545 432.78186,232.37657 427.74361,233.07142 423.70243,233.10778 419.62799,233.14444 415.64487,234.41548 411.70886,235.46918 396.32456,239.58769 381.3752,245.23337 366.48936,250.89471 359.83737,253.42457 352.71523,255.20175 346.80851,259.17162 343.89495,261.1298 342.48309,265.01211 339.3617,266.61843 337.44376,267.60544 335.12912,267.85098 332.97872,267.68226 330.18387,267.46297 327.30837,266.6135 325,265.02268 318.77511,260.73278 312.66873,254.75165 310.6383,247.46949 309.62812,243.84648 309.12033,238.40912 312.23404,236.29928 Z"
 id="path46"
 inkscape:connector-curvature="0"
 sodipodi:nodetypes="aaaaaaaaaaaaaaaaaaaaaaaaaaaaaaa" />
<path
 style="fill:#000000;stroke:none;stroke-width:1px;stroke-linecap:butt;stroke-linejoin:miter;stroke-opacity:1;fill-opacity:1"
 d="M 282.95903,280.19588 C 284.71939,277.22045 290.05516,278.77148 293.32606,279.89097 299.67926,282.0654 305.06196,287.17103 308.87661,292.69731 316.61826,303.91261 319.29903,318.06134 321.98785,331.42122 324.54104,344.10719 325.91398,357.25889 324.73207,370.14514 324.21421,375.79133 324.7487,382.89791 320.46329,386.61043 318.37639,388.41834 314.45946,389.15492 312.23065,387.52517 308.46556,384.77207 310.29459,378.39782 309.48643,373.80409 306.44048,356.49021 306.31525,338.58807 301.55869,321.66402 298.78541,311.79655 293.9864,302.60239 289.66711,293.30713 287.59835,288.8551 280.45931,284.42101 282.95903,280.19588 Z"
 id="path48"
 inkscape:connector-curvature="0"
 sodipodi:nodetypes="aaaaaaaaaaa" />
<path
 style="fill:#000000;stroke:none;stroke-width:1px;stroke-linecap:butt;stroke-linejoin:miter;stroke-opacity:1;fill-opacity:1"
 d="M 330.40153,320.90894 C 340.54646,314.10009 353.7667,313.7543 365.44929,310.17697 379.20315,305.96541 392.34454,298.25939 406.71088,297.54227 408.09781,297.47304 410.0682,297.17659 410.79596,298.35928 412.72122,301.48803 409.64345,305.77175 407.8547,308.9805 406.87881,310.7311 405.45396,312.30613 403.76962,313.39239 395.28724,318.86285 384.61875,319.77601 375.04331,322.96783 368.93203,325.00492 362.95868,327.51551 356.70946,329.07911 354.19031,329.70942 351.62031,330.56268 349.0295,330.38634 343.04842,329.97926 337.18191,327.77712 331.87216,324.99403 330.77206,324.41742 329.06973,323.94065 328.9309,322.70638 328.84437,321.9371 329.75875,321.34035 330.40153,320.90894 Z"
 id="path52"
 inkscape:connector-curvature="0"
 sodipodi:nodetypes="aaaaaaaaaaaa" />
<path
 style="fill:#000000;stroke:#000000;stroke-width:1px;stroke-linecap:butt;stroke-linejoin:miter;stroke-opacity:1;fill-opacity:1"
 d="M 359.14634,276.27722 C 364.38317,276.4065 369.66046,278.35147 374.08537,281.15527 376.21076,282.502 378.38617,284.28664 379.26829,286.64308 385.07252,302.14809 378.1208,319.73644 377.2603,336.26986 376.53192,350.26506 374.69423,364.21364 374.58999,378.22739 374.5691,381.03587 375.57856,383.89476 375,386.64308 374.48507,389.08914 373.16686,391.36636 371.64634,393.35039 370.15757,395.29299 367.79191,396.40574 366.15854,398.22844 350.68972,415.49026 339.59187,436.22245 325.91463,454.93576 311.05476,475.26716 294.69245,494.50716 280.4878,515.30161 277.81224,519.21842 275.7422,523.53143 273.00778,527.40738 270.03648,531.6191 267.27785,536.14936 263.34105,539.47634 257.32207,544.56296 250.52695,550.21534 242.68293,550.97234 240.68692,551.16497 238.59545,550.27202 236.96383,549.10628 234.18148,547.11837 232.00574,544.10852 230.79268,540.91137 229.88852,538.52836 229.17815,535.63177 230.18293,533.28942 233.43029,525.71918 243.30836,523.29624 249.39024,517.74064 260.37413,507.70722 270.39872,496.66124 280.4878,485.72844 296.06772,468.84562 311.34688,451.66273 325.91463,433.89917 335.659,422.01712 345.36241,410.04796 353.96341,397.31381 356.42781,393.66516 359.0758,390.04171 360.6865,385.94396 362.76829,380.64771 363.58463,374.9068 364.32927,369.26503 365.73172,358.63935 366.01519,347.86431 365.85366,337.1477 365.65601,324.03504 365.5587,310.74531 362.80488,297.92356 361.67083,292.64343 358.95556,287.82565 357.31707,282.67966 356.74107,280.87062 354.85462,278.84245 355.79268,277.19186 356.3652,276.18447 357.98798,276.24862 359.14634,276.27722 Z"
 id="path54"
 inkscape:connector-curvature="0"
 sodipodi:nodetypes="aaaaaaaaaaaaaaaaaaaaaaaaaaa" />
<path
 style="fill:#000000;stroke:none;stroke-width:1px;stroke-linecap:butt;stroke-linejoin:miter;stroke-opacity:1;fill-opacity:1"
 d="M 275,389.05056 C 276.8719,388.63762 278.68701,390.38597 280.60345,390.34366 283.28693,390.28441 285.78992,388.95569 288.36207,388.18849 308.52256,382.17521 328.2569,374.76689 348.49138,369.00746 368.65116,363.26929 388.52281,353.5507 409.48276,353.70573 412.82839,353.73048 416.95327,353.79575 419.18103,356.29194 420.48665,357.75488 420.62724,360.23911 420.0431,362.11091 419.13461,365.02201 416.63588,367.6881 413.7931,368.79194 409.4941,370.46122 404.60389,367.44584 400,367.71435 390.35143,368.27708 380.86233,370.72471 371.55172,373.3178 353.73115,378.28099 336.14578,384.43035 319.39655,392.28332 312.16751,395.67269 305.21975,399.73389 298.7069,404.35229 296.62843,405.82617 295.18063,408.19749 292.88793,409.30918 291.2399,410.10828 289.32904,410.48248 287.5,410.38677 282.91643,410.14693 278.05547,409.00518 274.35345,406.29194 272.73001,405.1021 271.50748,403.25559 270.90517,401.33504 270.28174,399.34717 270.44603,397.11715 270.90517,395.08504 271.27342,393.45519 272.01346,391.86151 273.06034,390.55918 273.57352,389.92078 274.20014,389.22701 275,389.05056 Z"
 id="path56"
 inkscape:connector-curvature="0"
 sodipodi:nodetypes="aaaaaaaaaaaaaaaaaaa" />
<path
 style="fill:#000000;stroke:none;stroke-width:1px;stroke-linecap:butt;stroke-linejoin:miter;stroke-opacity:1;fill-opacity:1"
 d="M 388.57143,403.81903 C 395.98171,403.04573 397.73611,415.78625 400.57143,422.67618 402.27756,426.82213 403.40545,431.33582 403.42857,435.81903 403.54996,459.35313 392.56381,481.67744 389.14286,504.96189 388.19783,511.39419 385.88722,518.07446 387.42857,524.39046 388.60616,529.21586 391.68265,533.7001 395.42857,536.96189 400.95674,541.77559 408.43872,543.89693 415.42857,546.10475 425.4034,549.25542 435.839,551.28036 446.28571,551.81903 477.20098,553.41312 508.92044,552.27011 538.85714,544.39046 544.54359,542.89373 550.61218,541.03083 554.85714,536.96189 561.01795,531.05655 563.7503,522.25788 566.61158,514.21788 568.81174,508.03559 567.57107,500.74394 570.65375,494.95097 571.21293,493.90016 571.98024,492.64579 573.14286,492.39046 575.73413,491.82138 578.62363,493.44633 580.57143,495.24761 587.38946,501.55275 587.3871,512.68572 592.57143,520.39046 597.46402,527.66162 603.5041,534.26772 610.28571,539.81903 612.00458,541.22607 614.64803,541.4851 616,543.24761 616.84399,544.34788 617.17298,545.86125 617.14286,547.24761 617.1036,549.0542 616.34996,550.836 615.42857,552.39046 613.57303,555.52089 611.21306,558.68198 608,560.39046 602.55297,563.28681 595.85145,562.61972 589.71429,563.24761 562.58519,566.02317 535.27071,567.26188 508,567.24761 485.11431,567.23563 462.12799,566.73307 439.42857,563.81903 430.16543,562.62987 420.93264,560.83016 412,558.10475 406.68844,556.48415 400.85686,555.3509 396.57143,551.81903 392.0053,548.05582 389.45791,542.27671 386.85714,536.96189 384.02418,531.17257 382.08155,524.94208 380.57143,518.67618 378.67802,510.8199 377.16506,502.75737 377.14286,494.67618 377.11592,484.87085 379.85857,475.25421 381.14286,465.53332 382.72722,453.54116 385.15903,441.61693 385.71429,429.53332 385.968,424.01205 384.25056,418.41648 385.14286,412.96189 385.66833,409.74973 385.33415,404.15686 388.57143,403.81903 Z"
 id="path58"
 inkscape:connector-curvature="0"
 sodipodi:nodetypes="aaaaaaaaaaaaaaaaaaaaaaaaaaaaaaaa" />
</g>
</svg>
