
<svg version="1.1" baseProfile="full" xmlns="http://www.w3.org/2000/svg" width="512" height="512" viewBox="0,0,512,512">

  <rect width="512" height="512" stroke="red" fill="white"></rect>

  <text x="2" y="12" font-size="12" text-anchor="start" fill="red">0</text>
  <path d="M256  64 H0 H512" stroke="lightgray" fill="white"></path>
  <text x="2" y="64" font-size="12" text-anchor="start" fill="red">64</text>
  <path d="M256 128 H0 H512" stroke="lightgray" fill="white"></path>
  <text x="2" y="128" font-size="12" text-anchor="start" fill="red">128</text>
  <path d="M256 192 H0 H512" stroke="lightgray" fill="white"></path>
  <text x="2" y="192" font-size="12" text-anchor="start" fill="red">192</text>
  <path d="M256 256 H0 H512" stroke="lightgray" fill="white"></path>
  <text x="2" y="256" font-size="12" text-anchor="start" fill="red">256</text>
  <path d="M256 320 H0 H512" stroke="lightgray" fill="white"></path>
  <text x="2" y="320" font-size="12" text-anchor="start" fill="red">320</text>
  <path d="M256 384 H0 H512" stroke="lightgray" fill="white"></path>
  <text x="2" y="384" font-size="12" text-anchor="start" fill="red">384</text>
  <path d="M256 448 H0 H512" stroke="lightgray" fill="white"></path>
  <text x="2" y="448" font-size="12" text-anchor="start" fill="red">448</text>
  <text x="2" y="512" font-size="12" text-anchor="start" fill="red">512</text>

  <path d="M64  0 V512" stroke="lightgray" fill="white"></path>
  <text x="64" y="12" font-size="12" text-anchor="start" fill="red">64</text>
  <path d="M128  0 V512" stroke="lightgray" fill="white"></path>
  <text x="128" y="12" font-size="12" text-anchor="start" fill="red">128</text>
  <path d="M195  0 V512" stroke="lightgray" fill="white"></path>
  <text x="192" y="12" font-size="12" text-anchor="start" fill="red">192</text>
  <path d="M256  0 V512" stroke="lightgray" fill="white"></path>
  <text x="256" y="12" font-size="12" text-anchor="start" fill="red">256</text>
  <path d="M320  0 V512" stroke="lightgray" fill="white"></path>
  <text x="320" y="12" font-size="12" text-anchor="start" fill="red">320</text>
  <path d="M384  0 V512" stroke="lightgray" fill="white"></path>
  <text x="384" y="12" font-size="12" text-anchor="start" fill="red">384</text>
  <path d="M448  0 V512" stroke="lightgray" fill="white"></path>
  <text x="448" y="12" font-size="12" text-anchor="start" fill="red">448</text>
  <text x="512" y="12" font-size="12" text-anchor="start" fill="red">512</text>
<circle fill="#33CCFF" stroke="black" stroke-width="1" cx="260" cy="260" r="150"/>
<circle fill="white" stroke="black" stroke-width="1" cx="260" cy="294" r="117"/>
<ellipse fill="white" stroke="black" stroke-width="1" cx="225" cy="180" rx="30" ry="35"/>
<ellipse fill="white" stroke="black" stroke-width="1" cx="286" cy="180" rx="30" ry="35"/>
<ellipse fill="black" stroke="black" stroke-width="1" cx="225" cy="180" rx="10" ry="15"/>
<ellipse fill="black" stroke="black" stroke-width="1" cx="286" cy="180" rx="10" ry="15"/>
<ellipse fill="white" stroke="black" stroke-width="1" cx="225" cy="180" rx="3" ry="5"/>
<ellipse fill="white" stroke="black" stroke-width="1" cx="286" cy="180" rx="3" ry="5"/>
<circle fill="#FF4343" stroke="#890000" stroke-width="1" cx="256" cy="225" r="22"/>
<circle fill="white" stroke="#890000" stroke-width="1" cx="249" cy="220" r="7"/>
<path d="M110 210 L200 250" stroke="black"/>
<path d="M110 320 L200 300" stroke="black"/>
<path d="M402 210 L312 250" stroke="black"/>
<path d="M402 320 L312 300" stroke="black"/>
<path d="M100 273 H195" stroke="black"/>
<path d="M415 273 H320" stroke="black"/>
<path d="M256 247 V352" stroke="black"/>
<path d="M160 320 C240 364,275 364,356,320" stroke="black" fill="none"/>
</svg>
