<?xml version="1.0" standalone="no"?>
<!DOCTYPE svg PUBLIC "-//W3C//DTD SVG 1.1//EN" "http://www.w3.org/Graphics/SVG/1.1/DTD/svg11.dtd" >
<svg xmlns="http://www.w3.org/2000/svg" xmlns:xlink="http://www.w3.org/1999/xlink" version="1.1" viewBox="0 0 256 256">
  <g transform="matrix(1 0 0 -1 0 204)">
   <path fill="currentColor"
d="M119 129q2 -1 3 -2q-1 -2 -3 -2q-15 -2 -24 -4q0 -4 -1 -10q-1 -7 0 -11q11 2 25 4q2 -1 2 -3t-2 -2q-16 -3 -25 -5q0 -6 -1 -10q12 -7 23 -16q3 -3 0 -4q-5 -3 -6 1q-3 2 -5 4q-6 7 -12 12q-2 -38 -1 -63q1 -23 5 -42q0 -2 -2 -4q-3 0 -3 2q-2 6 -7 15q-1 2 -1 3
q-5 8 -7 17q0 4 2 1q2 -6 8 -10l2 -2q1 0 1 2q-3 32 -2 72q-17 -35 -54 -52q-2 0 -1 2q44 24 55 70q-32 -10 -60 -23q-7 -4 -15 -2q-5 0 0 2q49 20 76 29v21q-5 -1 -8 -2q-9 -4 -21 -3q-4 1 0 2q15 2 29 7v24q-5 -2 -10 -3q-11 -5 -25 1q-5 1 0 2q14 -2 35 4v18q1 13 2 19
q0 11 -4 17q-2 3 2 1q12 -12 9 -15q-2 -12 -2 -39l4 1q8 2 10 7q2 3 8 1q8 -2 13 -5q2 -4 -3 -5q-13 1 -33 -2v-24l6 2q8 5 18 2zM185 147q6 0 12 -2h2q2 -1 2 -4q-1 -1 -3 -1q-10 -1 -21 -4q-23 -8 -33 -5q-6 1 0 2q34 8 33 11q2 3 8 3zM214 111q0 4 9 2q10 -3 17 -6
q2 -5 -1 -6q-25 5 -54 -6q-7 -3 -2 1q1 0 3 1l4 2q3 2 -1 2q-36 -8 -62 -16q-7 -3 -16 -1q-2 0 -2 1t3 2q51 11 95 21q5 1 7 3zM178 60q-4 4 1 2q15 -10 32 -28q6 -8 2 -12q-6 -5 -8 2q-6 8 -8 11t-2 5q-16 -7 -58 -17q-7 -2 -6 -3q0 -2 -5 -1t-4 4q0 6 8 8q3 0 9 8
q6 7 16 23l2 4q5 10 5 16q-1 3 1 0q3 -4 7 -9q2 -2 1 -4q0 -1 -3 -2q-4 -3 -21 -23q-5 -7 -8 -10t-2 -4q0 -1 4 0q7 1 18 4q22 5 34 8q-6 9 -15 18z" />
  </g>

</svg>
