<?xml version="1.0" standalone="no"?>
<!DOCTYPE svg PUBLIC "-//W3C//DTD SVG 1.1//EN" "http://www.w3.org/Graphics/SVG/1.1/DTD/svg11.dtd" >
<svg xmlns="http://www.w3.org/2000/svg" xmlns:xlink="http://www.w3.org/1999/xlink" version="1.1" viewBox="0 0 256 256">
  <g transform="matrix(1 0 0 -1 0 204)">
   <path fill="currentColor"
d="M174 194q6 3 11 0t9 -6q1 -2 1 -4q-1 -1 -3 0q-11 2 -18 1q-7 0 -21 -3q-15 -2 -51 -27q-6 -4 0 2l12 8q10 8 16 13q4 3 -1 2q-25 -4 -47 -12q-15 -6 -22 0q-4 1 1 2q45 8 90 17q14 3 23 7zM90 144q-7 -13 -18 -61q-18 -71 -42 -95q-3 -4 -6 -3q-3 0 1 4q25 24 41 94
q9 38 20 60l2 2q4 5 2 -1zM113 -5q0 -3 2 -3t5 4q12 16 23 38q4 6 2 -1q-9 -24 -21 -45q-3 -4 -5 -5q-3 0 -5 4q-8 13 -10 36q-1 25 6 52q3 10 0 16q-1 2 0 2q2 1 4 0q5 -10 5 -13q-15 -47 -6 -85zM163 151q3 5 9 4q1 -1 3 -1q3 -1 6 -1q2 -1 1 -4q-1 -2 -4 -2
q-12 -1 -26 -7q-8 -3 -32 -9q-8 -2 -14 0q-3 0 -3 1t3 2q13 1 49 12q5 2 8 5zM175 114q4 1 8 4q2 4 10 1q1 -1 15 -6q1 -2 0 -4q-2 -2 -4 0q-11 4 -28 2q-26 -5 -67 -16l-16 -4q-13 -3 -17 -1q-3 1 0 2q27 5 48 10q24 7 51 12zM146 63q-7 -5 -17 -11q-6 -3 -2 2q10 6 16 13
q-7 8 -17 6q-3 -1 -3 0t3 3q5 3 11 4q1 1 11 -10q14 9 20 18q3 5 0 6q-3 0 2 3q8 2 12 1q1 -1 0 -4q-4 -5 -13 -13q-4 -5 -18 -15q5 -6 15 -19t24 -26q5 -6 19 -5q15 0 35 -5q2 -1 3 -3q-1 -1 -3 -1q-9 0 -21 1q-7 0 -17 1q-8 -1 -16 6q-9 6 -23 25q-15 18 -21 23z" />
  </g>

</svg>
